<?xml version="1.0" standalone="no"?>
<!DOCTYPE svg PUBLIC "-//W3C//DTD SVG 20010904//EN"
 "http://www.w3.org/TR/2001/REC-SVG-20010904/DTD/svg10.dtd">
<svg version="1.0" xmlns="http://www.w3.org/2000/svg"
 width="1500.000000pt" height="416.000000pt" viewBox="0 0 1500.000000 416.000000"
 preserveAspectRatio="xMidYMid meet">

<g transform="translate(0.000000,416.000000) scale(0.100000,-0.100000)"
fill="#000000" stroke="none">
<path d="M1793 2870 c-21 -13 -35 -31 -42 -57 -16 -57 -14 -1757 2 -1802 7
-19 25 -44 40 -55 27 -20 41 -21 380 -24 194 -2 371 -1 394 3 24 3 56 18 73
31 26 22 30 32 30 76 0 41 -5 54 -29 79 l-29 29 -260 0 c-142 0 -280 3 -306 6
l-46 7 0 819 c0 885 2 855 -52 892 -32 23 -115 21 -155 -4z"/>
<path d="M4255 2878 c-35 -19 -66 -52 -85 -88 -29 -57 -678 -1683 -691 -1732
-7 -24 -9 -56 -5 -71 15 -60 127 -88 192 -48 32 19 57 76 169 374 l18 47 478
0 c350 0 480 -3 485 -12 4 -6 37 -90 74 -187 84 -218 101 -241 185 -241 52 0
60 3 92 35 33 33 35 39 29 77 -8 50 -689 1751 -717 1789 -33 47 -80 69 -145
69 -33 0 -68 -6 -79 -12z m284 -795 c105 -276 191 -507 191 -513 0 -10 -781
-16 -792 -5 -4 4 260 709 384 1025 8 21 11 22 18 10 5 -9 94 -241 199 -517z"/>
<path d="M5918 2385 c-236 -58 -420 -247 -490 -504 -30 -110 -30 -334 0 -443
89 -323 333 -518 648 -518 153 0 256 42 353 145 l53 56 -4 -128 c-6 -181 -48
-284 -145 -358 -82 -62 -142 -79 -278 -79 -107 0 -128 4 -195 29 -41 15 -114
50 -163 78 -94 53 -154 67 -197 45 -33 -17 -64 -81 -56 -114 27 -106 291 -229
536 -248 104 -9 258 12 353 48 210 79 347 248 393 484 11 59 14 211 14 764 l0
690 -34 34 c-30 30 -40 34 -86 34 -90 0 -128 -35 -137 -127 -4 -39 -9 -51 -15
-39 -18 33 -142 110 -221 137 -69 24 -97 29 -177 28 -52 0 -121 -7 -152 -14z
m257 -200 c104 -17 217 -109 269 -220 47 -98 61 -169 61 -310 0 -145 -21 -234
-76 -331 -36 -63 -116 -139 -172 -164 -151 -67 -345 -35 -452 75 -92 95 -145
249 -145 425 0 291 139 497 355 529 60 8 83 8 160 -4z"/>
<path d="M7642 2380 c-221 -58 -392 -224 -474 -460 -32 -92 -33 -100 -33 -260
0 -142 3 -176 23 -243 68 -235 213 -392 428 -463 83 -27 99 -29 249 -29 137 0
172 3 240 23 128 37 259 105 326 171 54 52 59 61 59 100 0 34 -6 49 -29 72
-44 44 -76 39 -173 -28 -153 -104 -253 -137 -418 -136 -199 2 -342 85 -414
244 -25 54 -50 174 -40 190 3 5 235 9 515 9 545 0 553 1 579 49 17 32 12 172
-10 257 -52 205 -181 373 -353 461 -125 63 -328 81 -475 43z m239 -190 c90
-13 150 -40 210 -97 79 -74 127 -172 143 -290 l7 -53 -430 0 -429 0 5 43 c25
221 152 369 339 396 81 12 81 12 155 1z"/>
<path d="M8935 2391 c-11 -5 -29 -19 -40 -31 -20 -22 -20 -36 -20 -702 l0
-680 33 -29 c27 -25 41 -29 88 -29 50 0 59 3 90 34 30 30 34 40 34 87 0 30 0
221 0 424 0 387 6 469 42 544 98 203 418 249 581 83 25 -26 56 -69 69 -97 23
-49 23 -56 28 -525 5 -432 7 -477 23 -501 23 -34 58 -49 115 -49 54 0 85 18
107 60 22 42 22 911 0 1015 -53 249 -255 405 -525 405 -146 0 -277 -47 -377
-135 -28 -25 -54 -45 -57 -45 -3 0 -6 25 -6 56 0 50 -3 59 -34 90 -30 30 -40
34 -82 33 -27 0 -58 -4 -69 -8z"/>
<path d="M11012 2381 c-121 -30 -216 -84 -302 -170 -87 -88 -136 -173 -176
-306 -24 -81 -27 -106 -27 -245 0 -140 2 -163 27 -245 41 -135 89 -218 176
-306 132 -132 280 -189 495 -189 182 0 306 38 373 115 51 57 40 134 -23 161
-41 17 -61 13 -159 -29 -185 -78 -365 -48 -490 83 -97 101 -146 239 -146 410
0 408 292 631 643 490 101 -40 139 -40 183 4 68 68 26 153 -101 204 -109 44
-342 55 -473 23z"/>
<path d="M12470 2393 c-57 -9 -159 -47 -220 -80 -77 -43 -191 -155 -239 -237
-136 -230 -146 -557 -24 -805 51 -104 170 -224 271 -275 118 -59 221 -79 382
-73 106 4 154 10 222 31 294 87 446 245 333 344 -40 35 -73 28 -161 -32 -161
-109 -250 -139 -414 -139 -156 0 -254 38 -347 134 -67 71 -112 178 -113 271
l0 37 524 3 524 3 25 23 c32 31 40 83 27 188 -30 240 -168 448 -361 542 -114
57 -182 72 -304 71 -55 -1 -111 -4 -125 -6z m185 -203 c139 -21 244 -97 303
-221 29 -63 52 -147 52 -194 l0 -25 -425 0 -425 0 0 33 c0 98 61 236 136 307
60 57 123 88 204 99 77 12 77 12 155 1z"/>
</g>
</svg>
