<?xml version="1.0" standalone="no"?>
<!DOCTYPE svg PUBLIC "-//W3C//DTD SVG 20010904//EN"
 "http://www.w3.org/TR/2001/REC-SVG-20010904/DTD/svg10.dtd">
<svg version="1.0" xmlns="http://www.w3.org/2000/svg"
 width="512.000000pt" height="512.000000pt" viewBox="0 0 512.000000 512.000000"
 preserveAspectRatio="xMidYMid meet">

<g transform="translate(0.000000,512.000000) scale(0.100000,-0.100000)"
fill="#000000" stroke="none">
<path d="M0 3140 l0 -1980 230 0 230 0 0 -195 0 -195 230 0 230 0 0 -190 0
-190 225 0 225 0 0 -195 0 -195 1086 0 1087 0 118 85 117 85 127 0 127 0 103
-75 c57 -41 110 -78 119 -81 10 -4 108 47 261 136 135 78 245 144 245 147 0 2
-7 64 -15 137 l-16 133 66 114 66 114 127 55 127 56 0 289 0 289 -127 56 -128
55 -65 114 -66 113 16 133 c8 74 15 136 15 138 0 3 -54 36 -120 73 l-120 69 0
538 0 537 -75 0 -75 0 0 -490 c0 -269 -3 -490 -7 -490 -3 0 -26 12 -50 26 -25
14 -50 23 -58 20 -7 -2 -60 -39 -117 -80 l-105 -76 -129 0 -129 0 -109 80
c-60 44 -113 80 -118 80 -18 0 -498 -283 -498 -294 0 -6 7 -68 15 -138 l15
-126 -66 -115 -67 -114 -126 -54 -126 -55 0 -289 0 -289 127 -56 126 -55 66
-114 66 -114 -15 -126 c-8 -69 -15 -131 -15 -138 0 -6 55 -43 123 -82 l122
-71 -887 0 -888 0 0 1830 0 1830 1425 0 1425 0 2 -172 3 -173 73 -3 72 -3 0
251 0 250 -225 0 -225 0 0 195 0 195 -230 0 -230 0 0 190 0 190 -225 0 -225 0
0 195 0 195 -1155 0 -1155 0 0 -75 0 -75 1080 0 1081 0 -3 -117 -3 -118 -1272
-3 -1273 -2 0 -850 0 -850 75 0 75 0 0 775 0 775 1425 0 1425 0 0 -115 0 -115
-1270 0 -1270 0 -2 -1712 -3 -1713 -152 -3 -153 -3 0 981 0 980 -75 0 -75 0 0
-785 0 -786 -152 3 -153 3 -3 1828 -2 1827 275 0 275 0 0 75 0 75 -350 0 -350
0 0 -1980z m3918 938 l3 -118 -1276 0 -1275 0 0 -1710 0 -1710 -150 0 -150 0
0 1830 0 1830 1423 -2 1422 -3 3 -117z m-281 -1943 l90 -65 179 0 180 0 88 65
c48 36 93 65 98 65 6 0 82 -42 170 -92 l160 -93 -6 -35 c-3 -20 -8 -74 -11
-120 l-5 -85 87 -149 88 -148 105 -47 105 -47 0 -189 0 -189 -105 -48 -105
-47 -89 -153 -88 -153 6 -80 c4 -44 9 -96 12 -116 l6 -36 -160 -91 c-87 -51
-164 -92 -170 -92 -7 0 -52 29 -101 65 l-88 65 -179 0 -179 -1 -93 -68 -93
-69 -160 93 c-88 51 -162 95 -165 98 -2 2 1 55 7 118 l12 114 -89 153 -90 153
-104 47 -105 48 0 189 0 189 104 47 104 46 90 154 90 154 -12 114 c-6 63 -10
115 -8 117 11 11 314 183 323 184 6 0 51 -29 101 -65z"/>
<path d="M3328 1538 c-128 -159 -261 -334 -261 -343 0 -11 276 -369 291 -379
5 -3 34 15 65 40 l57 44 -115 146 -115 147 27 36 c15 20 67 86 115 148 l87
111 -47 38 c-26 21 -52 41 -59 46 -7 6 -23 -6 -45 -34z"/>
<path d="M4387 1534 l-57 -46 48 -61 c27 -34 78 -100 115 -147 l66 -84 -27
-36 c-14 -19 -66 -85 -114 -147 l-88 -112 57 -46 c67 -55 42 -74 227 164 82
106 132 179 128 185 -30 40 -294 376 -295 376 -1 0 -28 -21 -60 -46z"/>
<path d="M3861 1256 c-151 -117 -274 -217 -274 -222 0 -13 77 -113 85 -111 12
3 547 417 553 428 6 9 -74 120 -85 118 -3 0 -128 -96 -279 -213z"/>
<path d="M2013 3552 c-144 -52 -214 -152 -243 -349 -7 -48 -10 -182 -8 -348
l3 -270 73 -3 72 -3 0 181 0 180 225 0 225 0 2 -177 3 -178 71 -3 72 -3 7 235
c13 399 -14 541 -120 655 -64 68 -126 94 -240 98 -69 3 -102 -1 -142 -15z
m228 -155 c62 -33 104 -98 119 -187 7 -39 9 -82 6 -96 l-6 -24 -223 2 -222 3
1 70 c1 86 16 136 57 182 65 74 181 95 268 50z"/>
<path d="M2662 3078 l3 -493 73 -3 72 -3 0 211 0 210 178 0 c226 0 265 10 339
85 37 39 56 68 67 106 42 140 -9 280 -126 345 l-53 29 -278 3 -277 3 2 -493z
m529 327 c65 -34 89 -128 49 -193 -33 -54 -67 -62 -260 -62 l-170 0 0 135 0
135 175 0 c139 0 182 -3 206 -15z"/>
<path d="M3565 3558 c-3 -7 -4 -229 -3 -493 l3 -480 73 -3 72 -3 0 496 0 495
-70 0 c-47 0 -72 -4 -75 -12z"/>
<path d="M1810 1965 l0 -75 75 0 75 0 0 75 0 75 -75 0 -75 0 0 -75z"/>
<path d="M2110 1965 l0 -75 75 0 75 0 0 75 0 75 -75 0 -75 0 0 -75z"/>
</g>
</svg>
