<?xml version="1.0" standalone="no"?>
<!DOCTYPE svg PUBLIC "-//W3C//DTD SVG 20010904//EN"
 "http://www.w3.org/TR/2001/REC-SVG-20010904/DTD/svg10.dtd">
<svg version="1.0" xmlns="http://www.w3.org/2000/svg"
 width="700.000000pt" height="700.000000pt" viewBox="0 0 700.000000 700.000000"
 preserveAspectRatio="xMidYMid meet">

<g transform="translate(0.000000,700.000000) scale(0.100000,-0.100000)"
fill="#000000" stroke="none">
<path d="M3294 6953 c17 -153 28 -268 42 -433 33 -404 47 -541 58 -559 5 -8
13 -8 27 0 15 8 24 7 35 -2 32 -26 35 4 19 172 -8 90 -22 234 -30 319 -8 85
-22 244 -31 353 l-18 197 -53 0 -54 0 5 -47z"/>
<path d="M3740 6980 c0 -12 -5 -30 -10 -41 -8 -14 -5 -38 12 -95 18 -62 19
-79 9 -95 -9 -16 -8 -35 10 -100 15 -58 18 -83 10 -92 -12 -15 -7 -48 14 -110
18 -51 19 -84 3 -89 -8 -3 -5 -30 12 -97 16 -67 20 -98 13 -114 -11 -23 4
-104 25 -143 11 -21 50 -34 97 -34 13 0 25 -5 27 -12 4 -10 13 -10 44 -1 21 6
65 19 96 28 32 9 60 21 64 26 3 5 29 9 57 9 29 0 60 7 70 14 15 12 25 11 67
-5 l49 -19 35 38 c20 21 36 47 36 61 0 23 1 23 26 6 14 -9 33 -14 42 -10 9 4
35 9 57 10 22 2 41 8 43 14 2 5 19 15 38 21 19 6 34 16 34 21 0 5 14 9 30 9
17 0 30 4 30 9 0 5 16 15 35 21 19 6 42 18 50 27 8 8 15 10 15 4 0 -5 12 -4
28 5 15 7 32 14 39 14 6 0 18 6 25 13 13 12 42 25 106 46 51 17 96 32 107 35
21 6 51 18 67 27 10 5 29 9 42 9 13 0 44 11 67 25 24 14 54 25 67 25 12 0 39
9 59 20 21 11 46 20 56 20 10 0 28 7 40 15 12 8 41 15 65 17 23 2 42 6 42 11
0 4 6 7 13 7 7 0 20 9 30 20 9 11 29 20 44 20 16 0 40 6 55 14 15 8 37 12 48
9 16 -4 23 0 27 17 3 12 9 17 12 11 6 -9 48 1 126 30 11 4 49 15 85 24 36 10
78 24 93 32 16 8 31 12 35 9 3 -3 15 0 26 7 12 8 44 19 71 26 28 7 64 19 82
27 17 8 34 14 38 14 4 0 21 6 38 14 47 21 125 46 145 46 10 0 22 4 28 8 5 5
36 17 69 27 33 11 65 22 70 26 17 12 134 49 155 49 14 0 20 7 20 21 0 19 -4
20 -132 16 -130 -3 -136 -4 -253 -49 -66 -26 -205 -77 -310 -113 -104 -37
-246 -88 -315 -112 -69 -25 -186 -67 -260 -93 -74 -26 -184 -66 -245 -88 -60
-22 -186 -68 -280 -101 -93 -34 -233 -85 -310 -113 -77 -28 -183 -66 -235 -85
-52 -18 -104 -37 -115 -42 -11 -6 -30 -13 -42 -16 -13 -4 -23 -10 -23 -15 0
-4 -8 -6 -19 -3 -10 2 -39 -2 -65 -11 -55 -19 -56 -19 -56 -6 0 6 7 10 16 10
24 0 67 37 52 44 -7 3 -3 3 10 0 14 -3 22 -1 23 8 2 13 4 39 7 91 2 24 5 26
21 18 10 -6 22 -22 25 -36 6 -23 26 -36 26 -16 0 5 21 17 48 27 26 10 54 23
62 30 8 7 40 22 70 33 30 12 63 26 72 31 10 6 23 10 28 10 17 0 98 39 105 50
3 5 14 10 23 10 29 0 91 20 105 34 7 7 24 17 37 20 52 15 130 50 130 58 0 4
16 8 35 8 19 0 35 5 35 10 0 6 6 10 14 10 7 0 19 7 26 15 7 8 21 15 31 15 11
0 19 5 19 11 0 5 4 7 10 4 12 -7 117 23 125 36 4 5 15 9 26 9 10 0 19 5 19 11
0 6 9 8 20 4 13 -4 37 2 61 14 22 12 45 21 51 21 6 0 20 8 30 17 10 9 35 18
55 20 19 1 45 9 57 16 12 8 40 18 64 22 23 4 42 10 42 13 0 4 12 8 26 8 14 1
33 9 42 18 10 8 54 23 97 32 44 10 82 20 85 23 9 10 132 54 183 65 15 4 27 11
27 16 0 13 -295 13 -318 0 -17 -10 -162 -64 -622 -234 -129 -48 -280 -105
-335 -126 -55 -22 -143 -55 -195 -74 -52 -19 -142 -52 -200 -74 -58 -22 -138
-52 -177 -67 -40 -15 -73 -31 -73 -37 0 -6 -9 -8 -21 -5 -11 3 -39 -1 -61 -9
-22 -8 -47 -14 -54 -14 -22 0 -5 28 24 39 37 14 60 34 70 60 9 24 1 126 -11
137 -4 4 -25 1 -47 -6 -22 -7 -43 -10 -47 -7 -5 6 25 35 61 59 5 4 12 28 15
55 5 39 10 48 25 48 12 0 23 -11 30 -31 13 -37 24 -35 75 17 21 21 44 39 51
39 7 0 43 15 80 34 37 19 71 32 75 28 4 -4 12 0 18 9 7 9 28 19 48 23 20 3 46
15 58 25 13 11 30 16 45 14 16 -3 36 3 55 16 16 12 35 21 42 21 34 0 160 51
153 62 -3 4 -60 8 -127 8 l-121 0 -223 -90 c-123 -49 -229 -90 -237 -90 -8 0
-21 -8 -28 -17 -7 -10 -26 -18 -43 -18 -16 -1 -48 -4 -70 -8 l-40 -7 25 19
c14 11 33 27 43 35 9 9 21 16 26 16 15 0 25 90 14 119 -9 27 -12 28 -88 15
-36 -7 -39 -6 -27 9 12 14 -9 16 -247 17 -258 1 -261 0 -261 -20z m480 -20 c0
-5 -4 -10 -10 -10 -5 0 -10 5 -10 10 0 6 5 10 10 10 6 0 10 -4 10 -10z m-215
-989 c-3 -6 -11 -11 -16 -11 -5 0 -4 6 3 14 14 16 24 13 13 -3z"/>
<path d="M4380 6980 c0 -10 12 -31 26 -45 l26 -26 52 26 c28 14 62 35 76 45
l25 20 -102 0 c-96 0 -103 -1 -103 -20z"/>
<path d="M5415 6973 c-63 -26 -84 -35 -200 -78 -38 -14 -79 -30 -90 -35 -11
-5 -45 -18 -75 -29 -92 -33 -343 -131 -375 -145 -16 -8 -55 -22 -85 -31 -142
-46 -160 -55 -160 -83 0 -16 11 -37 25 -51 14 -13 25 -27 25 -32 0 -15 27 -10
33 5 3 8 19 17 36 21 17 4 31 10 31 15 0 5 14 11 30 15 17 4 30 11 30 16 0 5
7 9 14 9 8 0 35 11 59 23 24 13 61 27 82 30 21 3 46 14 56 23 11 10 22 14 26
11 3 -4 21 4 39 18 18 14 44 25 58 25 14 0 53 13 88 29 109 49 132 58 165 65
18 4 35 12 38 17 4 5 13 9 22 9 9 0 24 6 32 14 9 7 34 18 56 24 69 19 190 65
197 76 4 6 13 11 20 12 7 0 20 3 28 6 8 3 35 11 60 18 97 27 93 28 -55 29
-138 0 -155 -2 -210 -26z"/>
<path d="M6705 6729 c-143 -49 -325 -111 -405 -138 -156 -54 -574 -199 -840
-292 -91 -32 -223 -78 -295 -103 -71 -25 -139 -50 -150 -55 -11 -6 -74 -28
-140 -51 -66 -22 -136 -47 -155 -55 -19 -7 -48 -18 -64 -22 -35 -11 -47 -33
-18 -33 11 0 22 -6 25 -12 3 -10 9 -10 26 0 11 6 31 12 44 12 13 0 32 9 42 20
10 11 28 20 41 20 13 0 25 4 29 9 3 5 30 13 60 16 30 4 55 12 55 17 0 5 4 7 9
3 5 -3 18 6 30 20 17 23 22 25 41 13 18 -11 23 -10 39 11 10 13 23 21 30 17 6
-4 11 -1 11 7 0 10 7 13 20 10 33 -9 226 36 256 59 11 8 98 28 214 49 30 6 65
17 78 25 13 8 46 18 73 21 28 3 56 12 63 19 11 11 71 32 115 40 57 11 116 29
148 45 20 10 63 24 94 30 32 6 67 20 78 30 14 13 35 19 65 19 25 0 47 4 51 9
3 5 31 15 63 22 31 7 71 23 88 36 17 13 44 23 60 23 16 0 41 6 55 13 14 8 45
17 69 21 24 4 58 13 74 21 62 28 151 55 183 55 l33 0 0 70 c0 60 -2 70 -17 69
-10 0 -135 -41 -278 -90z"/>
<path d="M6790 6506 c-102 -35 -347 -116 -545 -180 -311 -101 -493 -163 -503
-171 -1 -1 0 -8 3 -16 3 -8 19 -15 35 -16 18 -1 28 2 25 7 -4 6 8 10 25 10 18
0 29 -4 25 -10 -21 -34 130 -15 240 30 11 5 38 12 60 15 21 4 53 14 70 23 28
14 91 35 210 67 28 7 64 18 80 24 17 5 71 22 120 36 50 15 99 30 110 35 58 23
213 70 233 70 21 0 22 4 22 70 0 50 -4 70 -12 69 -7 0 -96 -29 -198 -63z"/>
<path d="M6950 6309 c-26 -9 -201 -65 -515 -164 -312 -98 -529 -168 -545 -176
-19 -9 -99 -39 -105 -39 -3 0 -5 7 -5 15 0 8 4 15 9 15 20 0 5 61 -22 85 -15
14 -27 29 -27 34 0 15 -53 33 -60 21 -5 -7 -11 -6 -20 5 -14 16 -56 21 -62 6
-2 -6 -22 -6 -53 0 -72 14 -153 8 -175 -13 -21 -20 -46 -23 -55 -8 -3 6 -13
10 -21 10 -20 0 -17 -20 4 -21 15 0 14 -1 -2 -8 -11 -4 -38 -4 -60 0 -35 6
-43 4 -63 -17 -13 -14 -28 -21 -37 -18 -26 10 -64 -4 -71 -26 -3 -11 -12 -20
-18 -20 -7 0 -25 -7 -42 -16 -16 -8 -46 -19 -65 -23 -25 -5 -36 -13 -38 -28
-4 -24 -62 -73 -86 -73 -9 0 -16 -4 -16 -10 0 -5 8 -10 19 -10 10 0 24 -7 31
-15 7 -9 8 -15 2 -15 -17 0 -1 -40 20 -51 11 -6 36 -9 54 -7 27 3 33 1 29 -10
-4 -12 -3 -13 10 -2 11 9 18 10 29 1 11 -9 15 -7 19 11 5 16 10 19 17 12 7 -7
7 -20 -1 -43 -9 -24 -9 -35 0 -44 7 -7 11 -8 11 0 0 6 11 11 25 11 14 0 25 -2
25 -4 0 -3 -11 -9 -25 -14 -14 -5 -25 -17 -25 -26 0 -12 4 -14 13 -6 6 5 23
13 37 17 20 6 23 5 13 -6 -24 -24 -15 -39 23 -39 28 0 37 -5 41 -20 4 -15 9
-18 18 -10 8 7 16 3 25 -15 9 -17 19 -23 31 -20 13 4 19 -1 24 -23 5 -27 80
-92 105 -92 6 0 10 -4 10 -9 0 -5 13 -12 30 -16 25 -6 35 -1 69 33 22 22 57
49 78 60 23 11 37 26 35 35 -3 17 55 40 99 39 36 -1 56 22 39 43 -15 18 3 20
69 4 37 -8 50 -6 85 11 23 11 49 20 57 20 9 0 35 6 60 14 24 7 78 24 119 36
41 13 93 29 115 36 37 12 85 25 190 52 22 6 65 17 95 25 30 8 86 22 124 31 39
9 83 23 99 31 17 8 39 15 50 15 10 0 33 6 50 13 54 24 102 37 130 37 27 0 27
1 27 65 0 36 -4 65 -10 65 -5 0 -40 -10 -77 -21 -133 -42 -249 -78 -338 -104
-49 -15 -108 -33 -130 -40 -22 -8 -96 -30 -165 -50 -147 -42 -300 -91 -460
-147 -143 -49 -170 -55 -170 -36 0 8 9 23 20 33 11 10 18 21 15 25 -2 4 9 20
25 35 17 16 30 33 30 39 0 5 6 17 14 25 8 9 16 29 19 45 4 30 27 50 27 24 0
-8 6 -22 13 -31 10 -14 19 -15 57 -6 25 6 52 11 60 12 8 0 21 4 28 10 8 6 21
12 30 13 14 3 263 83 312 102 8 3 21 4 28 3 7 -1 22 5 34 14 13 8 32 15 44 15
12 0 35 7 50 15 16 8 39 15 50 15 22 0 162 42 275 83 36 13 100 32 142 42 l77
18 0 63 c0 68 -2 70 -50 53z"/>
<path d="M5340 6120 c-13 -8 -12 -10 3 -10 9 0 17 5 17 10 0 12 -1 12 -20 0z"/>
<path d="M4585 5980 c-3 -5 -2 -10 4 -10 5 0 13 5 16 10 3 6 2 10 -4 10 -5 0
-13 -4 -16 -10z"/>
<path d="M3854 5823 c-7 -2 -10 -20 -7 -48 4 -35 1 -48 -16 -67 l-22 -23 -19
25 c-11 14 -20 30 -20 36 0 12 -22 24 -41 24 -5 0 -15 -11 -21 -25 -6 -14 -18
-25 -27 -25 -11 0 -12 -3 -5 -8 21 -13 45 -85 44 -132 0 -25 4 -85 10 -134 12
-108 8 -176 -12 -187 -9 -5 -21 -22 -28 -39 -8 -18 -20 -30 -31 -30 -11 0 -19
-7 -19 -15 0 -8 9 -15 20 -15 11 0 20 -7 20 -15 0 -8 -6 -15 -13 -15 -7 0 -28
-14 -46 -31 -18 -16 -35 -29 -36 -27 -2 2 -10 21 -19 42 -16 37 -17 38 -35 22
-12 -11 -21 -14 -26 -7 -11 19 -29 12 -50 -19 -11 -16 -36 -37 -57 -46 -21 -9
-38 -21 -38 -26 0 -15 -18 -9 -48 17 -17 14 -41 25 -54 25 -30 0 -78 -42 -78
-67 -1 -16 -2 -16 -16 2 -8 11 -26 21 -40 22 -39 3 -57 22 -50 55 5 23 2 28
-14 28 -16 0 -20 7 -20 35 0 19 -4 35 -8 35 -5 0 -16 18 -26 39 -9 22 -26 43
-37 46 -11 4 -31 29 -45 56 -27 54 -44 56 -44 7 0 -50 -21 -97 -44 -100 -19
-3 -21 -11 -24 -77 -2 -52 1 -77 10 -82 10 -7 10 -11 0 -21 -10 -10 -15 -10
-22 2 -5 8 -13 11 -17 6 -4 -5 -2 -11 5 -13 10 -4 18 -43 8 -43 -2 0 -20 7
-40 15 -20 8 -36 11 -36 6 0 -5 7 -11 15 -15 31 -11 14 -26 -27 -24 -24 1 -47
1 -53 -1 -5 -2 -29 -3 -52 -2 -38 1 -43 4 -43 24 0 26 -37 45 -110 57 l-45 7
38 2 c20 0 37 6 37 12 0 8 4 8 15 -1 14 -12 35 -6 35 10 0 5 -11 12 -25 16
-14 3 -25 10 -25 15 0 5 -16 9 -35 9 -32 0 -35 2 -29 24 5 20 0 27 -27 40 -41
20 -69 20 -69 0 0 -24 25 -44 57 -45 23 -1 21 -3 -12 -9 -45 -9 -75 -3 -54 11
23 14 7 18 -81 20 -100 3 -110 -8 -60 -65 27 -30 29 -36 14 -36 -15 0 -11 -8
19 -35 54 -49 49 -62 -25 -68 -57 -5 -65 -3 -85 19 -20 21 -31 24 -98 24 -60
0 -75 -3 -75 -15 0 -8 6 -15 14 -15 30 0 103 -41 116 -64 10 -21 11 -28 0 -41
-7 -8 -19 -15 -28 -15 -8 0 -30 -9 -48 -21 -21 -12 -41 -18 -54 -14 -11 4 -20
2 -20 -4 0 -6 5 -11 10 -11 6 0 10 -7 10 -15 0 -8 12 -17 28 -21 53 -11 58
-17 22 -25 -19 -4 -45 -10 -56 -14 -12 -4 -25 -2 -28 4 -12 19 -46 13 -46 -9
0 -11 -7 -20 -15 -20 -8 0 -20 -9 -27 -20 -14 -23 -34 -26 -42 -7 -3 6 -3 -1
1 -17 5 -23 0 -32 -23 -52 -16 -13 -34 -23 -40 -24 -6 0 -19 -9 -29 -20 -11
-12 -28 -20 -39 -18 -22 3 -66 -31 -66 -51 0 -7 -8 -11 -17 -9 -20 4 -53 -32
-53 -57 0 -10 -13 -32 -29 -50 -16 -19 -31 -50 -35 -74 -7 -47 -20 -53 -33
-15 -9 26 -9 26 -22 -14 -10 -29 -20 -42 -35 -44 -17 -2 -21 -10 -21 -38 -1
-36 -31 -89 -51 -90 -7 0 -14 -6 -17 -14 -3 -8 -15 -20 -26 -26 -19 -9 -21 -8
-21 15 0 16 6 25 16 25 9 0 14 6 11 13 -2 8 -19 11 -50 9 -38 -3 -47 -1 -47
12 0 12 -11 16 -45 16 -27 0 -45 -5 -45 -11 0 -7 -10 -20 -22 -30 -11 -11 -18
-19 -13 -19 4 0 2 -7 -5 -15 -7 -9 -19 -14 -27 -11 -9 4 -13 -3 -13 -19 0 -14
5 -25 10 -25 6 0 10 -21 10 -47 0 -45 -13 -51 -22 -11 -3 17 -5 17 -35 -2 -28
-17 -33 -26 -34 -62 -2 -40 -2 -41 -9 -13 -6 25 -7 23 -4 -11 2 -28 -4 -56
-18 -85 -17 -36 -19 -53 -13 -104 7 -62 7 -68 4 -137 -1 -26 4 -45 13 -52 12
-9 13 -30 8 -116 -4 -58 -3 -113 1 -122 5 -9 9 -69 9 -134 0 -99 3 -119 17
-130 17 -13 17 -13 1 -14 -20 0 -25 -36 -6 -42 7 -3 11 -25 9 -61 -1 -33 3
-57 9 -57 12 0 50 -36 50 -48 0 -5 23 -14 51 -21 27 -7 47 -16 44 -20 -4 -3
-10 -6 -13 -6 -4 -1 -24 -7 -44 -15 -38 -14 -52 -44 -25 -53 6 -2 2 -2 -10 0
-13 2 -23 -1 -23 -7 0 -5 5 -10 10 -10 6 0 10 -7 10 -15 0 -8 12 -17 28 -21
15 -3 32 -7 37 -9 6 -1 9 -23 7 -49 -4 -43 -6 -46 -33 -46 -26 0 -29 -4 -29
-30 0 -35 15 -38 60 -15 30 16 40 40 19 47 -6 2 -9 15 -7 28 l3 25 27 -26 c23
-23 32 -26 77 -21 47 4 51 3 51 -17 0 -24 15 -28 27 -7 4 8 19 16 33 19 16 3
10 5 -17 6 -36 1 -43 4 -43 21 0 18 7 20 54 20 30 0 58 -5 61 -11 14 -21 49
-27 73 -11 15 10 37 13 67 10 35 -4 51 -1 79 18 19 13 44 24 55 24 25 0 37 18
22 33 -8 8 -11 7 -11 -5 0 -11 -13 -18 -40 -23 -23 -4 -40 -12 -40 -20 0 -20
-32 -27 -48 -11 -12 12 -13 18 -3 30 7 8 21 18 32 21 10 4 19 15 19 26 0 16
-4 18 -17 11 -10 -5 -35 -12 -55 -16 -31 -6 -41 -3 -55 14 -10 11 -25 20 -35
20 -14 0 -18 8 -18 40 0 29 -4 40 -15 40 -11 0 -15 11 -15 40 0 39 -1 40 -35
40 -49 0 -46 26 3 34 21 3 47 15 57 26 18 19 18 20 -3 20 -19 0 -22 6 -22 40
0 31 4 40 18 40 15 1 15 2 -3 16 -17 13 -18 16 -5 24 19 12 40 13 40 1 0 -4
11 -6 25 -3 14 2 25 8 25 12 0 5 6 15 14 22 7 8 15 43 18 78 3 36 3 53 1 38
-4 -23 -9 -28 -32 -28 -21 0 -30 6 -34 21 -3 12 -10 18 -15 15 -14 -8 -33 18
-36 49 -4 31 -6 34 -32 38 -38 6 -44 16 -37 65 8 56 21 72 63 72 17 0 43 6 58
14 33 17 68 54 59 63 -4 3 -41 7 -82 7 -80 1 -95 13 -47 36 l27 14 -25 4 c-29
4 -72 41 -64 53 10 17 34 9 34 -11 0 -17 7 -20 40 -20 33 0 40 -3 40 -20 0
-26 8 -25 37 2 18 17 39 23 87 26 57 4 64 2 69 -17 7 -29 -9 -36 -25 -11 -7
11 -16 20 -20 20 -12 0 -9 -35 4 -48 8 -8 8 -15 -3 -28 -11 -13 -11 -18 -1
-21 6 -3 12 -11 12 -19 0 -8 5 -14 10 -14 6 0 10 -7 10 -15 0 -8 -4 -15 -10
-15 -5 0 -10 -4 -10 -10 0 -5 7 -10 15 -10 19 0 19 -13 0 -50 -9 -17 -12 -30
-7 -30 5 0 6 -15 4 -32 -3 -18 -7 -27 -10 -20 -2 7 -19 28 -37 48 -28 30 -37
34 -53 25 -11 -6 -19 -18 -18 -26 2 -17 61 -75 76 -75 4 0 6 -18 3 -40 -6 -44
-9 -42 70 -43 20 -1 37 -4 37 -9 0 -14 16 -9 51 15 26 17 44 22 72 19 22 -2
37 0 37 7 0 6 7 8 15 5 22 -9 18 -31 -7 -39 -67 -23 -65 -21 -34 -34 18 -7 26
-16 22 -26 -7 -20 37 -20 67 -1 32 21 97 22 132 3 17 -9 24 -16 18 -17 -15 0
-17 -19 -4 -39 8 -12 14 -13 35 -3 22 10 27 9 35 -7 12 -22 5 -31 -22 -31 -17
0 -19 -5 -15 -44 6 -51 -3 -72 -27 -63 -9 4 -13 11 -10 17 3 5 0 10 -7 10 -7
0 -19 14 -26 30 -15 33 -33 38 -53 14 -7 -8 -21 -13 -31 -11 -20 6 -28 -4 -43
-48 -7 -22 -16 -30 -34 -30 -37 -1 -38 -24 -2 -31 25 -5 29 -9 20 -20 -15 -18
-29 -18 -29 1 0 19 -19 19 -67 1 -21 -8 -60 -18 -88 -22 -56 -10 -69 -31 -33
-53 16 -10 23 -11 26 -2 3 9 7 9 18 0 7 -6 22 -8 31 -4 17 7 16 8 -2 15 -18 8
-17 9 8 9 15 1 27 -3 27 -9 0 -13 32 0 46 19 6 8 18 11 27 8 9 -3 31 -1 48 5
24 8 33 8 40 -3 4 -7 12 -10 16 -5 4 5 2 11 -4 13 -18 6 -16 23 2 23 8 0 15
-4 15 -10 0 -16 96 -12 110 5 7 8 23 15 36 15 13 0 28 9 34 20 14 26 61 50 97
50 16 0 36 9 46 20 18 22 47 27 47 9 0 -7 8 -18 18 -25 15 -11 13 -14 -22 -29
-21 -9 -46 -23 -54 -31 -12 -13 -16 -13 -23 -3 -4 8 -9 11 -11 9 -2 -3 -8 -14
-14 -25 -6 -11 -24 -21 -40 -23 -50 -5 -58 -10 -44 -27 17 -21 43 -19 58 5 13
21 52 28 52 8 0 -6 8 -4 19 6 15 14 24 15 40 6 15 -8 21 -8 21 0 0 6 4 8 10 5
16 -10 -12 -46 -32 -39 -10 3 -31 -4 -47 -15 -16 -12 -34 -21 -40 -21 -23 0
-10 -20 23 -35 19 -9 37 -23 40 -31 9 -23 22 -16 34 19 6 20 10 25 11 13 1
-19 2 -19 14 -2 9 13 20 16 40 11 15 -4 27 -12 27 -17 0 -6 9 -8 20 -5 21 5
28 -7 10 -18 -14 -9 -13 -55 2 -55 6 0 8 -3 5 -7 -5 -5 25 -69 47 -100 5 -7
76 22 76 30 0 6 16 25 35 42 25 24 41 31 59 28 24 -5 25 -6 11 -33 -8 -15 -21
-30 -30 -33 -8 -4 -15 -13 -15 -20 0 -8 -7 -20 -15 -27 -21 -18 -9 -30 30 -30
53 0 128 -23 150 -45 24 -25 92 -48 97 -33 2 6 30 11 62 12 63 1 61 3 90 -66
15 -34 15 -46 -4 -93 -4 -11 -12 -38 -17 -60 -6 -22 -14 -48 -18 -57 -15 -36
25 -18 71 31 46 48 68 80 80 114 5 13 18 17 53 17 45 1 81 17 81 37 0 6 9 13
20 16 11 3 24 17 30 31 5 14 14 26 20 26 5 0 10 16 10 35 0 28 4 35 20 35 11
0 20 -4 20 -10 0 -5 9 -10 20 -10 27 0 25 -13 -2 -25 -13 -6 -24 -20 -26 -32
-2 -13 -10 -23 -18 -23 -37 0 17 -80 57 -83 10 -1 21 -7 24 -15 3 -8 12 -11
21 -8 22 9 44 -11 44 -40 0 -19 5 -24 26 -24 16 0 23 4 18 12 -5 8 0 9 17 5
13 -4 27 -7 30 -7 4 0 9 -10 12 -21 4 -15 11 -20 22 -15 19 7 111 -37 118 -56
3 -10 12 -9 37 6 25 14 34 16 40 6 10 -16 44 -5 75 24 26 24 32 50 15 61 -5 3
-10 15 -10 26 0 10 -2 19 -5 19 -2 0 -30 7 -62 15 -32 9 -77 16 -101 16 -31 1
-45 6 -52 20 -6 10 -19 19 -29 19 -10 0 -21 9 -24 20 -4 16 0 20 19 20 29 0
31 15 4 30 -24 13 -26 30 -5 30 8 0 15 5 15 10 0 6 -10 10 -23 10 -13 0 -28 5
-34 11 -16 16 -32 2 -26 -22 6 -20 3 -21 -22 -15 -29 7 -54 31 -55 52 0 7 -9
14 -21 17 -16 4 -20 12 -17 34 2 16 9 28 17 28 8 0 23 17 34 38 10 20 23 37
28 37 5 0 9 6 9 14 0 7 7 19 15 26 10 9 15 9 15 1 0 -16 26 -14 44 4 8 8 19
15 25 15 5 0 11 10 13 21 5 33 32 46 62 30 22 -12 29 -12 53 5 15 10 41 20 57
21 16 2 38 12 47 22 10 11 37 22 59 26 34 6 41 11 37 25 -3 12 0 17 9 13 7 -2
11 -10 8 -18 -3 -7 2 -15 10 -18 23 -9 107 9 117 24 8 12 10 12 18 1 7 -12 14
-11 40 2 17 9 33 16 36 17 2 0 18 13 35 30 16 17 34 28 40 24 5 -3 10 -1 10 4
0 6 18 11 40 11 22 0 40 5 40 10 0 6 9 10 19 10 11 0 23 -4 26 -10 3 -5 15
-10 27 -10 11 0 31 -9 45 -20 14 -11 30 -17 35 -14 5 4 27 -11 48 -32 22 -22
47 -46 57 -55 10 -10 30 -32 45 -51 27 -35 94 -65 100 -46 4 12 78 0 78 -13 0
-5 7 -9 15 -9 22 0 19 12 -12 46 -16 16 -28 39 -28 49 0 30 -43 33 -54 3 -6
-16 -7 -3 -4 38 5 54 3 62 -13 66 -14 4 -23 21 -32 64 -20 88 -21 91 -42 97
-13 3 -18 11 -14 21 4 11 0 16 -14 16 -12 0 -24 -5 -27 -10 -9 -14 -25 -2 -19
14 3 8 -4 16 -15 19 -17 4 -21 13 -21 51 0 55 -23 116 -43 116 -8 0 -22 11
-31 25 -17 27 -22 105 -6 105 14 0 12 22 -5 61 -23 50 -35 67 -87 120 -27 26
-48 51 -48 56 0 6 9 18 20 28 14 12 20 31 20 59 0 46 12 72 29 62 6 -4 14 0
17 8 3 9 9 14 14 11 4 -2 13 14 20 35 9 27 19 40 31 40 12 0 16 5 13 14 -3 9
4 19 17 26 17 10 19 14 8 21 -13 8 -9 11 38 24 7 2 15 20 19 40 7 37 -7 65
-32 65 -7 0 -16 5 -19 10 -4 7 2 9 19 4 22 -5 26 -3 26 15 0 12 5 21 10 21 6
0 10 5 10 10 0 6 -7 10 -15 10 -10 0 -15 10 -15 30 0 30 23 43 33 18 4 -10 6
-10 6 0 1 7 14 12 31 12 17 0 30 5 30 13 0 6 5 4 11 -6 5 -9 7 -22 4 -27 -3
-6 -2 -10 4 -10 5 0 14 8 20 17 16 29 24 7 9 -24 -19 -38 -6 -136 24 -180 20
-28 155 -133 173 -133 9 0 76 -51 102 -77 21 -22 21 -26 8 -62 -7 -21 -21 -53
-30 -71 -25 -48 -42 -158 -33 -210 4 -25 22 -65 40 -90 l33 -45 1 -141 c0
-125 3 -143 20 -162 22 -24 65 -37 97 -28 49 12 84 156 79 321 -3 77 -8 99
-34 153 -29 59 -30 65 -19 105 7 23 24 62 38 86 38 65 44 166 13 216 -22 36
-112 115 -131 115 -11 0 -75 46 -124 89 -31 27 -34 33 -23 51 7 11 18 21 25
21 23 2 27 4 76 29 45 23 101 90 96 116 -1 5 -1 17 0 28 1 15 4 16 15 7 12
-10 20 -9 40 4 29 19 90 37 124 36 26 -1 30 16 5 22 -10 2 1 8 25 12 25 4 42
13 42 21 0 8 6 11 16 7 10 -4 25 4 41 21 l25 27 -19 47 c-17 40 -24 47 -46 47
-19 -1 -27 4 -27 17 0 20 44 26 55 8 12 -19 36 -11 35 13 -4 39 0 47 20 47 11
0 20 4 20 9 0 18 -21 66 -32 72 -6 4 -9 13 -6 20 3 8 5 17 4 20 0 4 7 16 17
27 20 22 16 42 -9 42 -8 0 -14 4 -14 8 0 4 -20 21 -45 36 -48 31 -74 56 -58
56 6 0 8 12 5 26 -3 15 -10 23 -18 20 -7 -3 -18 2 -25 11 -25 30 -120 83 -149
83 -16 0 -32 5 -35 10 -3 6 -15 10 -25 10 -10 0 -20 5 -22 12 -3 7 -19 11 -40
10 -22 -2 -42 4 -51 12 -13 14 -16 14 -21 1 -3 -10 -19 -15 -44 -15 -22 0 -56
-7 -75 -15 -20 -8 -48 -15 -62 -15 -14 0 -25 -4 -25 -10 0 -5 -8 -10 -18 -10
-10 0 -25 -9 -35 -20 -23 -27 -61 -27 -54 0 3 11 1 17 -4 14 -11 -7 -28 36
-21 55 3 9 -1 12 -14 9 -11 -2 -18 -11 -16 -21 2 -9 -1 -33 -7 -52 -7 -26 -6
-35 2 -35 7 0 4 -7 -5 -14 -10 -7 -18 -25 -18 -40 0 -19 -7 -29 -25 -36 -14
-5 -25 -13 -25 -18 0 -5 -11 -7 -25 -4 -18 3 -25 0 -25 -11 0 -9 -7 -20 -15
-24 -13 -8 -13 -12 0 -37 17 -32 12 -48 -13 -44 -13 2 -17 -5 -18 -27 -1 -16
-5 -39 -10 -50 -11 -26 -11 -123 -1 -157 8 -24 7 -26 -12 -21 -12 3 -21 10
-21 16 0 6 -9 21 -21 33 -14 15 -22 38 -24 69 -2 38 -1 43 9 29 14 -18 47 -16
54 4 2 7 -6 12 -21 12 -22 0 -26 5 -32 48 -7 50 4 93 30 118 23 24 18 44 -16
58 -31 13 -31 13 -8 20 l24 6 -22 19 c-13 11 -23 26 -23 35 0 12 -10 16 -40
16 -34 0 -40 3 -40 21 0 15 -4 19 -16 15 -9 -3 -27 -6 -40 -6 -17 0 -24 -6
-24 -20 0 -12 -7 -20 -17 -20 -16 0 -16 2 -3 10 13 9 12 12 -5 26 -11 8 -31
13 -44 11 -26 -5 -71 31 -53 42 8 5 7 19 -3 46 -8 22 -14 48 -15 58 0 9 -4 17
-10 17 -5 0 -17 14 -25 31 -14 26 -20 29 -44 24 -33 -7 -47 14 -31 46 8 14 7
19 -1 19 -8 0 -8 4 1 15 7 8 19 15 26 15 18 0 18 20 1 45 -7 11 -19 39 -26 62
-13 38 -12 44 8 77 12 20 19 40 16 46 -4 6 -12 58 -18 117 -10 87 -15 108 -32
118 -11 7 -25 11 -31 8z m26 -285 c0 -19 -2 -20 -10 -8 -13 19 -13 30 0 30 6
0 10 -10 10 -22z m-970 -252 c0 -16 -18 -31 -27 -22 -8 8 5 36 17 36 5 0 10
-6 10 -14z m826 -93 c-10 -10 -19 5 -10 18 6 11 8 11 12 0 2 -7 1 -15 -2 -18z
m-1473 -230 c-13 -2 -23 -9 -23 -14 0 -5 -18 -9 -40 -9 -29 0 -40 4 -40 15 0
12 13 15 63 14 34 -1 52 -4 40 -6z m-119 -39 c29 -11 16 -24 -24 -24 -54 0
-53 19 2 29 3 0 13 -2 22 -5z m2355 -90 c-6 -8 -18 -14 -25 -14 -20 0 -17 28
4 33 25 5 35 -3 21 -19z m308 -130 c-9 -9 -28 6 -21 18 4 6 10 6 17 -1 6 -6 8
-13 4 -17z m-2107 -145 c0 -5 -7 -9 -15 -9 -15 0 -20 12 -9 23 8 8 24 -1 24
-14z m2338 -235 c38 -42 22 -112 -30 -132 -54 -20 -138 -75 -144 -95 -8 -24
21 -54 100 -106 33 -22 66 -45 73 -51 7 -5 16 -10 21 -10 4 0 32 -21 61 -48
49 -43 54 -51 59 -100 4 -49 -13 -142 -27 -142 -9 0 -28 -46 -43 -102 -12 -46
-11 -50 25 -120 34 -66 37 -80 37 -148 -1 -106 -23 -225 -45 -250 -23 -25 -57
-26 -79 -1 -15 17 -18 39 -17 148 l1 128 -35 55 c-19 30 -38 69 -41 88 -10 51
12 160 46 230 16 34 30 71 30 82 0 17 -40 70 -53 70 -11 0 -172 113 -205 144
-45 42 -62 77 -62 128 1 67 34 113 127 176 34 23 65 47 69 53 11 18 67 39 89
33 11 -3 30 -17 43 -30z m-3278 -29 c0 -8 -7 -15 -15 -15 -16 0 -20 12 -8 23
11 12 23 8 23 -8z m2960 5 c0 -5 -2 -10 -4 -10 -3 0 -8 5 -11 10 -3 6 -1 10 4
10 6 0 11 -4 11 -10z m-2907 -17 c-31 -4 -33 -7 -33 -44 0 -24 -4 -38 -10 -34
-11 7 -14 68 -3 78 3 4 22 6 42 5 l36 -1 -32 -4z m2877 -42 c0 -15 -19 -23
-38 -16 -14 5 -14 7 -2 15 19 12 40 13 40 1z m-2953 -60 c10 -15 9 -22 -2 -31
-19 -16 -55 -3 -55 20 0 32 39 39 57 11z m1081 -61 c41 -38 24 -98 -38 -142
-51 -35 -77 -75 -64 -96 6 -8 47 -35 93 -58 100 -52 105 -56 129 -102 29 -55
16 -135 -42 -261 -30 -65 -48 -121 -52 -158 l-6 -58 41 -23 c22 -13 54 -37 71
-53 63 -63 28 -170 -98 -307 -47 -51 -82 -54 -114 -11 -18 24 -18 29 -5 60 8
19 24 43 36 53 11 11 21 24 21 31 0 7 9 22 20 35 29 34 27 38 -36 88 -92 71
-97 163 -21 354 26 65 47 133 47 152 0 41 -22 61 -114 105 -99 47 -126 79
-126 152 0 55 44 129 142 237 26 29 86 30 116 2z m-1598 -114 c0 -26 -9 -43
-40 -74 l-40 -40 0 34 c0 31 3 34 30 34 28 0 30 2 30 40 0 22 5 40 10 40 6 0
10 -15 10 -34z m540 -36 c0 -5 -7 -10 -16 -10 -8 0 -12 5 -9 10 3 6 10 10 16
10 5 0 9 -4 9 -10z m480 -11 c0 -11 -4 -18 -10 -14 -5 3 -7 12 -3 20 7 21 13
19 13 -6z m-177 4 c-13 -2 -33 -2 -45 0 -13 2 -3 4 22 4 25 0 35 -2 23 -4z
m350 0 c-21 -8 -16 -53 6 -53 10 0 22 -7 25 -16 4 -10 14 -14 26 -11 15 4 20
0 20 -13 0 -10 3 -25 6 -34 3 -9 1 -16 -5 -16 -6 0 -11 8 -11 17 0 16 -1 16
-16 1 -20 -20 -10 -38 22 -38 20 0 24 -5 24 -30 0 -16 5 -30 10 -30 7 0 9 14
5 38 l-6 37 18 -25 c30 -42 85 -91 97 -87 16 7 112 -48 109 -61 -2 -6 4 -9 12
-6 20 8 20 -30 -1 -50 -8 -9 -13 -19 -10 -24 2 -4 -7 -30 -20 -57 -13 -28 -27
-67 -30 -87 -7 -39 -17 -48 -28 -25 -4 6 -4 -3 -1 -22 7 -45 -6 -172 -16 -165
-10 6 -11 -2 -3 -33 4 -13 14 -23 24 -23 10 0 27 -10 37 -23 10 -13 30 -31 46
-41 26 -18 38 -56 17 -56 -5 0 -10 -4 -10 -9 0 -6 -12 -23 -26 -38 -59 -63
-69 -152 -18 -175 30 -14 31 -44 2 -70 -32 -28 -43 -18 -46 45 -3 53 -15 74
-25 45 -2 -7 -2 -3 0 9 3 21 -1 20 -72 -17 -99 -50 -105 -52 -98 -34 3 7 9 14
14 14 4 0 21 12 36 26 15 14 34 29 41 33 12 7 12 11 1 30 -14 21 -28 22 -73 5
-11 -4 -16 -1 -16 10 0 9 -4 16 -10 16 -5 0 -10 -7 -10 -15 0 -8 -9 -15 -20
-15 -15 0 -20 7 -20 29 0 21 -6 32 -20 36 -27 9 -76 -3 -91 -21 -6 -8 -20 -14
-31 -14 -35 0 -16 34 27 48 22 7 49 21 60 31 11 10 30 22 42 25 11 4 24 18 27
31 4 16 13 25 26 25 29 0 26 44 -4 63 -18 12 -26 13 -36 4 -10 -9 -14 -9 -17
1 -3 8 -9 10 -16 3 -19 -15 -80 -18 -84 -3 -3 6 0 12 6 12 6 0 11 5 11 10 0 6
-6 10 -14 10 -26 0 -34 23 -22 64 10 37 14 40 79 59 37 11 67 24 67 28 0 12
-133 12 -145 0 -6 -5 -35 -11 -65 -14 -30 -4 -48 -3 -40 0 8 3 21 15 28 25 9
12 20 17 33 13 14 -5 21 0 29 19 5 14 18 31 30 38 30 19 27 66 -6 78 -37 14
-57 13 -51 -4 10 -25 -19 -7 -31 20 -10 20 -19 24 -51 24 -30 0 -43 -5 -51
-20 -6 -11 -8 -25 -5 -30 3 -6 -1 -10 -9 -10 -9 0 -16 -6 -16 -13 0 -7 -17
-17 -38 -23 -34 -9 -40 -8 -56 13 -15 21 -15 24 -2 29 24 9 18 27 -17 49 -34
22 -61 65 -48 78 10 10 308 -11 332 -23 15 -8 23 -3 46 25 15 19 33 35 39 35
22 0 64 26 64 40 0 8 -12 21 -27 28 -33 15 -53 16 -53 1 0 -6 -9 -9 -20 -7
-12 2 -20 7 -20 13 2 13 -34 24 -41 13 -7 -11 -184 -16 -195 -6 -7 8 13 38 27
38 4 0 10 -10 12 -22 3 -13 4 -3 3 22 -1 45 -1 45 -44 54 -44 9 -52 29 -14 34
24 4 29 18 10 25 -7 2 -38 3 -68 1 -46 -2 -49 -2 -15 4 l40 7 -33 14 c-35 15
-32 21 16 35 18 6 22 4 22 -14 0 -21 3 -22 97 -18 71 2 97 0 100 -9 3 -7 13
-13 24 -13 10 0 19 -5 19 -11 0 -6 6 -9 12 -7 8 3 11 20 9 48 -4 54 6 60 94
58 39 0 64 -3 58 -5z m-733 -13 c0 -5 -4 -10 -10 -10 -5 0 -10 5 -10 10 0 6 5
10 10 10 6 0 10 -4 10 -10z m827 -22 c-3 -8 -6 -5 -6 6 -1 11 2 17 5 13 3 -3
4 -12 1 -19z m-667 -34 c0 -8 -7 -14 -15 -14 -8 0 -15 -7 -15 -15 0 -8 -4 -15
-9 -15 -5 0 -14 7 -21 15 -7 8 -21 15 -31 15 -21 0 -24 11 -9 26 15 15 100 5
100 -12z m980 -12 c-23 -4 -24 -5 -5 -13 20 -9 20 -9 0 -6 -11 1 -21 9 -23 18
-2 13 3 15 25 11 l28 -6 -25 -4z m-1650 -12 c0 -5 -4 -10 -10 -10 -5 0 -10 5
-10 10 0 6 5 10 10 10 6 0 10 -4 10 -10z m1776 -11 c7 -13 44 -11 44 2 0 6 9
8 23 3 30 -9 33 -12 19 -26 -8 -8 -7 -15 7 -27 15 -13 17 -24 11 -56 -6 -29
-8 -33 -10 -15 -1 14 -4 19 -7 12 -10 -25 7 -81 27 -87 30 -9 60 4 60 26 0 23
32 26 50 4 16 -19 -3 -45 -34 -46 -11 0 -16 -3 -9 -5 7 -3 10 -18 6 -38 -7
-44 14 -64 61 -58 21 2 35 7 31 10 -7 7 25 42 40 42 14 0 38 48 30 61 -4 5
-17 9 -31 9 -13 0 -24 5 -24 10 0 14 94 12 108 -2 9 -9 12 -8 12 5 0 9 5 17
10 17 6 0 10 5 10 10 0 6 -8 10 -19 10 -22 0 -45 25 -36 40 21 34 81 -21 90
-84 4 -25 11 -43 16 -40 5 3 9 0 9 -5 0 -6 10 -11 23 -10 21 0 42 12 100 52
24 18 27 18 52 1 23 -15 28 -15 36 -3 5 8 9 20 9 27 0 7 6 19 13 26 11 11 16
11 31 1 16 -12 16 -14 -3 -20 -12 -3 -21 -10 -21 -16 0 -19 35 -49 57 -49 18
0 23 -6 23 -25 0 -27 -9 -32 -27 -14 -8 8 -14 6 -21 -8 -13 -23 -13 -81 0 -89
13 -8 49 6 47 19 -3 28 2 37 22 37 21 0 22 -3 15 -77 -4 -48 -12 -83 -21 -92
-10 -11 -15 -11 -15 -3 0 7 -5 12 -11 12 -6 0 -9 -6 -6 -14 3 -7 -7 -25 -21
-38 -21 -20 -38 -25 -79 -25 -56 -1 -103 -23 -103 -48 0 -8 -4 -15 -10 -15 -5
0 -10 -4 -10 -10 0 -5 13 -10 28 -10 20 0 33 -7 42 -24 11 -22 10 -33 -10 -85
-12 -34 -30 -63 -39 -66 -10 -3 -24 -17 -31 -30 -7 -14 -22 -25 -33 -25 -16 0
-18 -5 -13 -32 5 -32 -14 -75 -28 -61 -3 3 -14 -12 -24 -35 -9 -23 -23 -42
-31 -42 -7 0 -11 -6 -7 -15 3 -9 -4 -21 -18 -31 -30 -19 -41 -45 -24 -56 8 -6
1 -7 -19 -3 -20 4 -33 3 -33 -3 0 -6 4 -12 10 -14 5 -1 -13 -4 -40 -5 -36 -1
-50 3 -50 12 0 8 5 17 11 21 8 4 7 9 -2 15 -17 10 -29 2 -29 -21 0 -23 -15
-27 -65 -19 -35 5 -37 7 -17 14 14 5 22 15 21 29 0 11 -3 15 -6 9 -5 -15 -33
-18 -33 -4 0 31 13 41 46 35 33 -6 34 -5 34 25 0 24 -6 34 -26 43 -25 11 -29
10 -58 -25 -17 -20 -37 -37 -43 -37 -7 0 -19 -13 -27 -29 -15 -28 -46 -49 -46
-31 0 6 -5 10 -12 10 -9 0 -9 -3 0 -12 22 -22 14 -46 -19 -53 -38 -9 -41 -5
-43 43 0 25 -5 38 -12 35 -6 -2 -17 3 -24 11 -10 13 -9 17 4 22 9 3 16 12 16
20 0 7 6 17 13 21 7 4 23 22 35 39 31 45 74 89 95 97 9 3 17 11 17 17 0 6 5 8
10 5 6 -3 10 -1 10 4 0 6 6 11 13 11 7 0 20 16 27 35 14 36 60 61 68 37 10
-30 82 14 82 51 0 12 11 23 30 30 17 6 30 17 30 24 0 17 -11 16 -39 -3 -12 -9
-41 -16 -62 -16 -25 1 -42 -4 -45 -13 -3 -8 -12 -11 -20 -8 -8 3 -14 -1 -14
-8 0 -8 -18 -24 -40 -35 -43 -24 -46 -23 -73 37 -9 20 -32 47 -52 60 -34 23
-47 60 -25 74 18 11 -2 37 -26 32 -32 -6 -31 18 1 85 14 28 25 57 25 64 0 17
40 44 65 44 34 0 58 23 51 48 -4 12 -11 20 -16 17 -22 -13 -32 28 -28 111 4
74 3 81 -8 57 -7 -15 -13 -21 -13 -13 -1 9 -9 23 -18 31 -34 30 -64 70 -58 79
3 4 -7 12 -22 18 -26 8 -25 9 15 9 23 0 45 -4 48 -8z m-66 -19 c0 -5 -2 -10
-4 -10 -3 0 -8 5 -11 10 -3 6 -1 10 4 10 6 0 11 -4 11 -10z m222 -62 c-7 -7
-12 -8 -12 -2 0 6 3 14 7 17 3 4 9 5 12 2 2 -3 -1 -11 -7 -17z m-2022 -48 c0
-5 -5 -10 -11 -10 -5 0 -7 5 -4 10 3 6 8 10 11 10 2 0 4 -4 4 -10z m50 -6 c0
-8 -5 -12 -10 -9 -6 4 -8 11 -5 16 9 14 15 11 15 -7z m2630 -4 c0 -5 -8 -10
-17 -10 -15 0 -16 2 -3 10 19 12 20 12 20 0z m-1945 -82 c-4 -24 -9 -45 -12
-48 -8 -8 -27 34 -29 63 -1 23 2 27 23 27 24 0 24 -2 18 -42z m-55 20 c0 -7
-4 -19 -9 -26 -7 -11 -10 -10 -15 3 -3 9 -4 21 0 26 8 13 24 11 24 -3z m2210
-28 c0 -5 -2 -10 -4 -10 -3 0 -8 5 -11 10 -3 6 -1 10 4 10 6 0 11 -4 11 -10z
m-79 -30 c22 0 29 -5 29 -20 0 -17 -7 -20 -40 -20 -41 0 -48 9 -33 46 4 11 8
13 11 6 2 -7 17 -12 33 -12z m-2771 -30 c0 -5 -5 -10 -11 -10 -5 0 -7 5 -4 10
3 6 8 10 11 10 2 0 4 -4 4 -10z m798 -82 c-5 -13 -38 -20 -38 -8 0 5 8 11 18
13 9 3 19 5 20 6 2 0 2 -4 0 -11z m-309 -126 c-1 -28 -3 -31 -6 -12 -3 14 -9
30 -14 36 -10 12 -1 26 12 18 5 -3 8 -22 8 -42z m-19 -56 c0 -8 -4 -18 -10
-21 -5 -3 -10 3 -10 14 0 12 5 21 10 21 6 0 10 -6 10 -14z m-347 -303 c-24 -2
-62 -2 -85 0 -24 2 -5 4 42 4 47 0 66 -2 43 -4z m-223 -13 c0 -5 -9 -10 -20
-10 -11 0 -20 5 -20 10 0 6 9 10 20 10 11 0 20 -4 20 -10z m1060 0 c0 -5 -4
-10 -9 -10 -6 0 -13 5 -16 10 -3 6 1 10 9 10 9 0 16 -4 16 -10z m-783 -52 c-2
-13 -4 -5 -4 17 -1 22 1 32 4 23 2 -10 2 -28 0 -40z m-97 -18 c0 -11 7 -23 15
-26 8 -4 15 -10 15 -15 0 -5 -7 -9 -15 -9 -8 0 -15 5 -15 11 0 17 -32 38 -57
39 -13 0 -23 5 -23 10 0 6 18 10 40 10 34 0 40 -3 40 -20z m737 -20 c12 0 13
-3 3 -15 -11 -13 -14 -13 -27 1 -9 9 -12 21 -7 32 7 16 7 16 11 0 3 -10 11
-18 20 -18z m453 -11 c0 -5 -4 -9 -10 -9 -5 0 -10 7 -10 16 0 8 5 12 10 9 6
-3 10 -10 10 -16z m-1182 -63 c-13 -14 -28 -12 -28 5 0 5 9 9 20 9 17 0 19 -2
8 -14z m1570 -96 c-12 -11 -32 -19 -43 -19 -20 0 -20 0 -1 14 11 8 25 15 32
15 6 0 15 8 19 18 5 12 9 13 12 4 3 -7 -6 -21 -19 -32z m75 34 c11 -4 13 -13
8 -32 -10 -37 -31 -40 -31 -4 0 17 -6 33 -12 35 -8 4 -7 6 4 6 9 1 23 -2 31
-5z m-1638 -24 c3 -5 1 -10 -4 -10 -6 0 -11 5 -11 10 0 6 2 10 4 10 3 0 8 -4
11 -10z m65 -10 c0 -5 -4 -10 -10 -10 -5 0 -10 5 -10 10 0 6 5 10 10 10 6 0
10 -4 10 -10z m1590 -70 c8 -5 11 -12 7 -16 -4 -4 -15 0 -24 9 -18 18 -8 23
17 7z m-250 -30 c0 -13 -28 -25 -38 -16 -3 4 0 11 8 16 20 13 30 12 30 0z
m440 -335 c0 -8 -4 -15 -10 -15 -5 0 -10 7 -10 15 0 8 5 15 10 15 6 0 10 -7
10 -15z"/>
<path d="M2481 3774 c0 -11 3 -14 6 -6 3 7 2 16 -1 19 -3 4 -6 -2 -5 -13z"/>
<path d="M2374 3735 c-19 -14 -18 -14 4 -15 13 0 22 6 22 15 0 19 -1 19 -26 0z"/>
<path d="M2540 3730 c0 -5 7 -10 16 -10 8 0 12 5 9 10 -3 6 -10 10 -16 10 -5
0 -9 -4 -9 -10z"/>
<path d="M2375 3490 c-3 -5 1 -10 9 -10 9 0 16 5 16 10 0 6 -4 10 -9 10 -6 0
-13 -4 -16 -10z"/>
<path d="M2540 3440 c0 -5 5 -10 10 -10 6 0 10 5 10 10 0 6 -4 10 -10 10 -5 0
-10 -4 -10 -10z"/>
<path d="M2410 3400 c-12 -8 -10 -10 8 -10 13 0 20 4 17 10 -7 12 -6 12 -25 0z"/>
<path d="M2577 3353 c-18 -5 -37 -40 -37 -69 0 -21 17 -17 23 5 2 10 21 27 41
36 20 10 39 21 42 26 5 9 -37 10 -69 2z"/>
<path d="M2603 3158 c-13 -6 -23 -15 -23 -21 0 -5 10 -7 23 -3 12 3 25 6 30 6
4 0 7 7 7 15 0 17 -6 18 -37 3z"/>
<path d="M2650 2881 c0 -6 5 -13 10 -16 6 -3 10 1 10 9 0 9 -4 16 -10 16 -5 0
-10 -4 -10 -9z"/>
<path d="M3015 3636 c-5 -20 -4 -31 6 -37 19 -12 21 -6 11 32 l-9 34 -8 -29z"/>
<path d="M3503 3543 c-7 -2 -13 -11 -13 -19 0 -13 -23 -19 -63 -15 -10 2 -21
-8 -27 -23 -5 -14 -16 -26 -25 -26 -8 0 -15 -6 -15 -14 0 -11 -8 -13 -33 -9
-44 7 -86 -26 -80 -62 5 -26 17 -32 28 -15 3 6 14 10 24 10 9 0 27 11 39 25
26 30 62 32 82 5 20 -28 33 -25 63 16 14 20 36 41 49 48 52 26 25 101 -29 79z"/>
<path d="M3635 3510 c-3 -5 1 -10 9 -10 9 0 16 5 16 10 0 6 -4 10 -9 10 -6 0
-13 -4 -16 -10z"/>
<path d="M3095 3390 c-3 -5 -16 -10 -29 -10 -49 0 -63 -51 -18 -69 22 -9 35
-9 64 3 48 21 51 27 24 59 -25 29 -32 32 -41 17z"/>
<path d="M3370 3225 c-15 -18 -10 -45 12 -59 22 -13 58 17 58 51 0 19 -5 23
-29 23 -16 0 -34 -7 -41 -15z"/>
<path d="M3251 2951 c-20 -20 -30 -89 -15 -104 4 -3 27 14 52 39 37 37 44 49
35 63 -15 24 -49 25 -72 2z"/>
<path d="M6958 5794 c-3 -3 -28 -11 -54 -19 -407 -115 -1049 -306 -1109 -329
-22 -8 -48 -15 -58 -16 -10 0 -37 -9 -60 -19 -23 -11 -58 -22 -77 -26 -43 -8
-90 -41 -74 -52 7 -5 13 -17 15 -28 5 -26 39 -30 81 -11 18 8 83 27 143 41 61
14 117 29 125 34 8 4 40 14 70 21 30 7 64 16 75 20 11 4 38 12 60 18 22 6 63
17 90 25 28 8 65 18 82 22 18 3 35 11 38 16 4 5 19 9 36 9 25 0 111 24 174 49
44 18 162 50 200 55 22 3 58 12 80 20 22 8 49 15 61 16 11 0 39 9 62 20 22 11
50 20 62 20 18 0 20 6 20 60 0 52 -3 60 -18 60 -10 0 -21 -3 -24 -6z m-1368
-454 c12 -8 11 -10 -7 -10 -13 0 -23 5 -23 10 0 13 11 13 30 0z"/>
<path d="M1040 5558 c0 -7 -13 -8 -37 -5 -46 8 -226 -11 -234 -24 -7 -13 -67
-29 -105 -29 -24 0 -34 -6 -44 -27 -8 -16 -14 -31 -14 -35 -1 -3 -11 -15 -23
-26 -25 -21 -30 -63 -10 -84 6 -7 21 -31 32 -53 21 -42 93 -120 138 -150 15
-9 27 -24 27 -31 0 -8 7 -14 15 -14 8 0 15 -4 15 -10 0 -5 8 -10 19 -10 10 0
31 -6 45 -14 25 -13 26 -15 11 -30 -9 -9 -24 -16 -32 -16 -14 0 -14 -2 1 -19
13 -14 14 -24 6 -45 -16 -43 -12 -56 19 -62 17 -4 32 -12 35 -20 3 -8 15 -14
27 -14 17 0 19 -3 10 -14 -9 -10 -8 -16 4 -26 13 -10 15 -9 15 10 0 16 4 20
16 16 9 -3 18 -6 20 -6 2 0 4 -7 4 -15 0 -16 36 -21 42 -6 2 5 15 12 29 16 21
5 27 2 32 -14 3 -12 15 -25 27 -29 20 -7 21 -10 7 -24 -11 -11 -13 -18 -5 -26
16 -16 1 -30 -27 -24 -15 2 -25 0 -25 -7 0 -6 5 -11 10 -11 16 0 7 -74 -10
-83 -8 -4 2 -5 23 -2 35 6 50 -6 27 -20 -17 -11 -11 -24 15 -31 13 -3 24 -9
23 -13 -1 -12 2 -26 11 -40 12 -18 55 4 47 25 -4 10 5 21 24 32 16 9 30 20 30
25 0 4 5 7 11 7 16 0 36 24 31 38 -2 7 11 29 30 48 19 18 41 46 48 60 8 14 29
41 47 61 18 19 33 39 33 44 0 5 9 9 20 9 11 0 20 7 20 15 0 8 -4 15 -10 15 -5
0 -10 5 -10 11 0 16 26 39 44 39 17 0 56 34 56 49 0 5 6 12 13 14 8 4 9 8 1
14 -6 4 -14 32 -17 62 -4 30 -11 59 -17 65 -16 16 -12 23 16 30 16 4 24 12 21
21 -3 7 1 19 8 25 12 10 16 9 21 -3 10 -28 34 -29 34 -2 0 14 -6 25 -13 25 -8
0 -19 16 -25 36 -9 30 -8 33 4 23 8 -6 14 -17 14 -23 0 -7 20 -13 50 -14 39
-2 50 1 50 13 0 8 6 25 13 36 10 17 9 23 -1 26 -28 10 54 38 101 35 41 -4 47
-7 47 -26 0 -26 34 -61 49 -51 18 10 13 21 -28 63 -22 22 -37 43 -33 47 4 3 7
31 8 62 2 49 6 60 28 76 32 23 33 37 2 37 -15 0 -26 -7 -29 -19 -4 -17 -14
-19 -81 -18 -42 1 -76 6 -76 10 0 5 -7 4 -15 -3 -9 -8 -35 -10 -77 -6 -174 15
-308 18 -308 6 0 -8 -4 -7 -14 3 -9 8 -29 12 -52 10 -22 -2 -57 1 -79 6 -66
16 -175 22 -175 9z"/>
<path d="M6845 5503 c-141 -40 -219 -62 -260 -73 -16 -4 -88 -24 -160 -45 -71
-20 -161 -45 -200 -55 -363 -98 -555 -159 -562 -178 -9 -21 47 -62 75 -55 13
3 35 0 48 -8 18 -9 27 -10 32 -2 4 5 30 13 57 17 28 4 82 17 120 28 39 11 86
23 105 28 90 20 136 32 152 41 10 5 26 9 37 9 10 0 36 7 57 16 21 9 66 20 100
25 33 5 73 15 89 23 15 8 50 17 76 21 27 4 51 11 55 16 3 5 21 9 40 9 19 0 48
7 64 15 17 9 30 13 30 10 0 -4 10 1 22 9 12 9 33 16 46 16 13 0 48 7 78 16
l54 15 0 70 c0 82 11 80 -155 32z"/>
<path d="M6920 5260 c-36 -10 -136 -37 -224 -59 -258 -68 -377 -99 -451 -120
-38 -10 -131 -35 -205 -55 -181 -49 -200 -57 -200 -78 0 -10 -1 -21 -2 -25 -4
-10 101 -25 168 -24 29 0 85 10 125 22 41 11 117 32 169 45 52 14 131 35 175
48 44 14 98 27 119 30 22 3 43 11 47 18 8 12 94 33 187 45 23 3 42 9 42 14 0
5 15 9 34 9 18 0 47 5 65 11 30 11 31 12 31 75 0 35 -3 63 -7 63 -5 -1 -37
-10 -73 -19z"/>
<path d="M3520 5256 c0 -9 -6 -16 -14 -16 -7 0 -16 -14 -20 -31 -9 -46 -8 -49
14 -49 17 0 20 7 20 40 0 30 4 40 16 40 17 0 14 22 -4 28 -7 2 -12 -3 -12 -12z"/>
<path d="M1840 5230 c0 -23 5 -31 25 -36 26 -6 59 11 50 26 -5 8 -63 40 -72
40 -1 0 -3 -13 -3 -30z"/>
<path d="M1865 5170 c-4 -6 7 -10 27 -10 25 0 29 3 18 10 -19 13 -37 13 -45 0z"/>
<path d="M2785 5090 c-3 -5 -1 -10 4 -10 6 0 11 5 11 10 0 6 -2 10 -4 10 -3 0
-8 -4 -11 -10z"/>
<path d="M1840 5070 c0 -5 4 -10 9 -10 6 0 13 5 16 10 3 6 -1 10 -9 10 -9 0
-16 -4 -16 -10z"/>
<path d="M6830 4976 c-69 -18 -165 -43 -215 -55 -282 -71 -554 -141 -578 -150
-27 -10 -28 -27 -5 -57 14 -19 66 -25 116 -13 26 6 65 13 87 15 22 3 79 14
127 25 48 10 103 19 122 19 19 0 37 4 40 8 5 9 115 37 129 34 5 -1 29 5 55 14
61 21 168 46 211 48 19 2 37 8 39 14 2 7 12 12 23 12 17 0 19 8 19 60 0 73 6
72 -170 26z"/>
<path d="M6900 4730 c-36 -9 -128 -32 -205 -50 -379 -91 -560 -137 -560 -146
0 -5 12 -25 27 -44 l27 -34 93 12 c51 6 100 13 108 15 8 2 33 7 55 11 22 4 76
16 120 26 77 19 227 53 365 82 l65 14 3 67 c3 77 7 76 -98 47z"/>
<path d="M5440 4510 c0 -5 4 -10 9 -10 6 0 13 5 16 10 3 6 -1 10 -9 10 -9 0
-16 -4 -16 -10z"/>
<path d="M6900 4460 c-47 -11 -125 -28 -175 -38 -453 -99 -485 -110 -485 -166
0 -28 38 -60 54 -47 6 5 47 12 91 14 44 3 98 10 120 16 22 6 74 17 115 26 137
27 175 36 215 46 22 5 68 15 103 21 l62 12 0 68 c0 37 -3 68 -7 67 -5 -1 -46
-9 -93 -19z"/>
<path d="M1095 4210 c-3 -5 3 -10 14 -10 12 0 21 5 21 10 0 6 -6 10 -14 10 -8
0 -18 -4 -21 -10z"/>
<path d="M6945 4200 c-122 -22 -632 -134 -641 -141 -5 -5 -8 -23 -6 -42 4 -31
7 -34 59 -45 43 -9 78 -8 166 3 61 9 120 18 130 21 18 6 164 35 285 57 l62 11
0 73 c0 40 -3 72 -7 72 -5 -1 -26 -5 -48 -9z"/>
<path d="M6815 3903 c-93 -19 -197 -39 -230 -45 -33 -6 -94 -19 -135 -28 -81
-19 -78 -15 -64 -89 l7 -33 96 5 c108 6 219 22 301 43 30 8 73 14 95 14 23 0
50 7 61 15 10 8 27 15 37 15 14 0 17 10 17 70 0 39 -3 69 -7 69 -5 -1 -84 -17
-178 -36z"/>
<path d="M6959 3665 c-3 -2 -97 -20 -210 -39 -269 -47 -267 -46 -280 -62 -9
-11 -8 -14 1 -14 10 0 10 -3 0 -15 -7 -9 -10 -18 -7 -21 6 -7 133 -33 161 -34
93 -2 137 1 249 16 l127 17 0 79 c0 69 -2 78 -18 78 -10 0 -21 -2 -23 -5z"/>
<path d="M6850 3370 c-315 -55 -318 -55 -320 -88 0 -9 -1 -40 -3 -68 -1 -28
-8 -58 -16 -67 -12 -15 -10 -17 20 -19 53 -3 118 3 134 11 5 3 44 7 85 9 41 2
82 8 91 13 9 5 49 12 88 15 l71 7 0 103 c0 121 16 112 -150 84z"/>
<path d="M4551 3161 c-8 -5 -9 -11 -3 -15 5 -3 12 1 16 9 6 17 6 18 -13 6z"/>
<path d="M6915 3110 c-194 -31 -262 -42 -354 -55 -58 -8 -106 -15 -109 -15 -2
0 -2 -10 1 -22 4 -13 0 -29 -10 -40 -26 -29 -1 -71 65 -107 40 -21 50 -31 35
-31 -36 0 -38 -21 -5 -51 17 -16 34 -29 37 -29 4 0 18 -13 32 -30 13 -16 31
-30 38 -30 11 0 56 -36 137 -112 16 -16 36 -28 43 -28 8 0 26 -11 40 -25 24
-25 92 -55 121 -55 12 0 14 55 14 320 0 299 -1 320 -17 319 -10 -1 -40 -5 -68
-9z m-282 -297 c-7 -2 -19 -2 -25 0 -7 3 -2 5 12 5 14 0 19 -2 13 -5z"/>
<path d="M1858 3083 c12 -2 32 -2 45 0 12 2 2 4 -23 4 -25 0 -35 -2 -22 -4z"/>
<path d="M0 3050 c0 -5 19 -10 43 -9 36 1 38 2 17 9 -36 12 -60 12 -60 0z"/>
<path d="M60 3014 c-25 -14 -25 -14 13 -14 26 0 37 4 35 12 -6 17 -20 18 -48
2z"/>
<path d="M1920 3010 c0 -5 12 -10 28 -9 24 0 25 1 7 9 -27 12 -35 12 -35 0z"/>
<path d="M1530 2993 c1 -19 18 -33 33 -27 26 10 20 34 -8 34 -14 0 -25 -3 -25
-7z"/>
<path d="M1848 2993 c7 -3 16 -2 19 1 4 3 -2 6 -13 5 -11 0 -14 -3 -6 -6z"/>
<path d="M720 2930 c0 -5 9 -10 20 -10 11 0 20 5 20 10 0 6 -9 10 -20 10 -11
0 -20 -4 -20 -10z"/>
<path d="M50 2880 c0 -29 4 -40 15 -40 11 0 15 11 15 40 0 29 -4 40 -15 40
-11 0 -15 -11 -15 -40z"/>
<path d="M1448 2913 c7 -3 16 -2 19 1 4 3 -2 6 -13 5 -11 0 -14 -3 -6 -6z"/>
<path d="M0 1530 c0 -1012 3 -1310 12 -1310 9 0 9 -3 0 -12 -8 -8 -12 -47 -12
-110 l0 -98 65 0 c64 0 65 0 65 28 0 18 -10 36 -29 53 -22 19 -28 32 -24 48 3
11 9 21 13 21 5 0 22 12 39 26 l31 26 0 -27 c0 -26 1 -27 22 -13 27 18 35 38
14 38 -10 0 -14 9 -13 28 3 26 5 27 47 24 53 -3 70 6 75 39 2 13 7 34 10 46 7
21 4 23 -33 23 -22 0 -42 5 -44 11 -2 7 -14 5 -33 -5 -59 -30 -98 -46 -114
-45 -12 0 -11 3 4 10 11 6 29 23 39 38 12 18 26 27 37 24 11 -3 19 3 24 17 8
26 4 31 -24 33 -35 2 -23 39 16 49 18 5 33 13 33 18 0 5 23 12 50 16 34 4 50
11 50 21 0 8 4 11 10 8 5 -3 15 5 22 19 6 14 18 26 27 26 12 0 12 3 3 12 -17
17 -15 23 13 36 22 10 25 18 25 61 0 27 -5 51 -11 53 -7 2 0 18 16 37 21 24
30 29 36 19 14 -23 22 18 11 59 l-10 38 -1 -37 c-1 -27 -5 -38 -16 -38 -12 0
-13 4 -5 19 5 11 10 29 10 40 0 19 6 21 56 21 l56 0 -3 43 c-4 38 -2 43 14 39
11 -3 17 1 17 11 0 24 -14 28 -90 31 -59 2 -72 6 -89 27 -12 13 -19 17 -15 8
3 -10 -1 -19 -10 -22 -21 -8 -39 27 -31 62 3 15 1 39 -4 53 -12 33 9 112 33
116 10 2 16 13 16 32 0 15 7 33 15 40 11 9 15 32 15 80 0 48 4 71 15 80 8 7
15 17 15 22 0 5 7 16 15 25 9 8 19 28 22 44 3 16 9 29 14 29 5 0 9 8 9 18 0
10 7 28 16 40 13 19 13 26 3 38 -7 8 -13 29 -15 47 -2 25 5 38 28 60 17 15 34
27 38 27 4 0 6 15 3 33 -3 28 0 35 21 47 15 7 26 19 26 25 0 7 11 17 25 23 17
8 25 20 25 38 0 29 46 84 71 84 18 0 35 70 20 80 -11 6 18 44 42 53 9 3 17 15
17 25 0 23 22 44 41 40 8 -2 15 7 17 20 2 15 10 22 27 22 13 0 26 -6 28 -12 3
-7 6 2 6 20 1 41 26 43 34 2 4 -16 4 -72 0 -124 -5 -87 -4 -95 14 -104 11 -6
29 -8 41 -5 33 8 28 -21 -9 -56 -28 -27 -30 -34 -27 -88 3 -54 5 -58 26 -56
13 2 32 -2 42 -7 17 -9 18 -14 8 -36 -11 -23 -9 -28 7 -41 18 -13 20 -12 23 8
4 22 4 22 16 -2 7 -15 22 -25 39 -27 15 -2 27 -8 27 -14 0 -7 5 -6 15 2 19 16
33 5 43 -33 l8 -32 107 -10 c98 -10 156 -25 94 -25 -15 0 -27 -5 -27 -10 0 -6
3 -9 8 -8 4 1 49 -2 100 -6 85 -7 94 -10 104 -32 6 -13 19 -24 30 -24 19 0 24
15 8 25 -5 3 -10 14 -10 23 1 16 2 16 14 0 18 -24 31 -23 54 7 11 14 22 25 25
25 11 0 67 -59 67 -71 0 -10 3 -10 12 -1 15 15 50 16 65 1 6 -6 42 -9 91 -7
44 2 78 0 76 -4 -5 -8 19 -16 74 -22 23 -3 46 -7 50 -10 5 -3 33 -1 64 3 31 4
64 4 74 1 32 -12 179 14 179 30 0 8 8 16 18 18 10 2 17 -3 17 -12 0 -8 8 -31
17 -51 16 -34 18 -35 74 -35 60 0 69 -7 69 -56 0 -13 5 -24 10 -24 15 0 12 70
-4 86 -8 8 -22 14 -30 14 -9 0 -16 4 -16 8 0 12 45 49 67 55 16 4 16 6 -4 12
-38 12 -26 22 44 36 37 8 76 22 85 31 10 10 21 18 25 18 4 0 16 8 27 18 32 28
111 43 220 41 60 -1 102 3 109 10 15 15 94 14 100 -1 7 -17 27 10 20 27 -2 7
7 15 22 19 24 6 55 7 208 9 26 0 47 4 47 8 0 5 6 9 14 9 7 0 19 7 26 15 7 8
23 15 36 15 12 0 26 5 29 11 4 5 17 9 28 8 12 0 24 0 27 1 3 1 41 8 85 15 44
8 100 18 125 24 25 6 61 14 80 17 19 3 41 7 48 10 7 2 13 3 15 2 1 -1 13 5 27
12 14 8 30 13 37 12 7 -2 30 6 52 16 31 15 41 17 45 7 5 -15 55 -11 134 11 52
15 68 36 36 48 -34 13 -5 16 46 5 41 -9 57 -8 77 2 22 12 22 14 7 19 -20 8
-199 3 -225 -5 -10 -3 -20 -1 -24 5 -3 5 -17 10 -30 10 -13 0 -26 6 -29 13 -3
8 -9 6 -21 -8 -14 -18 -14 -20 2 -26 13 -4 14 -7 4 -14 -17 -10 -163 -7 -174
4 -4 4 0 18 10 30 l18 22 22 -20 c32 -30 42 -26 50 22 6 37 8 39 13 17 l7 -25
12 28 c25 63 8 76 -102 75 -69 0 -77 -2 -77 -19 0 -16 -8 -19 -54 -19 -30 0
-58 -5 -61 -11 -5 -7 -15 -5 -31 5 -21 15 -24 15 -32 -2 -6 -9 -13 -36 -17
-59 -6 -41 -6 -42 27 -47 18 -3 46 -7 62 -8 46 -5 41 -23 -6 -25 -89 -4 -154
-16 -170 -32 -52 -50 -80 -61 -153 -61 -30 0 -57 -5 -60 -10 -4 -6 -13 -7 -23
-2 -9 5 -51 10 -92 11 -50 2 -81 8 -92 18 -16 14 -20 14 -43 -1 -27 -18 -32
-32 -12 -39 6 -3 -7 -2 -30 0 -29 4 -43 2 -43 -6 0 -6 -7 -11 -15 -11 -8 0
-15 5 -15 10 0 18 -20 11 -20 -7 -1 -17 -1 -17 -14 0 -14 18 -66 24 -66 7 0
-6 -33 -10 -80 -10 -64 0 -80 -3 -80 -15 0 -11 -11 -15 -40 -15 -46 0 -54 19
-17 45 l22 16 -27 -7 c-31 -7 -35 2 -14 31 7 11 16 36 20 56 l6 36 -50 1 c-46
1 -50 -1 -45 -18 4 -14 -3 -28 -27 -49 l-33 -29 28 -7 c19 -5 26 -12 23 -22
-4 -8 4 -18 22 -24 l27 -11 -22 -11 c-19 -8 -27 -6 -47 16 -14 15 -30 27 -35
27 -6 0 -10 10 -8 23 1 17 -4 23 -23 25 -14 1 -32 -2 -40 -8 -13 -8 -12 -11 5
-24 19 -15 19 -15 -12 -16 -17 0 -33 6 -36 13 -2 7 -8 8 -13 3 -5 -5 -4 -11 4
-13 20 -8 13 -25 -8 -18 -14 4 -27 -2 -45 -21 -22 -23 -30 -26 -69 -22 -24 3
-50 2 -56 -2 -15 -9 -4 -30 16 -30 8 0 14 -4 14 -10 0 -5 -6 -10 -14 -10 -8 0
-18 5 -21 10 -3 6 -15 10 -27 10 -17 0 -19 -5 -14 -27 3 -16 3 -22 0 -16 -9
20 -40 -2 -52 -37 -11 -30 -32 -42 -32 -17 0 8 -19 12 -63 12 -34 0 -88 6
-119 13 -59 15 -73 32 -40 51 16 10 16 10 0 11 -10 0 -18 5 -18 10 0 6 5 10
10 10 6 0 10 4 10 9 0 5 -11 8 -25 7 -29 -3 -46 -16 -22 -16 13 0 17 -9 17
-36 0 -32 -1 -34 -16 -20 -24 24 -54 20 -55 -6 -1 -21 -2 -20 -11 5 -12 34
-41 35 -74 2 -34 -34 -47 -32 -39 5 4 17 1 42 -6 59 -12 26 -17 29 -49 25
l-35 -5 29 13 28 13 -26 14 c-32 17 -32 25 -4 45 15 11 24 12 29 5 19 -32 30
64 10 98 -10 17 -10 16 -11 -4 0 -29 -12 -29 -47 2 l-28 24 38 1 c20 0 37 5
37 10 0 6 -18 10 -40 10 -40 0 -40 0 -40 -39 0 -26 -5 -41 -16 -45 -8 -3 -12
-10 -9 -16 4 -6 11 -7 17 -4 16 10 -7 -28 -29 -48 -18 -17 -21 -16 -58 9 -22
15 -34 28 -27 31 19 6 -18 31 -46 32 -26 0 -63 -17 -74 -34 -5 -8 -8 -7 -8 2
0 6 -7 12 -16 12 -8 0 -12 5 -9 10 5 8 11 8 20 0 11 -9 14 -5 17 22 2 23 10
36 26 43 25 11 29 30 8 42 -18 11 -36 47 -36 72 0 28 -13 26 -47 -4 -22 -19
-24 -24 -10 -25 24 0 21 -19 -5 -29 -25 -9 -83 13 -73 29 3 5 0 12 -6 16 -6 3
-14 2 -18 -4 -8 -13 -155 -22 -172 -10 -11 7 -11 11 -1 15 6 2 12 18 12 34 0
27 2 29 40 29 33 0 40 3 40 20 0 13 -7 20 -20 20 -13 0 -20 7 -20 20 0 12 7
20 16 20 14 0 14 3 3 16 -20 25 -65 44 -104 44 -29 0 -35 -4 -36 -22 0 -13 -3
-17 -6 -10 -2 6 -9 10 -14 6 -5 -3 -14 6 -21 20 -10 23 -17 26 -65 26 l-53 0
0 40 0 40 -47 1 c-27 1 -54 1 -60 0 -7 -1 -13 3 -13 9 0 13 -37 13 -45 0 -4
-6 -95 -10 -241 -10 -175 0 -234 -3 -234 -12 0 -9 -3 -9 -12 0 -20 20 -33 14
-47 -24 -7 -19 -19 -38 -27 -41 -9 -3 -14 -20 -14 -44 l0 -39 50 0 50 0 0 40
c0 22 5 40 10 40 6 0 10 -18 10 -40 0 -43 0 -43 -80 -53 -58 -8 -70 8 -70 97
0 59 -3 76 -14 76 -8 0 -16 -5 -18 -12 -6 -17 -28 0 -28 22 0 13 -9 22 -25 26
-16 4 -25 13 -25 25 0 10 -4 19 -10 19 -6 0 -10 33 -10 80 0 47 4 80 10 80 19
0 10 22 -21 51 -17 16 -35 29 -40 29 -5 0 -9 -547 -9 -1310z m623 973 c-13 -2
-33 -2 -45 0 -13 2 -3 4 22 4 25 0 35 -2 23 -4z m17 -33 c0 -5 -18 -10 -40
-10 -22 0 -40 5 -40 10 0 6 18 10 40 10 22 0 40 -4 40 -10z m-130 -39 c0 -5
-7 -14 -15 -21 -13 -10 -15 -9 -15 9 0 12 6 21 15 21 8 0 15 -4 15 -9z m-85
-81 c-3 -5 -10 -10 -16 -10 -5 0 -9 5 -9 10 0 6 7 10 16 10 8 0 12 -4 9 -10z
m718 -182 c-13 -6 -23 -15 -23 -20 0 -4 -7 -8 -17 -8 -14 0 -14 2 2 20 10 11
28 20 39 19 20 0 20 -1 -1 -11z m377 -38 c0 -5 -5 -10 -11 -10 -5 0 -7 5 -4
10 3 6 8 10 11 10 2 0 4 -4 4 -10z m2400 0 c0 -5 -4 -10 -10 -10 -5 0 -10 5
-10 10 0 6 5 10 10 10 6 0 10 -4 10 -10z m-2440 -120 c0 -11 -4 -20 -10 -20
-5 0 -10 9 -10 20 0 11 5 20 10 20 6 0 10 -9 10 -20z m250 -60 c0 -5 -4 -10
-10 -10 -5 0 -10 5 -10 10 0 6 5 10 10 10 6 0 10 -4 10 -10z m1070 -80 c0 -5
-6 -10 -14 -10 -8 0 -18 5 -21 10 -3 6 3 10 14 10 12 0 21 -4 21 -10z m60
-140 c0 -5 -5 -10 -11 -10 -5 0 -7 5 -4 10 3 6 8 10 11 10 2 0 4 -4 4 -10z"/>
<path d="M320 2776 c0 -9 7 -16 16 -16 9 0 14 5 12 12 -6 18 -28 21 -28 4z"/>
<path d="M457 2783 c-15 -14 -5 -23 26 -23 30 1 31 1 13 15 -22 17 -29 18 -39
8z"/>
<path d="M590 2775 c0 -9 9 -15 21 -15 18 0 19 2 9 15 -7 8 -16 15 -21 15 -5
0 -9 -7 -9 -15z"/>
<path d="M2065 2741 c-3 -5 -1 -12 5 -16 5 -3 10 1 10 9 0 18 -6 21 -15 7z"/>
<path d="M1510 2710 c0 -20 5 -30 15 -30 10 0 15 10 15 30 0 20 -5 30 -15 30
-10 0 -15 -10 -15 -30z"/>
<path d="M375 2690 c-3 -5 1 -10 9 -10 9 0 16 5 16 10 0 6 -4 10 -9 10 -6 0
-13 -4 -16 -10z"/>
<path d="M730 2640 c0 -33 3 -40 20 -40 17 0 20 7 20 40 0 33 -3 40 -20 40
-17 0 -20 -7 -20 -40z"/>
<path d="M3600 2633 c0 -26 4 -33 20 -33 25 0 25 11 0 41 l-19 24 -1 -32z"/>
<path d="M2128 2403 c6 -2 18 -2 25 0 6 3 1 5 -13 5 -14 0 -19 -2 -12 -5z"/>
<path d="M2706 2299 c-9 -91 -8 -106 11 -113 24 -10 37 9 19 27 -23 23 -22
115 2 133 16 12 16 13 -4 14 -19 0 -22 -8 -28 -61z"/>
<path d="M1520 2290 c0 -5 7 -10 16 -10 8 0 12 5 9 10 -3 6 -10 10 -16 10 -5
0 -9 -4 -9 -10z"/>
<path d="M1408 2283 c6 -2 18 -2 25 0 6 3 1 5 -13 5 -14 0 -19 -2 -12 -5z"/>
<path d="M1664 2249 c-3 -6 1 -18 10 -27 15 -15 17 -15 34 1 15 16 15 19 2 27
-20 13 -37 12 -46 -1z"/>
<path d="M1573 2229 c-9 -9 -9 -17 0 -33 7 -11 13 -23 14 -25 1 -1 12 7 25 19
23 21 23 22 4 36 -24 17 -29 17 -43 3z"/>
<path d="M4730 2160 c0 -5 7 -10 15 -10 8 0 15 5 15 10 0 6 -7 10 -15 10 -8 0
-15 -4 -15 -10z"/>
<path d="M2506 2152 c-3 -5 -3 -25 1 -45 5 -31 8 -35 27 -27 11 5 38 11 58 15
52 8 58 25 9 25 -28 0 -41 4 -41 14 0 21 -43 35 -54 18z"/>
<path d="M3565 2110 c4 -6 11 -8 16 -5 14 9 11 15 -7 15 -8 0 -12 -5 -9 -10z"/>
<path d="M2400 2065 c0 -9 6 -12 15 -9 8 4 15 10 15 15 0 5 -7 9 -15 9 -8 0
-15 -7 -15 -15z"/>
<path d="M2415 2030 c4 -6 11 -8 16 -5 14 9 11 15 -7 15 -8 0 -12 -5 -9 -10z"/>
<path d="M2480 2029 c0 -5 5 -7 10 -4 6 3 10 8 10 11 0 2 -4 4 -10 4 -5 0 -10
-5 -10 -11z"/>
<path d="M1940 1999 c0 -5 5 -7 10 -4 6 3 10 8 10 11 0 2 -4 4 -10 4 -5 0 -10
-5 -10 -11z"/>
<path d="M3145 2000 c3 -5 13 -10 21 -10 8 0 12 5 9 10 -3 6 -13 10 -21 10 -8
0 -12 -4 -9 -10z"/>
<path d="M3000 1971 c0 -13 25 -17 77 -12 65 5 52 21 -17 21 -33 0 -60 -4 -60
-9z"/>
<path d="M2301 1961 c-9 -6 -10 -11 -2 -15 6 -4 18 0 27 8 12 12 12 16 2 16
-7 0 -19 -4 -27 -9z"/>
<path d="M3255 1730 c-3 -5 1 -10 9 -10 9 0 16 5 16 10 0 6 -4 10 -9 10 -6 0
-13 -4 -16 -10z"/>
<path d="M2938 1723 c7 -3 16 -2 19 1 4 3 -2 6 -13 5 -11 0 -14 -3 -6 -6z"/>
<path d="M3170 1710 c0 -15 36 -30 74 -30 20 0 36 5 36 10 0 6 -18 10 -40 10
-22 0 -40 5 -40 10 0 6 -7 10 -15 10 -8 0 -15 -4 -15 -10z"/>
<path d="M3010 1650 c-12 -8 -11 -10 8 -10 12 0 22 5 22 10 0 13 -11 13 -30 0z"/>
<path d="M1885 1624 c-17 -13 -18 -16 -5 -24 26 -16 40 -11 40 15 0 29 -7 30
-35 9z"/>
<path d="M3255 1580 c-4 -6 1 -22 10 -36 13 -21 19 -23 31 -13 21 18 13 53
-13 57 -11 2 -24 -2 -28 -8z"/>
<path d="M2145 1550 c3 -5 8 -10 11 -10 2 0 4 5 4 10 0 6 -5 10 -11 10 -5 0
-7 -4 -4 -10z"/>
<path d="M2960 1300 c0 -29 30 -38 46 -15 21 28 17 35 -16 35 -23 0 -30 -4
-30 -20z"/>
<path d="M2630 1278 c0 -13 4 -29 8 -36 11 -17 82 -29 82 -13 0 6 5 11 10 11
6 0 10 -18 10 -40 0 -22 -4 -40 -10 -40 -5 0 -10 -11 -10 -24 0 -13 -7 -26
-15 -30 -8 -3 -15 -10 -15 -16 0 -5 7 -10 15 -10 21 0 19 -28 -4 -35 -10 -3
-26 -14 -36 -25 -10 -11 -25 -20 -34 -20 -9 0 -22 -9 -29 -21 -8 -12 -19 -18
-28 -15 -10 4 -14 -2 -14 -19 0 -14 7 -25 18 -27 12 -3 4 -11 -28 -28 -25 -13
-51 -23 -57 -22 -7 2 -13 -4 -13 -13 0 -19 -75 -21 -84 -2 -3 6 -3 2 0 -10 8
-32 -25 -83 -53 -83 -19 0 -23 -5 -23 -30 0 -28 2 -30 40 -30 33 0 40 -3 40
-20 0 -18 -7 -20 -79 -20 l-80 0 -3 36 -3 36 -25 -21 c-21 -17 -23 -22 -10
-31 10 -7 12 -12 4 -17 -6 -5 -13 -22 -16 -40 -3 -25 -1 -31 12 -28 9 2 23 -1
31 -6 10 -6 2 -9 -24 -9 -42 0 -70 -12 -104 -43 -13 -11 -23 -15 -23 -9 0 7
-16 12 -40 12 l-40 0 0 40 0 40 -40 0 c-26 0 -40 5 -40 13 0 9 -12 11 -42 8
l-43 -5 39 -6 c55 -7 60 -30 7 -30 -30 0 -41 -4 -41 -15 0 -12 -16 -15 -80
-15 -64 0 -80 3 -80 15 0 11 11 15 40 15 22 0 40 5 40 10 0 6 -33 10 -80 10
-77 0 -80 -1 -86 -25 -8 -34 3 -75 21 -75 12 0 15 -17 15 -89 0 -89 -5 -102
-38 -107 -21 -4 -42 -25 -42 -44 0 -33 62 -44 250 -44 209 0 222 1 325 15 44
6 95 11 114 10 18 0 42 6 53 14 11 7 26 11 33 9 7 -3 27 4 46 15 42 24 109 38
109 22 0 -13 39 -14 58 -2 7 4 15 17 16 27 3 17 13 19 127 19 l124 1 -123 -15
c-77 -9 -121 -18 -119 -25 2 -6 20 -12 40 -14 28 -2 37 1 37 13 0 12 13 15 73
15 96 -1 106 0 112 11 4 5 17 9 30 9 13 0 25 4 27 10 2 6 47 7 123 2 93 -5
110 -8 75 -13 -43 -6 -44 -6 -9 -7 20 -1 50 5 65 13 33 17 64 20 64 5 0 -14
20 -13 53 3 33 15 35 42 5 52 l-23 8 23 4 c15 3 22 12 22 28 0 12 7 25 15 29
27 10 16 25 -22 28 -30 3 -34 6 -20 12 19 9 97 -11 108 -27 4 -6 21 0 39 13
26 18 34 20 40 9 7 -10 13 -8 28 11 18 22 18 27 5 59 -18 43 -28 51 -71 51
-20 0 -35 6 -38 15 -4 8 -11 15 -17 15 -7 0 -7 -4 1 -12 7 -7 12 -20 12 -29 0
-9 10 -19 22 -22 18 -5 19 -8 8 -21 -17 -21 -38 -20 -77 4 -18 11 -33 15 -33
10 0 -6 -9 -10 -20 -10 -13 0 -24 -10 -30 -26 -7 -18 -15 -24 -26 -20 -9 3
-20 6 -25 6 -5 0 -9 9 -9 20 0 15 -7 20 -28 20 -16 0 -37 9 -47 20 -11 13 -25
18 -37 14 -12 -3 -18 0 -18 10 0 17 -22 21 -107 17 -34 -2 -53 1 -53 8 0 6 -8
11 -17 11 -14 0 -15 2 -4 13 11 10 14 9 18 0 3 -7 11 -13 19 -13 10 0 14 12
14 38 0 36 3 41 49 65 27 15 54 34 61 42 10 13 9 15 -9 15 -11 0 -21 4 -21 10
0 5 -16 16 -35 24 -19 8 -38 22 -41 31 -3 8 -12 15 -20 15 -22 0 -19 116 3
138 16 16 13 17 -40 20 -62 3 -80 22 -22 22 39 0 84 19 104 44 11 13 11 16 0
16 -10 1 -10 4 3 13 9 7 20 25 23 40 7 25 5 27 -22 27 -16 0 -33 -4 -38 -9 -6
-5 -37 -5 -75 0 -86 12 -90 14 -55 29 l30 12 -30 14 c-16 7 -56 13 -87 14 -54
0 -58 -2 -58 -22z m250 -397 c0 -38 -1 -39 -40 -43 -32 -3 -40 0 -40 13 0 9
-11 24 -25 33 -40 26 -29 36 40 36 l65 0 0 -39z m-400 -141 c0 -11 -7 -20 -15
-20 -8 0 -15 9 -15 20 0 11 7 20 15 20 8 0 15 -9 15 -20z m303 -57 c-13 -2
-33 -2 -45 0 -13 2 -3 4 22 4 25 0 35 -2 23 -4z m47 -74 c0 -5 -7 -9 -15 -9
-9 0 -15 9 -15 21 0 18 2 19 15 9 8 -7 15 -16 15 -21z m-326 2 c3 -5 -1 -12
-10 -15 -27 -10 -35 -7 -22 9 15 17 25 19 32 6z m615 -87 c2 -2 -21 -4 -53 -4
-31 0 -55 4 -52 9 5 8 95 3 105 -5z m-416 -11 c-13 -2 -33 -2 -45 0 -13 2 -3
4 22 4 25 0 35 -2 23 -4z m264 -55 c-2 -13 -4 -3 -4 22 0 25 2 35 4 23 2 -13
2 -33 0 -45z m233 52 c0 -5 -4 -10 -9 -10 -6 0 -13 5 -16 10 -3 6 1 10 9 10 9
0 16 -4 16 -10z m-1500 -140 c0 -5 -4 -10 -10 -10 -5 0 -10 5 -10 10 0 6 5 10
10 10 6 0 10 -4 10 -10z m410 -90 c13 -8 13 -10 -2 -10 -9 0 -20 5 -23 10 -8
13 5 13 25 0z"/>
<path d="M577 944 c-13 -13 -7 -24 14 -24 11 0 19 5 17 12 -5 14 -22 21 -31
12z"/>
<path d="M3084 735 c-19 -15 -19 -15 0 -30 29 -22 36 -19 36 15 0 34 -7 37
-36 15z"/>
<path d="M1975 690 c-3 -5 1 -10 9 -10 9 0 16 5 16 10 0 6 -4 10 -9 10 -6 0
-13 -4 -16 -10z"/>
<path d="M3065 670 c3 -5 8 -10 11 -10 2 0 4 5 4 10 0 6 -5 10 -11 10 -5 0 -7
-4 -4 -10z"/>
<path d="M252 457 c-8 -10 -5 -13 14 -15 16 -1 24 3 22 10 -6 18 -24 20 -36 5z"/>
<path d="M328 443 c7 -3 16 -2 19 1 4 3 -2 6 -13 5 -11 0 -14 -3 -6 -6z"/>
<path d="M1580 400 c0 -22 5 -40 10 -40 6 0 10 18 10 40 0 22 -4 40 -10 40 -5
0 -10 -18 -10 -40z"/>
<path d="M3470 425 c-7 -8 -28 -15 -46 -15 -37 0 -40 -6 -20 -32 13 -18 31
-23 74 -20 19 2 22 8 22 42 0 42 -9 50 -30 25z"/>
<path d="M6793 366 c-16 -19 -21 -98 -5 -104 6 -2 12 1 12 7 0 6 7 11 15 11
11 0 15 -11 15 -40 0 -29 -4 -40 -15 -40 -8 0 -15 -7 -15 -15 0 -8 -6 -15 -12
-15 -7 0 -20 -5 -28 -10 -13 -8 -12 -11 5 -24 19 -15 19 -15 -12 -16 -32 0
-33 -2 -33 -40 l0 -40 -40 0 c-36 0 -40 3 -40 25 0 23 -4 25 -40 25 -29 0 -40
4 -40 15 0 11 -11 15 -40 15 -29 0 -40 -4 -40 -15 0 -12 -16 -15 -80 -15 -64
0 -80 -3 -80 -15 0 -11 -11 -15 -40 -15 -22 0 -40 -4 -40 -10 0 -14 -77 -13
-82 1 -6 18 -48 -12 -48 -33 0 -15 10 -18 65 -18 58 0 65 2 65 20 0 16 7 20
30 20 23 0 30 -4 30 -20 0 -20 7 -20 350 -20 l350 0 0 171 0 171 -35 -6 c-27
-5 -37 -3 -41 9 -3 8 -15 15 -25 15 -10 0 -19 5 -19 10 0 15 -73 11 -87 -4z"/>
<path d="M3645 337 c-16 -13 -14 -15 25 -21 44 -7 68 3 56 23 -10 15 -58 14
-81 -2z"/>
<path d="M1421 269 c-26 -28 -26 -28 2 -60 19 -23 25 -25 40 -14 14 10 16 20
9 50 -9 47 -24 53 -51 24z"/>
<path d="M1500 271 c0 -6 5 -13 10 -16 6 -3 10 1 10 9 0 9 -4 16 -10 16 -5 0
-10 -4 -10 -9z"/>
<path d="M6700 270 c0 -5 5 -10 10 -10 6 0 10 5 10 10 0 6 -4 10 -10 10 -5 0
-10 -4 -10 -10z"/>
<path d="M6320 235 c0 -11 11 -15 40 -15 22 0 40 -4 40 -10 0 -5 8 -10 18 -10
16 1 16 1 0 14 -10 7 -18 18 -18 25 0 6 -17 11 -40 11 -29 0 -40 -4 -40 -15z"/>
<path d="M226 231 c-4 -7 -5 -15 -2 -18 9 -9 19 4 14 18 -4 11 -6 11 -12 0z"/>
<path d="M700 191 c0 -17 32 -21 58 -6 l27 14 -42 1 c-24 0 -43 -4 -43 -9z"/>
</g>
</svg>
