<?xml version="1.0" standalone="no"?>
<!DOCTYPE svg PUBLIC "-//W3C//DTD SVG 20010904//EN"
 "http://www.w3.org/TR/2001/REC-SVG-20010904/DTD/svg10.dtd">
<svg version="1.0" xmlns="http://www.w3.org/2000/svg"
 width="640.000000pt" height="426.000000pt" viewBox="0 0 640.000000 426.000000"
 preserveAspectRatio="xMidYMid meet">

<g transform="translate(0.000000,426.000000) scale(0.100000,-0.100000)"
fill="#000000" stroke="none">
<path d="M0 4104 c0 -101 3 -153 10 -149 6 3 10 12 10 19 0 8 9 16 21 19 11 3
19 11 18 19 -3 28 2 39 25 47 15 6 25 20 30 41 4 21 13 34 26 37 13 3 19 11
16 19 -3 8 1 14 9 14 16 0 55 30 55 42 0 5 -7 8 -15 8 -8 0 -15 9 -15 20 0 19
-7 20 -95 20 l-95 0 0 -156z"/>
<path d="M1 3924 c0 -11 3 -14 6 -6 3 7 2 16 -1 19 -3 4 -6 -2 -5 -13z"/>
<path d="M4035 2251 c-10 -16 -24 -29 -29 -28 -5 1 -15 -9 -22 -21 -6 -13 -14
-19 -18 -14 -3 5 -22 13 -41 16 -21 4 -35 13 -35 21 0 22 -17 18 -34 -7 -10
-14 -12 -26 -6 -33 14 -17 3 -24 -27 -19 -19 4 -26 0 -30 -16 -3 -11 -10 -20
-15 -20 -6 0 -8 -11 -6 -24 3 -14 1 -31 -3 -38 -7 -10 -9 -10 -9 2 0 9 -6 6
-16 -9 -12 -17 -15 -35 -10 -67 6 -49 2 -54 -59 -69 -35 -9 -40 -14 -40 -39
-1 -28 0 -28 42 -22 23 3 45 1 48 -4 3 -6 17 -10 31 -10 14 0 23 4 20 9 -4 5
-1 11 5 13 6 2 -2 16 -17 31 -15 15 -24 30 -20 34 3 3 29 8 57 9 29 1 57 8 63
15 8 9 7 11 -6 6 -10 -3 -20 -3 -22 2 -5 7 1 9 44 13 11 1 20 7 20 13 0 21 59
47 90 40 25 -5 35 -1 59 22 l29 30 23 -28 23 -28 32 27 c18 15 33 32 33 37 1
17 -31 58 -38 49 -7 -10 -66 -44 -75 -44 -3 0 -6 5 -6 11 0 6 -11 19 -23 29
-18 15 -23 26 -19 49 5 33 31 43 33 14 2 -17 4 -37 8 -57 0 -6 6 -5 13 2 7 7
25 12 41 12 l28 0 -21 27 c-13 17 -17 30 -11 36 14 14 2 37 -15 30 -10 -4 -12
0 -8 11 12 30 -39 19 -61 -13z m45 -1 c0 -5 -7 -10 -16 -10 -8 0 -12 5 -9 10
3 6 10 10 16 10 5 0 9 -4 9 -10z m-74 -94 c24 -25 17 -38 -13 -23 -16 8 -34
12 -41 10 -7 -3 -10 1 -6 11 8 20 41 21 60 2z m-156 -22 c0 -8 -4 -12 -10 -9
-5 3 -10 13 -10 21 0 8 5 12 10 9 6 -3 10 -13 10 -21z m-43 -6 c-3 -8 -6 -5
-6 6 -1 11 2 17 5 13 3 -3 4 -12 1 -19z m83 12 c0 -5 -2 -10 -4 -10 -3 0 -8 5
-11 10 -3 6 -1 10 4 10 6 0 11 -4 11 -10z m61 -44 c7 4 10 2 7 -6 -6 -20 -78
-25 -78 -6 0 10 6 13 15 10 8 -4 15 -1 15 6 0 10 3 10 15 0 8 -6 19 -8 26 -4z
m-151 -100 c0 -3 -4 -8 -10 -11 -5 -3 -10 -1 -10 4 0 6 5 11 10 11 6 0 10 -2
10 -4z"/>
<path d="M4250 2239 c0 -5 5 -7 10 -4 6 3 10 8 10 11 0 2 -4 4 -10 4 -5 0 -10
-5 -10 -11z"/>
<path d="M4270 2194 c0 -8 5 -12 10 -9 6 4 8 11 5 16 -9 14 -15 11 -15 -7z"/>
<path d="M4364 2188 c4 -18 2 -28 -4 -28 -6 0 -8 -5 -5 -10 5 -8 11 -7 21 1
19 15 18 33 -3 50 -15 13 -16 11 -9 -13z"/>
<path d="M4405 2169 c-10 -15 1 -23 20 -15 9 3 13 10 10 16 -8 13 -22 13 -30
-1z"/>
<path d="M4539 2122 c22 -17 21 -17 -35 -15 -63 1 -87 -4 -78 -18 3 -5 10 -6
16 -3 6 4 15 0 20 -7 8 -11 11 -11 15 -1 3 9 10 6 24 -10 28 -31 52 -32 66 -1
11 22 10 31 -2 50 -9 13 -23 23 -31 23 -13 0 -11 -4 5 -18z"/>
<path d="M4356 2114 c-8 -21 -8 -21 9 -28 11 -4 15 1 15 19 0 28 -15 33 -24 9z"/>
<path d="M3577 2093 c-14 -13 -6 -34 24 -66 28 -29 69 -45 69 -27 0 4 9 10 19
13 25 6 21 30 -9 62 -17 18 -27 22 -36 14 -8 -7 -14 -7 -19 1 -7 11 -38 14
-48 3z m96 -53 c6 -23 3 -24 -24 -10 -15 9 -17 13 -7 24 16 17 24 13 31 -14z"/>
<path d="M3460 2070 c0 -5 5 -10 11 -10 5 0 7 5 4 10 -3 6 -8 10 -11 10 -2 0
-4 -4 -4 -10z"/>
<path d="M4215 2060 c-3 -5 -1 -10 4 -10 6 0 11 5 11 10 0 6 -2 10 -4 10 -3 0
-8 -4 -11 -10z"/>
<path d="M4175 2039 c5 -15 2 -22 -14 -26 -11 -3 -18 -9 -15 -14 3 -5 9 -7 13
-5 4 3 14 -5 21 -18 17 -32 48 -45 127 -52 l66 -5 -18 28 c-39 60 -51 72 -68
73 -10 0 -16 3 -14 8 3 4 -11 8 -31 10 -20 1 -41 7 -46 12 -17 17 -28 11 -21
-11z"/>
<path d="M3536 2034 c-9 -23 -7 -36 3 -30 5 3 11 -3 14 -13 4 -18 2 -18 -28
-5 -29 12 -34 12 -39 -2 -5 -13 -1 -15 19 -12 14 3 25 2 25 -2 0 -12 -28 -32
-37 -27 -5 3 -10 -3 -10 -14 -1 -10 3 -19 8 -19 19 0 103 54 91 58 -7 2 -9 8
-6 13 9 15 -4 56 -20 62 -8 3 -17 -1 -20 -9z"/>
<path d="M4070 2026 c0 -29 -16 -42 -33 -27 -18 14 -117 11 -117 -5 0 -6 9
-14 21 -17 12 -3 18 -10 14 -16 -3 -6 -2 -11 2 -11 5 0 18 -6 28 -14 16 -12
17 -16 6 -30 -11 -13 -17 -14 -28 -5 -9 8 -17 9 -24 2 -7 -7 -2 -17 17 -32 35
-27 68 -24 72 7 4 26 3 26 37 10 34 -15 39 -7 21 35 -8 20 -11 37 -6 39 5 2
12 22 16 46 5 35 4 42 -10 42 -10 0 -16 -9 -16 -24z"/>
<path d="M4390 2040 c0 -5 5 -10 10 -10 6 0 10 5 10 10 0 6 -4 10 -10 10 -5 0
-10 -4 -10 -10z"/>
<path d="M3400 1985 c0 -8 4 -15 9 -15 5 0 11 7 15 15 3 9 0 15 -9 15 -8 0
-15 -7 -15 -15z"/>
<path d="M4720 1990 c0 -5 4 -10 9 -10 5 0 18 -3 28 -6 16 -5 16 -4 -1 10 -23
18 -36 20 -36 6z"/>
<path d="M3260 1970 c0 -11 6 -20 14 -20 24 0 28 18 6 30 -17 9 -20 8 -20 -10z"/>
<path d="M3340 1965 c0 -8 4 -15 10 -15 5 0 7 7 4 15 -4 8 -8 15 -10 15 -2 0
-4 -7 -4 -15z"/>
<path d="M3705 1970 c3 -5 8 -10 11 -10 2 0 4 5 4 10 0 6 -5 10 -11 10 -5 0
-7 -4 -4 -10z"/>
<path d="M4799 1977 c0 -1 -2 -9 -4 -18 -1 -9 -6 -26 -9 -37 -7 -22 26 -63 77
-97 22 -14 30 -15 42 -5 8 7 15 20 15 29 -1 31 -49 95 -84 112 -20 9 -36 17
-37 16z"/>
<path d="M2060 1945 c0 -7 14 -21 32 -29 34 -17 47 -14 30 6 -6 7 -10 17 -9
23 1 5 -10 11 -25 12 -18 1 -28 -3 -28 -12z"/>
<path d="M3077 1937 c-5 -12 -1 -17 13 -17 11 0 23 -1 27 -2 4 -2 9 5 11 15 2
9 -2 17 -8 17 -6 0 -8 -4 -5 -10 3 -5 0 -10 -9 -10 -8 0 -16 5 -18 12 -3 7 -7
6 -11 -5z"/>
<path d="M4412 1925 c-1 -13 3 -27 8 -30 6 -3 10 5 10 19 0 32 -15 42 -18 11z"/>
<path d="M1858 1931 c8 -4 13 -11 13 -15 -3 -20 1 -26 18 -26 26 0 51 10 51
21 0 5 -13 9 -30 9 -16 0 -30 5 -30 10 0 6 -8 10 -17 10 -14 0 -15 -2 -5 -9z"/>
<path d="M3590 1930 c0 -5 5 -10 10 -10 6 0 10 -5 10 -11 0 -8 -4 -8 -13 -1
-9 8 -25 8 -56 0 -33 -8 -48 -8 -62 0 -25 16 -64 15 -77 -1 -13 -15 1 -43 16
-33 6 4 31 9 55 11 34 3 46 1 51 -10 10 -26 62 -18 84 13 34 50 35 52 8 52
-14 0 -26 -4 -26 -10z"/>
<path d="M4139 1924 c-10 -12 -8 -18 7 -29 24 -18 29 -18 41 -2 27 34 -20 64
-48 31z"/>
<path d="M4745 1920 c-7 -11 2 -30 13 -30 4 0 8 9 8 20 0 21 -11 26 -21 10z"/>
<path d="M1775 1910 c3 -6 1 -10 -5 -10 -6 0 -9 -4 -5 -9 3 -5 -4 -12 -15 -16
-32 -10 -23 -25 10 -15 16 5 35 12 42 16 11 6 11 5 0 -8 -11 -14 -8 -16 23
-20 23 -3 32 -1 25 6 -6 6 -10 16 -10 24 0 7 -6 19 -12 25 -16 15 -62 21 -53
7z"/>
<path d="M1952 1908 c-18 -18 -15 -26 11 -30 12 -2 28 4 35 12 12 13 13 12 7
-5 -5 -16 -4 -17 6 -8 10 10 9 15 -1 28 -15 18 -41 20 -58 3z"/>
<path d="M2680 1903 c0 -26 16 -47 29 -39 15 10 14 25 -3 42 -19 19 -26 18
-26 -3z"/>
<path d="M2967 1893 c8 -24 23 -43 34 -43 4 0 3 14 -2 30 -6 17 -17 30 -25 30
-8 0 -11 -6 -7 -17z"/>
<path d="M4294 1896 c-3 -9 -10 -13 -15 -10 -15 9 -10 -13 6 -30 11 -11 26
-13 48 -9 18 3 33 7 34 7 1 1 -4 13 -10 26 -15 29 -54 39 -63 16z"/>
<path d="M4370 1891 c0 -6 5 -13 10 -16 6 -3 10 1 10 9 0 9 -4 16 -10 16 -5 0
-10 -4 -10 -9z"/>
<path d="M2248 1884 c-3 -3 -24 -5 -47 -6 -23 0 -41 -4 -41 -9 0 -5 5 -9 10
-9 6 0 10 -5 10 -11 0 -5 -4 -7 -10 -4 -5 3 -10 2 -10 -3 0 -16 77 -13 84 3 4
11 11 13 31 5 20 -8 27 -6 31 5 3 8 3 19 -1 25 -7 11 -48 14 -57 4z"/>
<path d="M1707 1863 c-4 -3 -7 -11 -7 -17 0 -6 5 -5 12 2 6 6 9 14 7 17 -3 3
-9 2 -12 -2z"/>
<path d="M2886 1861 c-14 -5 -16 -10 -8 -15 7 -4 12 -4 12 0 0 3 7 1 15 -6 19
-15 28 -9 19 14 -7 18 -10 18 -38 7z"/>
<path d="M3210 1858 c0 -6 7 -8 14 -5 10 4 13 1 10 -7 -6 -17 22 -40 37 -30 9
5 7 11 -6 21 -16 11 -17 13 -3 13 9 0 19 4 23 9 3 6 -12 10 -35 9 -22 0 -40
-5 -40 -10z"/>
<path d="M4186 1856 c6 -15 42 -28 56 -20 15 9 -13 34 -38 34 -16 0 -22 -4
-18 -14z"/>
<path d="M1965 1835 c15 -24 15 -27 2 -17 -9 8 -21 11 -26 7 -6 -3 -8 0 -5 8
7 19 -25 18 -45 -1 -10 -10 -11 -16 -2 -25 19 -19 12 -29 -11 -13 -20 14 -24
14 -41 -2 -10 -9 -21 -16 -23 -14 -2 1 -10 2 -16 2 -20 -1 24 -30 44 -30 10 0
18 -5 18 -11 0 -7 -9 -9 -21 -6 -29 8 -56 -3 -37 -14 7 -5 23 -9 35 -9 12 0
24 -3 26 -7 6 -10 -43 -9 -66 2 -11 5 -24 2 -36 -9 -10 -9 -24 -16 -32 -16 -8
0 -31 -5 -52 -11 -30 -8 -37 -14 -32 -28 4 -13 -1 -20 -15 -24 -11 -3 -20 -10
-20 -16 0 -19 26 -12 49 13 21 23 22 25 4 29 -12 3 -10 5 9 6 15 0 30 6 33 12
5 7 13 5 24 -5 10 -9 20 -14 23 -10 3 3 46 6 94 8 49 2 81 1 72 -1 -23 -6 -23
-21 -1 -47 10 -12 4 -9 -13 7 -29 26 -62 38 -49 17 9 -14 -8 -13 -23 2 -9 9
-12 9 -12 0 0 -8 -12 -11 -37 -8 -20 3 -43 0 -50 -5 -7 -6 -16 -8 -21 -5 -5 3
-23 -7 -40 -23 -25 -22 -29 -30 -19 -40 10 -10 7 -11 -13 -6 -20 5 -32 -1 -54
-24 -16 -16 -30 -40 -31 -53 -1 -13 -3 -29 -4 -35 0 -7 -5 -13 -11 -13 -5 0
-7 7 -3 16 5 13 2 15 -18 9 -31 -9 -48 -25 -27 -25 9 0 19 -8 22 -17 6 -14 9
-15 15 -4 6 9 9 5 9 -13 0 -14 -4 -26 -9 -26 -5 0 -9 5 -9 10 0 7 -6 7 -19 0
-28 -14 -36 -12 -21 5 10 12 10 15 -4 15 -9 0 -16 7 -16 15 0 8 -4 15 -10 15
-5 0 -10 -7 -10 -15 0 -8 -8 -15 -17 -15 -14 0 -13 4 5 23 12 13 19 26 16 30
-3 3 4 3 15 0 16 -4 21 -1 19 13 -2 11 1 20 6 21 14 2 26 26 26 53 0 18 3 21
9 11 6 -9 11 -10 15 -2 4 6 2 11 -4 11 -6 0 -9 8 -6 18 15 50 15 73 -1 32 -22
-61 -40 -78 -56 -56 -8 11 -19 15 -30 10 -15 -6 -14 -9 10 -32 20 -18 24 -27
14 -30 -7 -2 -17 2 -22 9 -5 8 -9 10 -9 6 0 -5 -7 -2 -15 6 -13 13 -22 13 -77
-4 -34 -11 -65 -22 -68 -26 -6 -6 84 5 108 15 10 3 13 1 8 -6 -4 -7 -14 -12
-22 -12 -19 0 -18 -17 4 -29 14 -9 14 -12 4 -19 -8 -5 -14 -13 -15 -18 -3 -14
-25 -13 -38 2 -9 12 -8 14 11 12 13 -2 25 3 28 11 3 11 -1 12 -19 7 -13 -4
-40 -11 -59 -16 -19 -5 -39 -15 -45 -22 -6 -7 -20 -19 -33 -26 -19 -10 -22
-10 -22 4 0 9 8 23 18 30 10 8 12 13 5 14 -18 0 -16 20 2 20 8 0 15 -4 15 -10
0 -5 7 -10 15 -10 8 0 15 3 15 6 0 13 -30 34 -49 34 -12 0 -26 9 -33 20 -17
26 -28 26 -21 0 4 -13 -1 -26 -13 -35 -14 -11 -15 -14 -5 -15 11 0 9 -4 -5
-15 -22 -16 -48 -20 -39 -5 9 14 -17 38 -35 32 -12 -4 -13 -2 -2 9 19 20 14
31 -8 17 -11 -7 -20 -23 -20 -36 0 -12 -10 -38 -22 -57 -21 -32 -34 -40 -64
-36 -13 1 -41 -28 -46 -48 -2 -8 -11 -22 -20 -32 -9 -10 -20 -35 -24 -56 -4
-21 -11 -44 -16 -50 -6 -7 -7 -24 -4 -39 5 -20 3 -27 -13 -31 -11 -3 -22 -10
-24 -16 -7 -18 95 -11 105 7 4 8 16 12 26 9 17 -4 36 10 44 32 1 5 7 9 11 7 5
-1 23 6 40 16 18 11 48 22 67 26 l35 6 -24 -20 c-13 -11 -29 -20 -36 -20 -7 0
-24 -9 -38 -20 -14 -12 -59 -34 -99 -51 -40 -16 -83 -39 -95 -51 -17 -16 -26
-19 -34 -11 -16 16 -59 -5 -59 -27 0 -24 -20 -38 -71 -53 -37 -11 -44 -18 -52
-47 -5 -19 -13 -41 -19 -47 -8 -9 -7 -13 3 -13 8 0 5 -8 -9 -18 -21 -16 -22
-20 -8 -31 9 -7 23 -10 32 -7 20 8 66 -3 59 -15 -3 -4 -22 -6 -42 -4 -34 3
-73 -11 -73 -26 0 -4 9 -5 20 -2 11 3 20 1 20 -5 0 -23 -77 -29 -82 -6 -2 13
-11 9 -38 -17 -20 -19 -42 -46 -50 -62 -15 -30 -63 -70 -113 -93 -62 -30 -92
-47 -117 -68 -16 -14 -20 -15 -11 -3 9 11 9 17 3 17 -6 0 -21 -13 -33 -30 -12
-16 -29 -32 -38 -35 -10 -4 -8 2 7 18 12 13 22 31 22 40 0 9 5 17 10 17 6 0
10 5 10 11 0 7 -12 10 -30 7 -23 -4 -27 -2 -19 9 6 7 15 10 20 7 5 -3 9 0 9 6
0 7 -8 9 -22 4 -13 -4 -32 -7 -43 -6 -34 3 -62 -7 -69 -24 -4 -11 -2 -15 8
-11 8 3 20 -1 26 -9 15 -17 47 -19 52 -2 3 8 9 8 24 0 18 -10 17 -11 -11 -23
-16 -6 -47 -12 -67 -13 -36 -1 -37 -2 -36 -39 0 -20 4 -37 9 -37 12 0 30 36
22 44 -9 8 8 6 32 -4 18 -8 18 -9 2 -9 -10 -1 -20 -8 -23 -16 -3 -8 -14 -17
-25 -20 -14 -5 -19 -15 -19 -43 l1 -37 12 29 c10 22 20 29 47 31 18 2 39 9 44
17 17 22 69 37 82 24 9 -8 6 -17 -10 -35 l-21 -23 22 6 c12 4 24 2 28 -4 3 -5
1 -10 -5 -10 -6 0 -8 -5 -5 -10 5 -8 11 -8 20 0 9 8 15 8 20 0 8 -13 52 -13
60 0 3 6 2 10 -3 10 -11 0 -33 46 -25 54 4 3 13 6 21 6 9 0 24 8 34 17 18 16
18 16 12 -3 -4 -10 -11 -25 -17 -31 -7 -9 -4 -13 8 -13 12 0 15 -5 11 -17 -6
-17 -5 -17 8 0 13 17 42 25 32 8 -4 -5 0 -12 6 -14 8 -3 6 -6 -4 -6 -21 -1
-59 -31 -52 -42 2 -4 14 -5 27 -2 l22 5 -23 -17 c-13 -9 -32 -15 -44 -12 -28
8 -54 -18 -38 -37 9 -12 6 -14 -22 -9 -18 3 -38 9 -44 14 -6 5 -14 6 -18 2 -4
-4 -11 -1 -16 7 -4 7 -18 15 -29 17 -15 2 -21 -3 -21 -17 0 -11 6 -21 13 -21
6 -1 -6 -5 -28 -8 -36 -5 -40 -9 -40 -36 0 -19 -6 -31 -16 -33 -13 -2 -15 3
-11 25 2 15 9 33 14 40 7 8 5 18 -6 28 -14 15 -18 15 -31 1 -18 -18 -20 -62
-2 -69 9 -4 9 -6 0 -6 -9 -1 -13 -23 -13 -76 l0 -75 44 0 c25 0 48 5 51 10 9
15 27 12 20 -3 -4 -6 3 -1 14 13 20 25 20 25 16 2 -4 -22 -2 -22 96 -22 70 0
99 3 99 12 0 9 3 9 12 0 15 -15 578 -17 578 -2 0 6 -4 10 -10 10 -5 0 -10 5
-10 10 0 18 19 10 25 -11 6 -19 13 -21 57 -17 28 3 53 11 57 17 6 9 11 8 21
-4 15 -18 37 -20 42 -3 2 6 19 11 36 10 18 0 30 3 28 7 -9 15 10 30 31 25 20
-5 20 -8 8 -21 -8 -8 -15 -18 -15 -23 0 -5 103 -9 229 -10 175 0 230 3 234 12
4 10 7 11 18 0 7 -6 33 -12 57 -12 35 0 43 3 38 15 -3 8 -1 15 4 15 6 0 10 -7
10 -16 0 -12 9 -14 38 -12 21 2 36 8 35 14 -3 13 34 7 43 -7 3 -5 34 -9 70 -9
47 0 63 3 58 12 -5 8 -2 9 12 4 30 -12 80 -19 69 -9 -5 4 -17 17 -25 27 -13
18 -13 19 0 10 8 -5 25 -9 37 -9 20 -1 22 3 20 45 -1 31 2 44 11 42 13 -2 17
14 4 20 -4 2 0 10 9 19 16 16 17 15 16 -5 0 -11 3 -37 7 -56 5 -19 5 -32 1
-28 -5 4 -14 3 -22 -3 -11 -10 -11 -15 -1 -27 10 -12 10 -16 1 -19 -55 -19 38
-23 482 -23 428 1 495 3 495 15 0 8 -3 14 -7 14 -28 -5 -45 2 -39 16 8 20 14
42 9 33 -9 -16 -21 -7 -27 18 -4 16 -12 24 -21 21 -14 -6 -25 13 -25 44 0 10
7 19 15 19 10 0 15 10 15 28 -1 26 -1 26 -15 8 -15 -19 -15 -19 -15 2 0 15 8
24 26 28 17 4 23 11 20 21 -3 8 -6 20 -6 26 0 7 -5 4 -11 -5 -5 -10 -15 -18
-20 -18 -6 0 -7 5 -3 12 5 8 2 9 -9 5 -11 -4 -17 -1 -17 8 0 8 5 15 10 15 6 0
10 5 10 11 0 5 -4 7 -10 4 -5 -3 -10 0 -10 7 0 9 -3 9 -10 -2 -5 -8 -7 -23 -4
-32 3 -10 1 -18 -5 -18 -6 0 -11 11 -11 25 0 26 -15 34 -23 13 -3 -7 -6 -3 -6
9 -1 23 -38 56 -53 47 -5 -3 -13 -17 -19 -31 -13 -35 -29 -19 -30 30 0 33 -2
38 -9 22 -8 -19 -9 -19 -16 4 -6 20 -9 21 -18 10 -17 -21 -39 -17 -58 11 -15
21 -18 22 -18 6 0 -14 -3 -16 -13 -7 -8 6 -17 8 -20 4 -4 -3 -7 -1 -7 5 0 8
-7 9 -26 2 -22 -9 -25 -8 -20 5 3 9 -4 21 -19 31 -19 12 -23 22 -19 40 4 15 2
24 -5 24 -6 0 -11 13 -11 29 0 17 -5 33 -12 37 -8 5 -9 0 -6 -14 4 -12 2 -25
-3 -28 -5 -3 -9 1 -10 8 0 7 -2 24 -3 38 -2 14 2 29 8 33 8 6 7 10 -1 14 -7 2
-13 11 -13 19 0 21 -17 17 -23 -6 -3 -10 0 -21 7 -23 8 -3 8 -8 -1 -18 -10
-10 -16 -8 -32 10 -16 18 -24 21 -38 12 -16 -9 -16 -10 5 -11 12 0 22 -6 22
-14 0 -20 -38 -30 -55 -16 -8 6 -18 9 -24 6 -5 -3 -11 1 -15 9 -7 20 -26 19
-26 -1 0 -11 -5 -14 -16 -10 -9 3 -18 6 -20 6 -2 0 -4 5 -4 10 0 6 7 10 15 10
8 0 15 5 15 10 0 6 -8 10 -17 10 -14 0 -15 2 -4 9 7 5 11 14 7 20 -5 7 -1 9 8
5 29 -11 17 4 -16 20 -24 12 -33 13 -39 4 -6 -9 -12 -8 -25 3 -16 13 -17 12
-12 -8 4 -13 2 -26 -4 -29 -5 -3 -7 -17 -4 -30 6 -24 5 -24 -41 -21 -27 2 -59
-2 -75 -10 -27 -14 -48 -11 -48 7 0 14 33 21 42 8 6 -10 8 -10 9 2 1 8 1 20 0
26 -1 6 17 30 39 54 22 24 38 50 36 56 -3 7 0 15 7 18 7 2 2 5 -10 5 -13 1
-23 7 -23 14 -1 6 -6 2 -13 -10 -9 -16 -16 -20 -27 -13 -13 9 -13 10 0 10 10
0 11 3 4 8 -6 4 -16 17 -23 30 -13 24 -61 32 -61 9 0 -7 -13 -20 -29 -30 -33
-20 -41 -21 -41 -7 0 6 9 10 21 10 11 0 17 4 14 10 -6 10 19 67 29 63 3 -2 13
-3 21 -3 13 0 13 2 3 14 -13 14 -17 14 -53 0 -38 -14 -53 -14 -59 1 -3 9 0 15
8 15 10 0 12 7 9 21 -6 20 -7 20 -18 6 -9 -12 -15 -13 -23 -5 -8 8 -15 8 -26
-1 -8 -7 -19 -10 -24 -7 -5 3 -20 -8 -32 -24 -26 -34 -40 -39 -33 -11 3 10 0
22 -6 25 -6 4 -11 1 -11 -6 -1 -7 -7 -2 -15 12 -10 17 -14 20 -15 9 0 -23 -26
-70 -33 -62 -12 11 -7 40 8 53 8 7 12 16 9 21 -3 5 0 9 5 9 6 0 11 4 11 8 0
13 -34 8 -59 -10 -22 -15 -22 -17 -4 -27 15 -10 13 -11 -13 -6 -44 8 -63 -16
-35 -44 12 -12 16 -23 10 -26 -5 -4 -7 -11 -4 -16 3 -5 -1 -6 -10 -3 -9 4 -14
12 -12 18 8 21 -13 47 -34 41 -26 -8 -36 19 -15 40 15 16 21 9 17 -17 0 -5 4
-8 9 -8 6 0 10 9 10 19 0 22 16 37 22 20 2 -6 14 -1 27 11 19 16 22 23 13 32
-7 7 -12 8 -12 3 0 -6 -34 -10 -75 -10 -41 0 -75 -3 -75 -7 0 -5 -7 -8 -15 -8
-8 0 -15 -4 -15 -10 0 -5 -5 -10 -11 -10 -7 0 -9 9 -6 21 4 15 2 19 -9 15 -8
-3 -14 -2 -14 2 0 5 23 9 50 9 48 1 80 15 80 35 0 6 -5 6 -14 -1 -7 -6 -41
-13 -74 -15 -34 -2 -68 -8 -75 -15 -8 -6 -35 -14 -61 -17 -26 -4 -49 -11 -53
-17 -4 -6 0 -8 10 -4 16 6 16 5 1 -18 -9 -14 -25 -25 -35 -25 -11 0 -19 -6
-19 -12 0 -9 -4 -8 -10 2 -9 13 -10 13 -11 0 -1 -8 -3 -19 -4 -25 -2 -5 -4
-17 -5 -25 -1 -11 -4 -9 -9 5 -7 18 -9 17 -23 -10 -8 -17 -20 -29 -26 -28 -7
2 -12 -2 -12 -8 0 -5 -4 -8 -8 -5 -4 2 -14 0 -22 -5 -12 -8 -12 -12 -2 -16 17
-7 15 -24 -3 -17 -10 4 -15 0 -15 -15 0 -18 -2 -20 -14 -9 -9 9 -11 20 -5 36
8 20 7 23 -11 17 -11 -3 -20 -2 -20 4 0 5 -14 11 -32 13 -17 2 -33 9 -36 16
-3 9 3 11 24 6 19 -5 25 -4 20 5 -4 6 -10 9 -14 7 -4 -2 -16 2 -26 10 -16 11
-17 16 -6 29 7 8 8 15 3 15 -5 0 -16 -12 -23 -26 -13 -23 -12 -30 3 -56 10
-17 16 -33 13 -35 -8 -8 -26 7 -26 22 0 16 -31 29 -40 16 -3 -6 -13 -3 -23 9
-10 12 -23 17 -32 13 -11 -4 -18 1 -22 16 -3 11 -9 21 -14 21 -5 0 -6 -12 -3
-27 6 -20 4 -25 -7 -21 -18 7 -43 -10 -52 -35 -4 -11 -12 -15 -18 -11 -7 4
-18 -1 -26 -12 -7 -10 -27 -19 -44 -20 -30 -2 -30 -1 -12 19 61 71 168 147
207 147 9 0 29 8 43 17 26 17 27 17 20 1 -11 -29 36 -34 78 -8 35 21 49 14 20
-10 -9 -7 -13 -15 -10 -18 3 -3 -2 -14 -12 -24 -18 -20 -7 -23 30 -9 14 6 29
6 38 0 11 -7 9 -10 -8 -15 -13 -4 -23 -11 -23 -16 0 -5 5 -6 10 -3 5 3 10 -1
10 -9 0 -19 28 -21 67 -4 15 6 34 10 41 9 6 -1 12 3 12 9 0 5 -4 11 -10 11 -5
1 -15 2 -22 3 -6 0 -12 13 -12 27 -1 20 3 27 19 27 23 1 67 8 75 12 8 5 23 8
44 9 15 1 16 4 6 16 -9 11 -17 12 -32 4 -11 -6 -22 -8 -24 -6 -6 5 50 47 62
47 4 0 16 7 25 16 10 9 30 16 44 17 19 0 23 3 15 12 -5 6 -6 15 -2 20 4 4 3 6
-3 3 -5 -2 -25 -10 -42 -17 -18 -7 -33 -17 -33 -21 0 -4 -7 -10 -15 -14 -29
-11 -15 14 25 43 39 28 39 28 16 39 -13 6 -35 8 -47 6 -22 -5 -23 -4 -6 9 9 8
17 20 17 28 0 11 -2 11 -10 -1 -7 -11 -10 -12 -10 -2 0 18 119 142 136 142 14
0 40 39 36 54 -2 4 3 15 10 23 10 13 13 13 19 -4 5 -16 12 -12 49 27 24 25 40
40 37 33 -4 -6 -3 -14 2 -18 6 -3 15 3 21 14 6 12 16 18 25 15 8 -4 15 -1 15
5 0 17 56 13 70 -4 12 -14 15 -14 30 0 12 11 20 13 25 6 9 -15 16 -14 45 8 20
16 22 21 11 35 -11 14 -11 16 3 16 9 0 16 5 16 10 0 6 -15 9 -34 7 -18 -2 -41
2 -51 10 -17 12 -17 13 -2 13 26 0 20 17 -8 24 -14 4 -25 13 -25 21 0 12 6 11
30 -7 17 -12 30 -28 30 -35 0 -8 10 -13 28 -11 17 1 46 -11 81 -35 34 -24 60
-35 70 -31 9 4 26 9 39 11 12 3 22 9 22 13 0 9 -58 24 -84 22 -15 -2 -17 0 -6
13 10 12 9 16 -4 21 -29 11 -17 23 19 17 20 -3 41 -1 49 6 14 12 46 5 46 -9 0
-17 49 -5 64 15 8 11 18 16 22 12 12 -11 -16 -35 -58 -49 -29 -10 -35 -16 -28
-28 7 -10 12 -12 18 -4 4 6 17 14 30 18 17 6 22 3 22 -9 0 -11 -6 -15 -19 -10
-13 4 -20 0 -24 -15 -3 -11 -10 -20 -17 -20 -6 0 -8 5 -5 10 3 6 2 10 -2 10
-11 0 -33 -21 -33 -32 0 -11 63 3 81 18 21 19 27 18 25 -3 -2 -27 -31 -43 -72
-41 -20 2 -39 -1 -40 -7 -5 -15 42 -34 69 -28 18 4 19 3 7 -6 -13 -9 -11 -11
7 -11 33 0 39 -20 6 -21 -15 -1 -36 0 -47 1 -25 2 -16 -22 15 -38 13 -7 35
-10 49 -7 24 5 24 5 6 -10 -39 -30 -5 -14 81 39 50 31 87 60 87 69 -1 8 5 13
15 11 9 -2 27 5 41 16 23 18 23 20 5 20 -11 0 -31 13 -44 29 -23 27 -51 32
-51 9 0 -6 7 -8 15 -5 15 6 59 -45 48 -57 -10 -10 -33 15 -33 37 0 16 -3 18
-12 9 -7 -7 -19 -12 -29 -12 -13 0 -16 10 -16 55 0 30 4 52 9 49 10 -7 88 44
88 57 0 13 -17 11 -32 -4 -7 -7 -35 -13 -62 -13 -29 0 -51 -5 -54 -12 -2 -7 2
-10 12 -6 12 4 16 0 16 -16 0 -17 -4 -20 -20 -15 -14 4 -20 2 -20 -8 0 -8 -7
-18 -16 -21 -24 -9 -26 -8 -12 17 23 42 5 67 -49 67 -17 0 -35 4 -38 10 -4 6
-16 3 -31 -7 -22 -14 -27 -14 -35 -2 -7 12 -11 12 -18 1 -6 -11 -10 -10 -15 4
-4 10 -1 21 5 25 7 4 8 12 3 20 -7 12 -5 12 9 0 10 -8 27 -11 42 -7 26 7 32
20 15 31 -18 11 -11 27 10 22 29 -7 25 2 -7 15 l-28 12 33 4 c20 2 32 8 29 15
-2 7 -13 11 -24 10 -10 -1 -25 7 -32 18 -11 19 -10 20 9 14 18 -6 21 -3 18 12
-2 10 -14 19 -28 21 -14 2 -36 13 -49 25 l-25 22 19 -30z m-11 -141 c3 -9 2
-12 -5 -8 -6 3 -23 10 -37 14 l-27 8 31 1 c20 1 34 -5 38 -15z m-14 -75 c0 -6
-4 -7 -10 -4 -5 3 -10 11 -10 16 0 6 5 7 10 4 6 -3 10 -11 10 -16z m55 -49 c3
-5 1 -10 -4 -10 -6 0 -11 5 -11 10 0 6 2 10 4 10 3 0 8 -4 11 -10z m-377 -79
c-7 -12 -23 -21 -37 -21 -13 0 -21 3 -17 8 4 4 13 7 19 7 7 0 12 5 12 10 0 20
17 37 27 27 6 -6 5 -17 -4 -31z m7 -42 c4 -6 4 -13 0 -17 -4 -4 -10 -1 -12 6
-4 10 -8 10 -19 1 -8 -7 -18 -9 -21 -5 -8 8 15 26 34 26 6 0 15 -5 18 -11z
m-330 -57 c-3 -3 -16 -6 -29 -7 -18 0 -22 3 -15 11 5 7 19 10 30 7 11 -3 17
-8 14 -11z m-85 -32 c0 -5 -5 -10 -11 -10 -5 0 -7 5 -4 10 3 6 8 10 11 10 2 0
4 -4 4 -10z m160 -30 c0 -5 -4 -10 -10 -10 -5 0 -10 -5 -10 -11 0 -5 5 -7 10
-4 15 9 12 -9 -6 -31 -11 -13 -17 -15 -20 -6 -8 18 -37 15 -30 -3 4 -11 -5
-21 -30 -32 -20 -10 -33 -22 -30 -30 3 -7 -2 -19 -10 -25 -8 -7 -25 -23 -36
-35 -14 -15 -33 -23 -55 -23 -18 0 -33 -5 -33 -11 0 -7 11 -9 30 -5 30 5 30 5
16 -15 -17 -25 -66 -53 -66 -38 0 13 -40 1 -63 -19 -9 -8 -19 -13 -22 -10 -3
3 15 24 40 46 25 23 45 45 44 49 0 4 21 19 47 32 27 13 51 29 53 34 3 9 33 39
83 81 9 8 26 19 37 25 11 6 18 17 15 25 -5 12 7 20 39 25 4 0 7 -3 7 -9z m790
-10 c0 -5 -15 -10 -32 -9 -28 0 -30 2 -13 9 28 12 45 12 45 0z m-920 -32 c0
-12 -25 -15 -43 -6 -14 7 -16 12 -7 23 9 11 16 12 31 2 10 -6 19 -15 19 -19z
m40 18 c0 -2 -7 -6 -15 -10 -8 -3 -15 -1 -15 4 0 6 7 10 15 10 8 0 15 -2 15
-4z m-110 -76 c0 -5 -5 -10 -11 -10 -5 0 -7 5 -4 10 3 6 8 10 11 10 2 0 4 -4
4 -10z m117 -150 c-3 -13 1 -21 14 -25 25 -8 24 -22 -1 -35 -11 -6 -20 -7 -20
-3 0 14 -61 8 -73 -7 -20 -26 -118 -15 -102 11 4 5 21 9 39 9 19 0 40 7 47 17
18 21 70 53 88 53 8 0 11 -7 8 -20z m-114 -10 c-3 -11 -9 -20 -15 -20 -5 0 -4
9 2 20 6 11 12 20 14 20 2 0 2 -9 -1 -20z m-43 -100 c0 -5 -7 -10 -16 -10 -8
0 -12 5 -9 10 3 6 10 10 16 10 5 0 9 -4 9 -10z m490 -24 c0 -3 -4 -8 -10 -11
-5 -3 -10 -1 -10 4 0 6 5 11 10 11 6 0 10 -2 10 -4z m-842 -18 c-3 -7 -18 -14
-34 -15 -27 -2 -28 -1 -10 13 24 17 49 18 44 2z m782 3 c0 -5 3 -16 6 -25 3
-9 1 -16 -5 -16 -6 0 -11 7 -11 15 0 8 -4 15 -10 15 -5 0 -10 -7 -10 -16 0
-18 -38 -53 -57 -54 -9 0 -7 6 5 18 9 11 20 17 24 15 4 -2 10 7 14 19 9 31 44
53 44 29z m-879 -46 c0 -6 -10 -12 -23 -13 -19 -4 -20 -2 -9 12 15 17 33 18
32 1z m489 5 c0 -5 -5 -10 -11 -10 -5 0 -7 5 -4 10 3 6 8 10 11 10 2 0 4 -4 4
-10z m238 -24 c4 -18 -13 -36 -33 -36 -5 1 -2 5 8 11 9 5 17 16 17 23 0 14
-27 15 -48 2 -6 -4 -12 -5 -12 -2 0 2 -2 11 -5 19 -5 11 2 13 32 8 26 -4 39
-12 41 -25z m537 24 c8 -13 -5 -13 -25 0 -13 8 -13 10 2 10 9 0 20 -4 23 -10z
m-213 -30 c3 -16 1 -30 -4 -30 -4 0 -8 14 -8 30 0 17 2 30 4 30 2 0 6 -13 8
-30z m-196 -25 c-17 -25 -36 -33 -36 -15 0 6 6 10 14 10 8 0 17 12 21 28 4 15
10 21 12 14 3 -7 -2 -24 -11 -37z m-896 12 c-14 -8 -27 -12 -30 -10 -7 6 23
23 40 23 8 0 4 -6 -10 -13z m970 -21 c0 -8 -4 -18 -10 -21 -5 -3 -10 3 -10 14
0 12 5 21 10 21 6 0 10 -6 10 -14z m-695 -32 c23 -13 34 -46 13 -42 -7 2 -12
-4 -10 -12 3 -12 1 -12 -9 -3 -10 10 -9 15 1 28 7 8 9 16 4 16 -5 1 -13 2 -19
4 -5 1 -16 3 -24 3 -11 2 -11 5 -1 17 7 9 16 12 19 8 3 -4 15 -13 26 -19z
m1046 -7 c-1 -4 -1 -14 -1 -23 0 -24 -23 -11 -31 18 -6 23 -5 26 13 19 11 -4
19 -10 19 -14z m-969 -21 c-2 -15 2 -34 8 -41 8 -10 8 -20 2 -32 -9 -14 -12
-11 -20 22 -13 57 -13 87 1 82 7 -2 11 -16 9 -31z m96 9 c-3 -3 -9 2 -12 12
-6 14 -5 15 5 6 7 -7 10 -15 7 -18z m391 13 c-3 -25 14 -78 25 -78 6 0 11 -11
11 -25 0 -20 -5 -25 -24 -25 -18 0 -22 4 -16 18 10 24 5 67 -10 92 -3 6 -3 15
0 20 9 14 16 13 14 -2z m81 -5 c0 -2 -6 -11 -14 -18 -12 -12 -14 -11 -12 9 0
14 6 22 14 19 6 -3 12 -7 12 -10z m350 3 c0 -17 -14 -29 -23 -20 -8 8 3 34 14
34 5 0 9 -6 9 -14z m-1066 -11 c-7 -16 -24 -21 -24 -6 0 8 7 13 27 20 1 1 0
-6 -3 -14z m1276 5 c0 -5 -5 -10 -11 -10 -5 0 -7 5 -4 10 3 6 8 10 11 10 2 0
4 -4 4 -10z m-522 -20 c-15 -23 -17 -23 -38 -10 -12 8 -11 10 8 10 12 0 22 5
22 10 0 6 5 10 10 10 6 0 5 -8 -2 -20z m87 0 c3 -5 -4 -10 -16 -10 -16 0 -19
-3 -11 -13 7 -9 8 -17 1 -27 -8 -11 -12 -12 -16 -2 -2 6 -14 12 -25 12 -19 0
-19 1 3 25 25 26 53 32 64 15z m-820 -30 c-5 -8 -11 -8 -17 -2 -6 6 -7 16 -3
22 5 8 11 8 17 2 6 -6 7 -16 3 -22z m183 14 c6 3 13 2 16 -3 3 -5 -8 -11 -24
-13 -19 -3 -30 0 -30 7 0 18 13 27 21 14 4 -6 11 -9 17 -5z m1042 -4 c0 -5 -4
-10 -10 -10 -5 0 -10 5 -10 10 0 6 5 10 10 10 6 0 10 -4 10 -10z m-1312 -18
c6 -18 -15 -14 -22 4 -4 10 -1 14 6 12 6 -2 14 -10 16 -16z m592 -11 c-4 -16
-5 -33 -2 -37 4 -4 2 -4 -5 0 -7 4 -10 13 -8 21 3 8 7 22 10 30 9 28 14 15 5
-14z m-240 9 c0 -12 -30 -33 -37 -26 -3 3 -1 6 6 6 7 0 11 6 8 13 -3 8 1 14 9
14 8 0 14 -4 14 -7z m-320 -10 c0 -5 -5 -10 -11 -10 -5 0 -7 5 -4 10 3 6 8 10
11 10 2 0 4 -4 4 -10z m155 0 c3 -5 -3 -10 -14 -10 -12 0 -21 5 -21 10 0 6 6
10 14 10 8 0 18 -4 21 -10z m375 -5 c-6 -8 -9 -19 -6 -24 4 -5 2 -12 -4 -16
-11 -7 -14 37 -3 48 13 14 25 7 13 -8z m600 5 c0 -5 -7 -10 -16 -10 -8 0 -12
5 -9 10 3 6 10 10 16 10 5 0 9 -4 9 -10z m85 -10 c-5 -14 -2 -20 9 -20 9 0 16
5 16 10 0 6 5 10 10 10 23 0 -9 -33 -34 -36 -28 -3 -36 22 -14 44 17 17 20 15
13 -8z m-1245 -12 c0 -5 8 -7 19 -3 15 4 19 0 19 -20 0 -18 -6 -25 -20 -25
-19 0 -60 39 -53 51 6 9 35 7 35 -3z m114 -8 c-22 -9 -29 -6 -20 9 4 6 14 7
23 4 15 -6 14 -7 -3 -13z m1425 -32 c-1 -28 -3 -34 -6 -18 -3 14 -9 30 -14 37
-9 10 -4 15 19 22 1 1 1 -18 1 -41z m-1834 22 c-3 -5 -11 -10 -16 -10 -6 0 -7
5 -4 10 3 6 11 10 16 10 6 0 7 -4 4 -10z m406 -35 c1 6 1 13 0 18 0 4 10 7 24
7 29 0 33 -15 8 -29 -24 -13 -10 -25 14 -13 16 9 18 6 18 -24 0 -39 -3 -42
-13 -13 -8 20 -10 20 -24 5 -9 -9 -24 -13 -32 -10 -19 7 -21 24 -4 24 7 0 6 5
-3 13 -8 6 -21 26 -27 42 l-12 30 25 -30 c14 -16 25 -25 26 -20z m925 30 l29
-15 -27 0 c-16 0 -28 -4 -28 -9 0 -5 -8 -7 -19 -4 -11 3 -21 -2 -24 -11 -7
-18 -37 -22 -37 -6 0 6 7 13 15 16 8 4 13 10 10 14 -6 9 22 29 41 30 7 0 25
-7 40 -15z m-736 -7 c0 -19 -18 -43 -25 -36 -9 9 4 48 16 48 5 0 9 -6 9 -12z
m220 -4 c0 -8 6 -14 14 -14 11 0 10 -9 -6 -42 -11 -22 -23 -37 -26 -31 -4 5
-15 12 -24 16 -24 8 -23 26 0 20 10 -2 24 3 31 11 9 11 10 16 2 16 -6 0 -11
-4 -11 -10 0 -14 -27 -12 -34 3 -3 8 -10 6 -22 -8 -10 -13 -15 -14 -12 -5 2 8
14 19 26 25 12 5 22 14 22 20 0 6 9 11 20 12 11 1 20 -4 20 -13z m98 -9 c-6
-14 -13 -23 -15 -21 -5 5 15 46 22 46 3 0 -1 -11 -7 -25z m542 21 c0 -2 -7 -6
-15 -10 -8 -3 -15 -1 -15 4 0 6 7 10 15 10 8 0 15 -2 15 -4z m-1180 -27 c0 -5
12 -15 28 -23 l27 -15 -28 -1 c-16 0 -30 6 -34 16 -4 12 -9 10 -24 -13 -20
-30 -26 -25 -9 7 8 16 8 18 -5 14 -8 -4 -15 -10 -15 -15 0 -5 -4 -9 -9 -9 -6
0 -9 9 -8 20 1 12 8 20 19 20 10 0 18 4 18 9 0 5 9 7 20 4 11 -3 20 -9 20 -14z
m917 -10 c-11 -18 -12 -18 -19 -1 -11 27 -9 30 11 25 17 -4 18 -8 8 -24z
m-637 11 c0 -5 -4 -10 -10 -10 -5 0 -10 5 -10 10 0 6 5 10 10 10 6 0 10 -4 10
-10z m586 -17 c-10 -10 -19 5 -10 18 6 11 8 11 12 0 2 -7 1 -15 -2 -18z m-466
5 c0 -4 -9 -8 -21 -8 -11 0 -18 4 -15 8 3 5 12 9 21 9 8 0 15 -4 15 -9z m290
8 c0 -3 -4 -8 -10 -11 -5 -3 -10 -1 -10 4 0 6 5 11 10 11 6 0 10 -2 10 -4z
m396 -15 c0 -11 -4 -17 -8 -15 -4 3 -8 12 -8 20 0 8 4 14 8 14 4 0 8 -9 8 -19z
m121 -3 c-3 -8 -6 -5 -6 6 -1 11 2 17 5 13 3 -3 4 -12 1 -19z m43 7 c-12 -15
-30 -12 -30 6 0 5 10 9 21 9 18 0 19 -2 9 -15z m-1343 -11 c-3 -3 -12 -4 -19
-1 -8 3 -5 6 6 6 11 1 17 -2 13 -5z m189 -10 c-3 -9 -6 -18 -6 -20 0 -3 -4 -3
-10 1 -11 7 -2 35 12 35 6 0 7 -7 4 -16z m248 -16 c-3 -5 -12 -4 -20 3 -7 6
-11 15 -8 21 3 5 12 4 20 -3 7 -6 11 -15 8 -21z m-44 -3 c0 -13 -8 -29 -19
-34 -17 -10 -18 -9 -3 24 19 42 22 43 22 10z m311 12 c-1 -12 -15 -9 -19 4 -3
6 1 10 8 8 6 -3 11 -8 11 -12z m738 -24 c9 -7 25 -13 35 -13 46 0 0 -13 -56
-16 -35 -1 -66 -3 -70 -3 -11 -1 -10 -31 1 -31 5 0 12 8 14 18 4 14 6 14 12
-5 4 -12 14 -24 24 -26 9 -2 -3 -4 -27 -4 -24 0 -48 -5 -55 -12 -6 -6 -17 -11
-25 -11 -17 0 -50 32 -37 37 6 2 44 26 85 53 49 32 76 46 79 37 2 -6 11 -17
20 -24z m-1439 17 c0 -5 -5 -10 -11 -10 -5 0 -7 5 -4 10 3 6 8 10 11 10 2 0 4
-4 4 -10z m508 -3 c13 5 14 3 5 -7 -13 -14 -33 -5 -32 13 0 9 2 9 5 0 3 -7 13
-9 22 -6z m452 3 c0 -5 -5 -10 -11 -10 -5 0 -7 5 -4 10 3 6 8 10 11 10 2 0 4
-4 4 -10z m920 1 c0 -5 -6 -13 -13 -19 -10 -8 -13 -6 -13 9 0 10 6 19 13 19 7
0 13 -4 13 -9z m-686 -17 c3 -8 10 -12 16 -9 6 3 17 -1 26 -9 14 -15 13 -16
-8 -12 -13 3 -25 5 -28 6 -3 1 -17 1 -31 0 -16 -1 -29 5 -32 15 -6 13 -3 14
15 4 18 -10 20 -9 15 5 -4 10 -1 16 7 16 8 0 17 -7 20 -16z m-356 -4 l27 -1
-23 -12 c-17 -10 -20 -15 -10 -25 9 -9 8 -12 -5 -12 -10 0 -22 -12 -27 -26
-11 -28 -37 -28 -32 1 2 9 -4 26 -14 36 -20 22 -7 25 20 4 26 -20 35 -19 31 3
-1 9 -9 16 -18 16 -10 -1 -13 4 -10 13 3 8 12 12 20 9 8 -3 27 -6 41 -6z m279
-12 c-3 -8 -6 -5 -6 6 -1 11 2 17 5 13 3 -3 4 -12 1 -19z m582 1 c-14 -8 -29
-3 -29 11 0 4 9 6 21 3 15 -4 17 -8 8 -14z m-1509 7 c0 -9 -30 -14 -35 -6 -4
6 3 10 14 10 12 0 21 -2 21 -4z m1550 -6 c0 -5 -5 -10 -11 -10 -5 0 -7 5 -4
10 3 6 8 10 11 10 2 0 4 -4 4 -10z m-2005 -10 c3 -5 1 -10 -4 -10 -6 0 -11 5
-11 10 0 6 2 10 4 10 3 0 8 -4 11 -10z m268 3 c-7 -2 -19 -2 -25 0 -7 3 -2 5
12 5 14 0 19 -2 13 -5z m65 -24 c-6 -16 -12 -29 -13 -27 -6 6 8 58 16 58 4 0
3 -14 -3 -31z m436 22 c20 6 32 5 37 -3 8 -13 48 -19 64 -9 19 11 65 6 65 -7
0 -9 -7 -11 -19 -7 -14 4 -23 -1 -33 -17 -7 -13 -11 -26 -10 -30 1 -4 -7 -12
-18 -18 -11 -6 -18 -15 -15 -21 4 -5 2 -9 -4 -9 -5 0 -11 5 -13 12 -3 7 -7 6
-11 -5 -5 -13 -1 -17 18 -17 14 0 25 -4 25 -10 0 -5 -12 -10 -26 -10 -18 0
-28 6 -31 20 -6 21 -24 23 -30 3 -2 -6 6 -13 18 -16 12 -3 18 -10 14 -16 -3
-6 -11 -9 -16 -6 -5 3 -6 0 -3 -8 3 -8 1 -18 -4 -21 -5 -3 -13 14 -16 39 -4
24 -11 47 -17 50 -5 4 -9 2 -9 -3 0 -4 -8 -17 -17 -28 -10 -10 -18 -30 -18
-43 0 -15 -6 -25 -17 -27 -20 -3 -24 12 -5 19 15 5 8 14 -18 19 -12 2 -21 -3
-23 -16 -3 -13 0 -16 10 -11 10 6 10 5 1 -5 -14 -15 -29 -7 -36 19 -3 14 -1
18 9 14 10 -3 12 0 8 10 -6 17 12 32 21 17 3 -5 12 -10 18 -10 7 0 4 5 -5 11
-25 14 -23 32 2 24 22 -7 26 5 8 23 -9 9 -6 12 13 12 14 0 34 6 44 14 18 13
18 14 -5 46 -19 27 -20 31 -5 23 11 -7 30 -7 49 -2z m391 -38 c4 -17 1 -31 -9
-42 -15 -14 -16 -13 -17 4 -1 11 -3 32 -4 47 -5 35 20 27 30 -9z m-555 23 c0
-2 -7 -6 -15 -10 -8 -3 -15 -1 -15 4 0 6 7 10 15 10 8 0 15 -2 15 -4z m104
-39 c7 -6 6 -7 -4 -4 -23 7 -60 -10 -55 -26 6 -15 -41 -64 -52 -54 -3 4 -12
-2 -20 -13 -8 -11 -23 -20 -33 -20 -10 0 -22 -5 -26 -11 -4 -8 -9 -7 -15 2
-13 21 -11 33 5 20 10 -9 15 -8 20 4 3 8 1 15 -5 15 -6 0 3 14 20 31 17 17 31
34 31 38 0 12 58 41 72 36 8 -3 21 2 29 11 13 16 14 16 18 -2 2 -10 8 -23 15
-27z m-204 18 c0 -13 4 -14 21 -4 14 7 25 7 31 1 6 -6 -4 -12 -28 -16 -38 -8
-62 4 -50 23 10 16 26 13 26 -4z m745 5 c3 -5 1 -10 -4 -10 -6 0 -11 5 -11 10
0 6 2 10 4 10 3 0 8 -4 11 -10z m207 -7 c-6 -3 -10 -8 -7 -13 3 -4 -2 -10 -10
-14 -8 -3 -15 -1 -15 4 0 14 32 42 39 34 3 -4 0 -9 -7 -11z m-1468 -3 c9 7 19
10 22 8 8 -8 -25 -38 -42 -38 -8 0 -14 -9 -14 -20 0 -11 -6 -20 -13 -20 -24 0
-26 11 -6 31 10 10 19 27 19 37 0 14 2 14 9 3 8 -12 12 -13 25 -1z m101 -12
c7 -7 2 -8 -15 -3 -14 4 -29 12 -35 17 -7 7 -2 8 15 3 14 -4 30 -12 35 -17z
m883 15 c-14 -3 -16 -9 -8 -22 5 -10 6 -21 3 -25 -3 -3 -1 -6 5 -6 7 0 12 -4
12 -10 0 -5 -7 -10 -17 -10 -15 0 -15 -2 1 -19 17 -19 17 -19 -16 -14 -18 3
-44 11 -58 19 -25 13 -25 13 -2 14 14 0 22 6 22 18 1 15 2 15 15 -2 15 -19 15
-19 15 1 0 12 -6 23 -12 26 -20 6 10 37 36 36 17 -1 17 -2 4 -6z m-563 -13 c4
-6 1 -9 -7 -8 -7 2 -12 -4 -10 -14 1 -9 -2 -19 -8 -23 -5 -3 -10 -15 -10 -26
0 -11 -5 -17 -10 -14 -6 4 -8 11 -5 16 4 5 1 9 -4 9 -17 0 -13 27 4 34 8 3 15
12 15 21 0 17 25 21 35 5z m35 -20 c-6 -12 -14 -19 -17 -17 -2 3 1 15 7 27 6
12 14 19 17 17 2 -3 -1 -15 -7 -27z m950 9 c14 -4 13 -9 -3 -39 -10 -19 -16
-27 -12 -16 4 15 1 17 -17 12 -13 -3 -26 -6 -30 -6 -5 0 -8 -4 -8 -10 0 -5 7
-7 15 -4 8 4 15 2 15 -4 0 -5 -13 -12 -30 -14 -33 -5 -38 6 -15 36 8 10 12 23
8 28 -3 6 4 5 16 -1 22 -12 41 -7 41 11 0 7 -4 7 -13 -1 -8 -6 -17 -8 -20 -4
-4 3 1 12 11 19 9 7 19 9 22 4 3 -4 12 -9 20 -11z m-1083 -5 c2 -6 -16 -9 -49
-8 -88 4 -85 3 -69 13 20 13 113 9 118 -5z m973 12 c0 -3 -4 -8 -10 -11 -5 -3
-10 -1 -10 4 0 6 5 11 10 11 6 0 10 -2 10 -4z m-163 -22 c3 -9 1 -19 -5 -23
-6 -4 -7 -12 -3 -20 7 -10 13 -10 29 -2 32 17 47 13 62 -14 11 -21 10 -31 -4
-70 -10 -24 -22 -48 -28 -52 -8 -4 -9 0 -5 11 4 10 1 19 -9 23 -22 8 -25 0
-13 -36 8 -24 8 -35 -1 -46 -7 -9 -15 -13 -18 -10 -3 2 1 11 8 20 11 13 9 15
-14 15 -31 0 -31 3 -9 37 17 26 17 27 0 20 -10 -4 -23 -7 -28 -7 -6 0 -8 -4
-4 -9 8 -14 -7 -19 -35 -12 l-24 7 32 23 c18 12 45 23 62 23 33 1 42 18 10 18
-11 0 -20 5 -20 11 0 7 10 9 25 7 17 -4 25 -1 25 8 0 8 -8 14 -17 14 -25 1
-72 40 -55 47 6 2 12 11 12 19 0 19 19 18 27 -2z m83 -10 c0 -16 -2 -16 -24
-8 -13 5 -14 9 -5 20 13 16 29 9 29 -12z m563 6 c-3 -11 -7 -20 -9 -20 -2 0
-4 9 -4 20 0 11 4 20 9 20 5 0 7 -9 4 -20z m-1843 0 c-20 -13 -33 -13 -25 0 3
6 14 10 23 10 15 0 15 -2 2 -10z m180 2 c0 -4 -9 -8 -20 -8 -11 0 -20 4 -20 8
0 4 9 8 20 8 11 0 20 -4 20 -8z m45 -12 c-3 -5 -13 -10 -21 -10 -8 0 -12 5 -9
10 3 6 13 10 21 10 8 0 12 -4 9 -10z m311 -27 c-11 -11 -19 6 -11 24 8 17 8
17 12 0 3 -10 2 -21 -1 -24z m1064 27 c0 -5 -5 -10 -11 -10 -5 0 -7 5 -4 10 3
6 8 10 11 10 2 0 4 -4 4 -10z m-1258 -22 c-9 -9 -17 -8 -34 1 -13 6 -16 10 -7
7 9 -2 22 0 30 4 18 12 26 3 11 -12z m768 13 c0 -6 -4 -13 -10 -16 -5 -3 -10
1 -10 9 0 9 5 16 10 16 6 0 10 -4 10 -9z m424 -12 c-7 -11 -34 -12 -34 -1 0
14 11 21 26 15 8 -3 11 -9 8 -14z m434 2 c3 -8 -1 -12 -9 -9 -7 2 -15 10 -17
17 -3 8 1 12 9 9 7 -2 15 -10 17 -17z m-1988 -1 c0 -5 -4 -10 -9 -10 -5 0 -16
-3 -25 -6 -9 -3 -16 -1 -16 6 0 6 5 8 10 5 6 -3 10 -1 10 4 0 6 7 11 15 11 8
0 15 -4 15 -10z m500 0 c0 -5 -5 -10 -11 -10 -5 0 -7 5 -4 10 3 6 8 10 11 10
2 0 4 -4 4 -10z m840 -5 c0 -8 -2 -15 -4 -15 -2 0 -6 7 -10 15 -3 8 -1 15 4
15 6 0 10 -7 10 -15z m-1012 -36 c-10 -6 -18 -16 -18 -23 0 -8 -10 -16 -22
-19 -18 -5 -23 -13 -22 -35 0 -16 4 -35 9 -42 6 -10 3 -12 -16 -6 -13 3 -36 9
-51 12 -14 4 -28 14 -31 24 -4 14 -1 17 12 12 9 -3 19 -10 23 -16 5 -7 8 -5 8
4 0 9 -6 22 -12 29 -11 10 -9 12 7 9 11 -1 20 3 21 10 1 6 2 17 3 23 0 5 6 7
12 3 8 -4 7 -9 -2 -15 -10 -6 -8 -9 7 -9 22 0 42 40 21 40 -7 1 2 7 18 14 34
15 62 2 33 -15z m1908 15 c17 -14 17 -15 1 -10 -10 3 -23 6 -28 6 -5 0 -9 5
-9 10 0 14 13 12 36 -6z m-2146 -3 c0 -5 -6 -14 -14 -20 -12 -10 -13 -8 -9 8
5 21 23 30 23 12z m914 -23 c7 -5 4 -8 -6 -8 -20 0 -24 -16 -6 -22 6 -2 9 -10
6 -18 -2 -8 -10 0 -20 19 -11 25 -17 29 -21 17 -7 -19 -37 -22 -37 -3 1 17 64
48 69 33 2 -6 9 -14 15 -18z m-1052 0 c-7 -7 -12 -8 -12 -2 0 14 12 26 19 19
2 -3 -1 -11 -7 -17z m484 -5 c-7 -7 -26 7 -26 19 0 6 6 6 15 -2 9 -7 13 -15
11 -17z m709 -15 c5 -20 2 -29 -12 -36 -25 -14 -56 3 -34 17 8 5 11 16 8 24
-6 17 13 41 24 30 4 -5 11 -20 14 -35z m304 16 c-43 -16 -49 -16 -49 -4 0 6
11 10 24 10 14 0 28 5 31 10 4 6 11 7 18 3 6 -4 -3 -12 -24 -19z m741 17 c0
-10 -42 -23 -49 -15 -7 6 20 24 37 24 6 0 12 -4 12 -9z m90 -23 c0 -36 -4 -35
-14 5 -4 16 -2 27 4 27 5 0 10 -14 10 -32z m-1870 -18 c0 -5 -5 -10 -11 -10
-5 0 -7 5 -4 10 3 6 8 10 11 10 2 0 4 -4 4 -10z m440 -21 c0 -5 -7 -6 -15 -3
-8 4 -15 13 -15 21 0 13 3 13 15 3 8 -7 15 -16 15 -21z m89 5 c2 -2 -10 -4
-27 -4 -24 0 -30 4 -26 15 5 12 10 12 27 3 12 -6 24 -12 26 -14z m1137 -14 c3
0 3 4 0 9 -3 5 3 11 14 14 11 3 20 2 20 -2 0 -13 -38 -39 -46 -31 -16 14 -71
19 -83 7 -18 -18 -13 4 6 25 16 18 17 17 50 -2 19 -11 36 -20 39 -20z m-1489
24 c-3 -4 4 -15 16 -24 25 -21 23 -25 -19 -34 -24 -5 -31 -3 -31 9 0 8 5 15
11 15 6 0 4 5 -4 10 -13 9 -13 11 0 20 17 11 37 14 27 4z m448 -5 c11 -17 -1
-21 -15 -4 -8 9 -8 15 -2 15 6 0 14 -5 17 -11z m-519 -56 c-14 -15 -28 -24
-32 -20 -8 7 33 47 48 47 5 0 -2 -12 -16 -27z m534 17 c-8 -5 -19 -10 -25 -10
-5 0 -3 5 5 10 8 5 20 10 25 10 6 0 3 -5 -5 -10z m298 -1 c-2 -7 -16 -13 -32
-15 -23 -2 -25 0 -15 12 14 17 52 19 47 3z m-343 -9 c3 -6 -1 -7 -9 -4 -18 7
-21 14 -7 14 6 0 13 -4 16 -10z m385 -20 c0 -5 -5 -10 -11 -10 -6 0 -8 -7 -5
-16 4 -10 2 -14 -6 -11 -7 2 -12 11 -10 18 2 8 -8 3 -22 -10 -24 -23 -38 -17
-15 6 7 7 3 10 -15 8 -16 -2 -24 1 -20 7 4 5 17 8 30 5 14 -2 27 0 30 4 7 12
44 11 44 -1z m-1156 -39 c10 -16 -5 -40 -24 -38 -10 1 -16 5 -14 9 9 14 -17
50 -32 44 -8 -3 -14 -1 -14 3 0 24 67 9 84 -18z m1201 19 c3 -5 1 -10 -4 -10
-6 0 -11 5 -11 10 0 6 2 10 4 10 3 0 8 -4 11 -10z m-1158 -16 c-3 -3 -12 -4
-19 -1 -8 3 -5 6 6 6 11 1 17 -2 13 -5z m517 -19 c-4 -8 -10 -15 -15 -15 -5 0
-9 7 -9 15 0 8 7 15 15 15 9 0 12 -6 9 -15z m1312 -12 c-10 -10 -19 5 -10 18
6 11 8 11 12 0 2 -7 1 -15 -2 -18z m-1810 5 c4 -6 -1 -17 -11 -25 -13 -8 -14
-13 -5 -13 7 0 11 -2 8 -5 -10 -11 -38 8 -38 25 0 26 33 39 46 18z m74 3 c0
-12 -41 -22 -54 -13 -6 4 3 10 19 13 17 4 31 7 33 8 1 0 2 -3 2 -8z m283 -16
c-3 -8 0 -15 7 -15 6 0 8 -5 4 -11 -4 -8 1 -9 16 -4 15 5 20 4 16 -4 -4 -6
-16 -11 -27 -11 -11 0 -19 -7 -20 -17 0 -10 -3 -13 -5 -6 -3 7 -12 9 -20 6
-10 -4 -14 2 -14 21 0 14 -4 26 -10 26 -5 0 -10 5 -10 11 0 7 10 9 25 7 17 -4
25 -1 25 9 0 8 4 12 10 8 5 -3 7 -12 3 -20z m628 1 c5 3 6 10 3 16 -4 6 -1 9
7 6 16 -6 13 -35 -6 -54 -10 -11 -16 -10 -31 2 -14 11 -15 17 -6 20 6 3 13 13
13 22 1 15 2 15 6 -1 2 -9 9 -15 14 -11z m629 15 c0 -5 -7 -12 -16 -15 -22 -9
-24 -8 -24 9 0 8 9 15 20 15 11 0 20 -4 20 -9z m60 -1 c0 -5 -2 -10 -4 -10 -3
0 -8 5 -11 10 -3 6 -1 10 4 10 6 0 11 -4 11 -10z m-1492 -16 c-10 -10 -21 -13
-29 -8 -12 7 0 14 41 23 2 1 -3 -6 -12 -15z m-748 -4 c0 -5 -4 -10 -10 -10 -5
0 -10 5 -10 10 0 6 5 10 10 10 6 0 10 -4 10 -10z m814 -15 c-12 -9 -14 -14 -6
-15 25 0 -5 -59 -30 -60 -4 0 -5 6 -2 14 3 8 0 17 -6 21 -8 5 -1 17 20 37 18
16 35 26 38 23 3 -3 -3 -12 -14 -20z m1140 0 c-3 -7 -12 -11 -20 -8 -8 3 -14
1 -14 -5 0 -6 13 -13 29 -17 32 -7 48 -32 31 -49 -7 -7 -10 -6 -10 2 0 7 -6
12 -14 12 -8 0 -16 7 -20 15 -3 8 -12 12 -20 9 -8 -3 -19 3 -25 15 -17 31 -13
42 13 35 13 -3 27 -1 31 5 9 16 25 4 19 -14z m-880 0 c10 -7 15 -18 11 -24 -9
-16 -25 -13 -25 4 0 9 -9 15 -22 14 -13 0 -17 -3 -10 -6 6 -2 12 -12 12 -21
-1 -15 -3 -14 -15 2 -23 30 -18 37 25 45 3 0 13 -6 24 -14z m381 -25 c-24 -25
-26 -32 -15 -45 21 -25 -4 -44 -28 -22 -10 9 -24 17 -30 17 -14 0 -14 2 -6 24
3 9 10 16 15 16 4 0 5 -8 2 -17 -6 -16 -5 -16 10 -4 13 10 14 17 7 27 -9 9 -7
11 7 8 11 -3 27 3 37 15 11 12 22 19 24 16 3 -3 -7 -18 -23 -35z m924 20 c-27
-14 -71 -21 -64 -10 3 5 15 10 25 10 10 0 22 5 25 10 4 6 11 7 17 4 7 -5 6 -9
-3 -14z m-1789 -6 c0 -8 -5 -12 -10 -9 -6 4 -8 11 -5 16 9 14 15 11 15 -7z
m1434 3 c20 5 20 4 -2 -12 -13 -9 -24 -15 -25 -14 -2 2 -9 13 -17 23 -14 18
-14 19 4 9 10 -6 28 -8 40 -6z m-716 -15 c-16 -2 -28 -7 -28 -11 0 -4 -10 -7
-22 -6 -13 1 -23 6 -23 11 0 12 54 22 80 15 17 -5 15 -6 -7 -9z m512 8 c0 -5
-5 -10 -11 -10 -5 0 -7 5 -4 10 3 6 8 10 11 10 2 0 4 -4 4 -10z m387 -12 c-3
-8 -6 -5 -6 6 -1 11 2 17 5 13 3 -3 4 -12 1 -19z m-1699 0 c19 -19 14 -29 -8
-16 -20 13 -27 28 -12 28 4 0 13 -5 20 -12z m995 5 c4 -3 -5 -12 -19 -20 -36
-18 -40 -16 -19 7 19 21 28 24 38 13z m-1346 -9 c-3 -3 -12 -4 -19 -1 -8 3 -5
6 6 6 11 1 17 -2 13 -5z m523 -4 c0 -5 -2 -10 -4 -10 -3 0 -8 5 -11 10 -3 6
-1 10 4 10 6 0 11 -4 11 -10z m70 6 c0 -2 -7 -9 -15 -16 -13 -11 -14 -10 -9 4
5 14 24 23 24 12z m-550 -21 c-7 -8 -20 -15 -28 -15 -13 0 -12 3 4 15 25 19
40 19 24 0z m935 1 c9 4 12 -2 11 -19 0 -14 -5 -23 -10 -20 -4 3 -12 -1 -17
-8 -7 -11 -9 -10 -9 4 0 9 -7 17 -17 17 -14 0 -14 2 3 21 10 11 20 16 22 10 2
-5 9 -8 17 -5z m-847 -24 c-11 -2 -15 -9 -11 -20 4 -13 2 -12 -10 3 -14 18
-14 21 1 26 9 4 22 4 27 0 6 -3 2 -7 -7 -9z m562 2 c0 -8 -5 -12 -10 -9 -6 4
-8 11 -5 16 9 14 15 11 15 -7z m1200 6 c0 -5 -2 -10 -4 -10 -3 0 -8 5 -11 10
-3 6 -1 10 4 10 6 0 11 -4 11 -10z m-1931 -16 c6 4 11 1 11 -7 0 -7 -7 -14
-15 -14 -8 0 -15 5 -15 10 0 5 -11 2 -25 -7 -27 -17 -45 -21 -45 -8 0 13 64
38 71 28 4 -5 12 -5 18 -2z m551 12 c0 -2 -7 -7 -16 -10 -8 -3 -12 -2 -9 4 6
10 25 14 25 6z m970 0 c0 -3 -4 -8 -10 -11 -5 -3 -10 -1 -10 4 0 6 5 11 10 11
6 0 10 -2 10 -4z m1342 -13 c-9 -3 -10 -9 -3 -17 6 -6 6 -18 2 -25 -7 -10 -10
-8 -16 8 -7 22 12 58 24 45 3 -4 0 -9 -7 -11z m-2268 -8 c-4 -8 -17 -15 -31
-15 -14 0 -22 4 -18 10 4 6 10 8 15 5 5 -3 11 -1 15 5 10 16 25 12 19 -5z
m511 -3 c-3 -3 -11 0 -18 7 -9 10 -8 11 6 5 10 -3 15 -9 12 -12z m1075 14 c0
-3 -4 -8 -10 -11 -5 -3 -10 -1 -10 4 0 6 5 11 10 11 6 0 10 -2 10 -4z m-742
-31 c-1 -14 -6 -24 -11 -22 -5 1 -8 6 -8 10 1 4 1 14 1 22 0 8 4 15 10 15 5 0
9 -11 8 -25z m432 6 c0 -12 -20 -25 -27 -18 -7 7 6 27 18 27 5 0 9 -4 9 -9z
m-1787 -8 c-7 -2 -19 -2 -25 0 -7 3 -2 5 12 5 14 0 19 -2 13 -5z m1075 -21
c-25 -5 -37 6 -19 18 8 5 19 3 26 -3 10 -10 9 -13 -7 -15z m119 22 c-3 -3 -12
-4 -19 -1 -8 3 -5 6 6 6 11 1 17 -2 13 -5z m117 -9 c-6 -16 -24 -21 -24 -7 0
11 11 22 21 22 5 0 6 -7 3 -15z m-1491 -24 c6 -25 0 -31 -30 -31 -23 0 -23 1
-7 25 20 30 30 32 37 6z m307 9 c0 -5 -5 -10 -11 -10 -5 0 -7 5 -4 10 3 6 8
10 11 10 2 0 4 -4 4 -10z m1000 0 c0 -5 -4 -10 -10 -10 -5 0 -10 5 -10 10 0 6
5 10 10 10 6 0 10 -4 10 -10z m920 -6 c0 -8 -4 -12 -10 -9 -5 3 -10 10 -10 16
0 5 5 9 10 9 6 0 10 -7 10 -16z m-2090 -14 c0 -5 -7 -10 -16 -10 -8 0 -12 5
-9 10 3 6 10 10 16 10 5 0 9 -4 9 -10z m1090 0 c0 -5 -5 -10 -11 -10 -5 0 -7
5 -4 10 3 6 8 10 11 10 2 0 4 -4 4 -10z m965 -8 c-3 -3 -11 0 -18 7 -9 10 -8
11 6 5 10 -3 15 -9 12 -12z"/>
<path d="M1210 1189 c0 -5 5 -7 10 -4 6 3 10 8 10 11 0 2 -4 4 -10 4 -5 0 -10
-5 -10 -11z"/>
<path d="M1770 660 c0 -5 5 -10 10 -10 6 0 10 5 10 10 0 6 -4 10 -10 10 -5 0
-10 -4 -10 -10z"/>
<path d="M1181 536 c-7 -9 -17 -13 -22 -10 -5 3 -9 0 -9 -5 0 -6 7 -11 15 -11
19 0 19 -7 0 -27 -8 -8 -12 -19 -9 -25 5 -7 11 -5 19 6 7 9 19 14 27 11 19 -8
31 32 14 43 -7 4 -15 13 -17 21 -4 10 -7 10 -18 -3z"/>
<path d="M1245 510 c3 -5 10 -10 16 -10 5 0 9 5 9 10 0 6 -7 10 -16 10 -8 0
-12 -4 -9 -10z"/>
<path d="M1035 500 c-3 -5 -1 -10 4 -10 6 0 11 5 11 10 0 6 -2 10 -4 10 -3 0
-8 -4 -11 -10z"/>
<path d="M935 180 c-3 -5 -1 -10 4 -10 6 0 11 5 11 10 0 6 -2 10 -4 10 -3 0
-8 -4 -11 -10z"/>
<path d="M3700 1853 c0 -5 5 -15 10 -23 8 -12 10 -11 10 8 0 12 -4 22 -10 22
-5 0 -10 -3 -10 -7z"/>
<path d="M1635 1826 c-11 -14 -15 -16 -11 -4 4 14 0 15 -26 7 -18 -5 -35 -14
-40 -21 -11 -18 -10 -40 2 -33 6 4 8 10 5 15 -3 4 7 11 22 15 17 4 29 2 31 -4
4 -11 56 11 66 28 13 20 -34 18 -49 -3z"/>
<path d="M4388 1839 c-10 -6 -18 -17 -18 -26 0 -9 8 -22 18 -30 10 -9 11 -12
2 -7 -8 4 -4 -5 9 -19 29 -32 42 -34 58 -8 10 16 8 23 -14 42 -14 13 -28 32
-32 41 -4 13 -10 14 -23 7z"/>
<path d="M4932 1838 c-14 -14 -16 -28 -3 -28 9 0 24 30 18 36 -2 2 -9 -2 -15
-8z"/>
<path d="M3423 1833 c9 -2 23 -2 30 0 6 3 -1 5 -18 5 -16 0 -22 -2 -12 -5z"/>
<path d="M4048 1833 c7 -3 16 -2 19 1 4 3 -2 6 -13 5 -11 0 -14 -3 -6 -6z"/>
<path d="M1487 1821 c-9 -4 -26 -21 -36 -38 -12 -19 -31 -34 -49 -38 -32 -6
-72 -43 -76 -68 -1 -8 -8 -22 -15 -31 -17 -20 -7 -20 24 0 20 13 28 14 40 4
12 -10 15 -9 15 8 0 11 -6 23 -12 25 -8 3 -5 6 5 6 10 1 15 5 12 11 -3 6 1 7
9 4 11 -4 16 0 16 11 0 9 5 13 10 10 6 -3 10 -15 10 -27 0 -15 5 -19 20 -15
18 5 19 3 6 -15 -18 -25 -10 -48 14 -48 27 0 36 20 12 27 -18 4 -19 8 -9 24
14 22 33 25 40 7 3 -7 6 -3 6 10 1 20 -4 23 -26 22 -42 -3 -50 -1 -33 10 8 5
25 7 37 3 16 -3 23 -1 23 10 0 8 -6 15 -12 14 -38 -1 -58 5 -58 17 0 21 28 27
39 8 7 -13 13 -14 21 -6 18 18 -9 63 -33 55z"/>
<path d="M1800 1813 c-24 -12 -24 -13 -3 -13 12 0 25 5 28 11 11 16 2 17 -25
2z"/>
<path d="M2108 1806 c-35 -30 -35 -40 -1 -31 27 6 27 6 9 -14 -11 -12 -16 -24
-13 -28 9 -9 47 27 47 45 0 8 6 12 15 8 20 -7 19 8 -1 28 -20 21 -24 20 -56
-8z"/>
<path d="M2350 1820 c0 -5 5 -10 11 -10 5 0 7 5 4 10 -3 6 -8 10 -11 10 -2 0
-4 -4 -4 -10z"/>
<path d="M2690 1801 c0 -12 6 -21 15 -21 8 0 15 4 15 9 0 5 -7 14 -15 21 -13
10 -15 9 -15 -9z"/>
<path d="M3196 1804 c-5 -14 -4 -15 9 -4 17 14 19 20 6 20 -5 0 -12 -7 -15
-16z"/>
<path d="M3850 1811 c0 -5 7 -12 16 -15 24 -9 28 -7 14 9 -14 17 -30 20 -30 6z"/>
<path d="M4222 1804 c-12 -8 -26 -13 -31 -9 -5 3 -12 1 -16 -5 -3 -5 -2 -10 3
-10 5 0 15 -11 22 -25 14 -27 33 -35 24 -10 -6 15 0 19 48 29 23 5 27 3 24
-11 -7 -36 -19 -53 -37 -53 -16 0 -17 -3 -7 -27 7 -16 13 -30 14 -31 2 -2 16
-1 33 3 26 5 30 11 27 30 -3 18 -1 22 10 18 31 -12 12 36 -31 76 -50 46 -52
47 -83 25z"/>
<path d="M4495 1800 c3 -5 8 -10 11 -10 2 0 4 5 4 10 0 6 -5 10 -11 10 -5 0
-7 -4 -4 -10z"/>
<path d="M1737 1767 c-42 -36 -31 -69 15 -44 24 12 28 24 15 44 -4 6 -1 14 5
16 8 3 8 6 2 6 -6 1 -23 -9 -37 -22z"/>
<path d="M2613 1768 c2 -7 10 -13 17 -13 7 0 15 6 18 13 2 7 -5 12 -18 12 -13
0 -20 -5 -17 -12z"/>
<path d="M3740 1760 c-27 -20 -21 -35 13 -36 12 0 32 -4 45 -8 38 -13 27 31
-13 52 -16 8 -26 6 -45 -8z"/>
<path d="M3820 1770 c0 -5 5 -10 11 -10 5 0 7 5 4 10 -3 6 -8 10 -11 10 -2 0
-4 -4 -4 -10z"/>
<path d="M1685 1760 c-3 -5 -2 -10 4 -10 5 0 13 5 16 10 3 6 2 10 -4 10 -5 0
-13 -4 -16 -10z"/>
<path d="M2730 1762 c0 -4 7 -18 16 -30 18 -27 57 -30 52 -5 -2 11 -13 18 -28
18 -15 0 -24 5 -22 13 1 6 -2 12 -8 12 -5 0 -10 -3 -10 -8z"/>
<path d="M3270 1750 c-18 -11 -3 -29 20 -23 11 3 20 9 20 13 0 12 -26 19 -40
10z"/>
<path d="M3660 1750 c-13 -9 -13 -11 0 -20 19 -12 35 -8 35 10 0 18 -16 22
-35 10z"/>
<path d="M2810 1740 c0 -5 5 -10 10 -10 6 0 10 5 10 10 0 6 -4 10 -10 10 -5 0
-10 -4 -10 -10z"/>
<path d="M3064 1739 c-8 -14 -5 -15 39 -22 20 -3 37 -2 37 4 0 5 -1 9 -3 9 -1
0 -17 4 -34 9 -21 6 -35 6 -39 0z"/>
<path d="M1630 1709 c-32 -27 -33 -30 -10 -24 31 9 82 55 60 55 -8 0 -31 -14
-50 -31z"/>
<path d="M2158 1732 c-10 -2 -15 -9 -11 -18 3 -8 0 -14 -6 -14 -6 0 -11 -4
-11 -10 0 -9 57 -8 64 1 8 11 -21 44 -36 41z"/>
<path d="M4995 1730 c-3 -5 1 -10 9 -10 9 0 16 5 16 10 0 6 -4 10 -9 10 -6 0
-13 -4 -16 -10z"/>
<path d="M5096 1722 c-3 -6 3 -12 15 -15 12 -3 19 -1 16 6 -5 15 -24 20 -31 9z"/>
<path d="M1555 1710 c3 -5 8 -10 11 -10 2 0 4 5 4 10 0 6 -5 10 -11 10 -5 0
-7 -4 -4 -10z"/>
<path d="M3903 1685 c-10 -11 -9 -15 7 -20 11 -4 20 -13 20 -21 0 -8 8 -14 17
-14 9 0 36 -21 60 -46 25 -25 46 -44 48 -42 10 9 -9 48 -22 48 -11 0 -14 7
-10 21 7 25 -25 63 -66 78 -35 14 -39 13 -54 -4z"/>
<path d="M2900 1675 c0 -10 7 -15 18 -13 21 4 19 22 -2 26 -10 2 -16 -3 -16
-13z"/>
<path d="M2675 1670 c-3 -5 1 -10 9 -10 9 0 16 5 16 10 0 6 -4 10 -9 10 -6 0
-13 -4 -16 -10z"/>
<path d="M4635 1640 c3 -5 8 -10 11 -10 2 0 4 5 4 10 0 6 -5 10 -11 10 -5 0
-7 -4 -4 -10z"/>
<path d="M2080 1636 c0 -2 7 -9 15 -16 13 -11 14 -10 9 4 -5 14 -24 23 -24 12z"/>
<path d="M5040 1630 c0 -5 7 -10 15 -10 8 0 15 5 15 10 0 6 -7 10 -15 10 -8 0
-15 -4 -15 -10z"/>
<path d="M1415 1620 c4 -6 11 -8 16 -5 14 9 11 15 -7 15 -8 0 -12 -5 -9 -10z"/>
<path d="M2970 1620 c0 -5 5 -10 10 -10 6 0 10 5 10 10 0 6 -4 10 -10 10 -5 0
-10 -4 -10 -10z"/>
<path d="M3600 1613 c0 -27 15 -45 33 -41 14 2 15 7 4 27 -15 30 -37 39 -37
14z"/>
<path d="M1295 1607 c-11 -7 -21 -12 -21 -12 -1 0 -4 -10 -8 -21 -6 -19 -4
-21 22 -15 31 6 82 40 82 53 0 12 -53 8 -75 -5z"/>
<path d="M4623 1614 c-16 -7 -17 -24 -2 -24 6 0 34 -16 61 -36 52 -38 81 -38
38 0 -14 12 -30 31 -36 42 -11 19 -39 27 -61 18z"/>
<path d="M5077 1613 c-14 -13 -6 -24 12 -18 16 5 18 2 14 -15 -6 -23 -23 -38
-23 -20 0 6 -5 8 -11 5 -6 -4 -8 -13 -5 -20 3 -9 -2 -11 -16 -7 -17 4 -20 2
-15 -12 4 -10 7 -22 7 -27 0 -5 7 -9 15 -9 8 0 15 5 15 12 0 6 6 3 14 -8 11
-14 17 -16 26 -7 15 14 5 33 -16 33 -8 0 -12 5 -8 11 3 6 17 8 29 5 14 -4 25
-1 29 7 3 8 8 7 16 -5 15 -25 32 -22 28 4 -2 13 -21 32 -48 49 -50 31 -54 32
-63 22z"/>
<path d="M3773 1594 c-8 -7 -9 -15 -3 -19 5 -3 7 -12 3 -20 -3 -8 0 -15 7 -15
6 0 8 5 4 12 -5 8 -2 9 10 5 10 -4 29 -7 42 -7 14 0 27 -7 31 -17 4 -10 17
-29 30 -43 19 -19 26 -21 33 -11 4 8 13 10 19 7 6 -4 11 -2 11 4 0 20 -28 40
-54 40 -22 0 -26 4 -26 30 0 32 -9 37 -27 19 -9 -9 -19 -6 -40 9 -23 16 -30
17 -40 6z"/>
<path d="M2470 1577 c-14 -7 -29 -22 -35 -35 -9 -21 -40 -28 -97 -23 -9 1 -19
-3 -23 -9 -3 -5 0 -10 8 -10 8 0 18 -7 21 -16 5 -13 9 -14 21 -4 13 11 14 10
9 -4 -3 -9 -1 -16 5 -16 6 0 11 4 11 10 0 5 7 7 15 4 8 -4 12 -11 8 -17 -4 -7
0 -8 13 -3 10 5 31 13 46 18 16 5 25 14 22 20 -3 5 -13 7 -22 3 -12 -5 -12 -1
3 17 11 13 22 25 24 28 2 3 0 -6 -4 -20 -7 -22 -6 -23 9 -11 9 7 16 10 16 5 0
-4 7 1 15 12 8 11 15 14 15 6 0 -10 4 -10 20 0 11 7 20 16 20 21 0 4 -5 5 -12
1 -8 -5 -9 -2 -5 9 7 19 -8 23 -18 6 -4 -6 -13 -8 -21 -5 -7 3 -17 0 -21 -7
-5 -8 -9 -4 -13 10 -4 20 -7 21 -30 10z"/>
<path d="M2801 1568 c-17 -27 -9 -32 12 -8 9 11 13 21 9 24 -5 3 -14 -4 -21
-16z"/>
<path d="M4065 1580 c3 -5 8 -10 11 -10 2 0 4 5 4 10 0 6 -5 10 -11 10 -5 0
-7 -4 -4 -10z"/>
<path d="M1569 1560 c-18 -15 -20 -19 -8 -20 9 0 24 9 34 20 23 26 4 26 -26 0z"/>
<path d="M3034 1554 c-18 -14 -18 -15 6 -8 14 3 32 10 40 15 12 7 11 8 -6 9
-11 0 -29 -7 -40 -16z"/>
<path d="M2316 1545 c4 -8 7 -15 9 -15 1 0 8 7 15 15 10 13 9 15 -8 15 -15 0
-20 -5 -16 -15z"/>
<path d="M4996 1544 c-9 -24 -7 -28 9 -14 17 14 20 30 6 30 -5 0 -12 -7 -15
-16z"/>
<path d="M4577 1533 c5 -12 3 -14 -8 -8 -11 7 -11 5 1 -10 14 -17 13 -18 -3
-12 -11 4 -16 3 -12 -4 4 -5 12 -8 18 -6 7 2 21 -3 32 -12 19 -16 19 -16 2 11
-9 15 -17 34 -17 43 0 8 -4 15 -10 15 -5 0 -6 -7 -3 -17z"/>
<path d="M1091 1471 c-7 -5 -9 -11 -4 -14 6 -4 19 0 29 8 15 11 16 14 4 15 -8
0 -21 -4 -29 -9z"/>
<path d="M4200 1470 c0 -6 7 -13 15 -16 8 -4 15 -12 15 -19 0 -15 18 -30 27
-22 3 3 -5 20 -17 36 -21 31 -40 40 -40 21z"/>
<path d="M4850 1466 c0 -15 18 -31 26 -23 7 7 -7 37 -17 37 -5 0 -9 -6 -9 -14z"/>
<path d="M4601 1439 c5 -10 19 -24 32 -30 22 -12 22 -12 3 10 -21 23 -16 27
14 11 11 -6 21 -6 24 -1 9 15 -18 30 -51 29 -28 -1 -31 -3 -22 -19z"/>
<path d="M5318 1444 c5 -9 7 -25 5 -34 -5 -17 21 -35 37 -25 5 3 11 1 15 -5 3
-5 18 -10 32 -10 21 0 23 2 13 15 -7 8 -16 13 -20 10 -5 -3 -11 -1 -15 5 -4 6
-11 8 -16 5 -5 -4 -14 -3 -20 1 -8 4 -7 9 2 14 10 7 10 11 0 24 -18 22 -45 21
-33 0z"/>
<path d="M5270 1440 c0 -5 5 -10 10 -10 6 0 10 5 10 10 0 6 -4 10 -10 10 -5 0
-10 -4 -10 -10z"/>
<path d="M1895 1412 c-3 -9 -1 -18 4 -20 6 -2 11 -10 11 -18 0 -8 9 -14 20
-14 23 0 24 1 9 34 -15 31 -35 40 -44 18z"/>
<path d="M2720 1426 c0 -2 7 -6 15 -10 8 -3 15 -1 15 4 0 6 -7 10 -15 10 -8 0
-15 -2 -15 -4z"/>
<path d="M4273 1400 c-1 -11 4 -20 13 -20 16 0 16 2 8 24 -8 22 -19 20 -21 -4z"/>
<path d="M4746 1403 c-11 -11 -6 -23 9 -23 8 0 15 4 15 9 0 13 -16 22 -24 14z"/>
<path d="M4940 1390 c0 -5 5 -10 11 -10 5 0 7 5 4 10 -3 6 -8 10 -11 10 -2 0
-4 -4 -4 -10z"/>
<path d="M1766 1375 c4 -8 12 -15 20 -15 8 0 14 7 14 15 0 8 -9 15 -20 15 -13
0 -18 -5 -14 -15z"/>
<path d="M4700 1369 c0 -12 8 -23 20 -26 11 -3 20 -9 20 -13 0 -4 9 -10 20
-13 32 -8 24 18 -14 47 -42 31 -46 32 -46 5z"/>
<path d="M4995 1380 c3 -5 11 -10 16 -10 6 0 7 5 4 10 -3 6 -11 10 -16 10 -6
0 -7 -4 -4 -10z"/>
<path d="M5530 1380 c-12 -7 -12 -12 4 -29 21 -23 45 -29 27 -7 -9 11 -9 15 0
18 7 2 9 10 5 16 -9 14 -16 15 -36 2z"/>
<path d="M1975 1370 c-3 -5 1 -10 10 -10 9 0 13 5 10 10 -3 6 -8 10 -10 10 -2
0 -7 -4 -10 -10z"/>
<path d="M1675 1342 c31 -29 49 -28 43 4 -2 13 -14 19 -38 21 l-35 3 30 -28z"/>
<path d="M1838 1363 c-21 -5 -24 -23 -5 -24 14 -1 -35 -17 -73 -25 -14 -2 -31
-7 -38 -9 -7 -3 -24 2 -38 11 -22 15 -24 15 -25 -2 -1 -11 -1 -22 0 -26 0 -5
-6 -8 -14 -8 -8 0 -15 5 -15 10 0 6 5 10 11 10 5 0 7 5 4 10 -4 6 -10 8 -15 5
-5 -3 -14 4 -20 15 -6 11 -15 18 -21 14 -6 -4 -6 -11 2 -20 9 -12 6 -14 -21
-14 -24 0 -31 -4 -28 -17 4 -19 47 -45 61 -36 5 3 4 10 -2 16 -6 6 -11 16 -11
22 1 5 10 -1 20 -14 16 -18 26 -22 48 -17 40 10 113 12 119 4 7 -13 47 -8 68
8 17 13 18 16 5 24 -9 6 -16 6 -18 0 -5 -12 -22 -13 -22 -1 0 5 6 11 13 13 15
6 133 -6 167 -17 22 -7 23 -6 12 8 -8 9 -24 19 -35 23 -12 4 -34 15 -49 26
-22 15 -28 16 -28 5 0 -8 -7 -17 -15 -21 -8 -3 -15 -1 -15 4 0 6 5 10 11 10 5
0 7 5 4 10 -6 10 -9 11 -37 3z"/>
<path d="M5480 1360 c0 -5 5 -10 10 -10 6 0 10 5 10 10 0 6 -4 10 -10 10 -5 0
-10 -4 -10 -10z"/>
<path d="M4077 1339 c12 -12 83 -20 83 -9 0 9 -36 20 -69 20 -18 0 -22 -3 -14
-11z"/>
<path d="M5686 1337 c-17 -12 -16 -14 8 -32 14 -11 26 -25 26 -32 0 -7 7 -13
15 -13 12 0 15 9 12 33 -6 57 -25 70 -61 44z"/>
<path d="M5796 1335 c4 -8 10 -12 15 -9 14 8 10 24 -6 24 -9 0 -12 -6 -9 -15z"/>
<path d="M5830 1331 c-14 -27 7 -39 25 -15 18 24 19 34 0 34 -8 0 -19 -9 -25
-19z"/>
<path d="M4185 1330 c-3 -5 1 -10 10 -10 9 0 13 5 10 10 -3 6 -8 10 -10 10 -2
0 -7 -4 -10 -10z"/>
<path d="M4914 1331 c3 -5 15 -11 26 -14 17 -4 19 -3 9 9 -12 15 -44 20 -35 5z"/>
<path d="M4640 1320 c0 -5 5 -10 10 -10 6 0 10 5 10 10 0 6 -4 10 -10 10 -5 0
-10 -4 -10 -10z"/>
<path d="M20 1310 c0 -5 4 -10 9 -10 6 0 13 5 16 10 3 6 -1 10 -9 10 -9 0 -16
-4 -16 -10z"/>
<path d="M3878 1313 c7 -3 16 -2 19 1 4 3 -2 6 -13 5 -11 0 -14 -3 -6 -6z"/>
<path d="M4224 1295 c24 -18 39 -20 34 -2 -3 6 -15 13 -29 15 -23 2 -23 2 -5
-13z"/>
<path d="M5610 1300 c0 -5 5 -10 10 -10 6 0 10 5 10 10 0 6 -4 10 -10 10 -5 0
-10 -4 -10 -10z"/>
<path d="M3855 1290 c-3 -5 -1 -10 4 -10 6 0 11 5 11 10 0 6 -2 10 -4 10 -3 0
-8 -4 -11 -10z"/>
<path d="M5645 1290 c-3 -5 -1 -10 4 -10 6 0 11 5 11 10 0 6 -2 10 -4 10 -3 0
-8 -4 -11 -10z"/>
<path d="M35 1281 c-11 -5 -23 -7 -28 -4 -4 2 -6 -16 -5 -41 1 -44 2 -45 27
-40 14 4 36 13 48 20 27 17 34 18 30 3 -1 -6 4 -14 12 -17 10 -3 12 0 8 12 -6
16 6 21 45 17 12 -2 15 4 11 19 -5 20 -7 20 -24 4 -18 -16 -19 -16 -19 -1 0
20 2 20 -50 2 -23 -8 -46 -12 -52 -9 -15 9 14 36 34 31 10 -3 16 -1 12 4 -6
11 -22 11 -49 0z"/>
<path d="M1886 1280 c6 -6 21 -6 39 -1 30 9 30 9 -9 10 -26 1 -37 -2 -30 -9z"/>
<path d="M2027 1283 c-23 -22 7 -68 37 -57 22 8 20 19 -6 32 -13 6 -17 11 -10
11 7 1 10 6 7 11 -7 12 -19 13 -28 3z"/>
<path d="M5095 1280 c3 -5 8 -10 11 -10 2 0 4 5 4 10 0 6 -5 10 -11 10 -5 0
-7 -4 -4 -10z"/>
<path d="M2220 1259 c0 -5 5 -7 10 -4 6 3 10 8 10 11 0 2 -4 4 -10 4 -5 0 -10
-5 -10 -11z"/>
<path d="M5857 1256 c-23 -18 -6 -30 31 -21 26 6 26 6 7 -9 -11 -8 -32 -16
-47 -16 -18 0 -28 -5 -28 -15 0 -8 6 -15 14 -15 8 0 16 -5 18 -12 4 -10 13
-10 46 0 23 7 43 16 46 21 9 14 -31 76 -50 78 -11 2 -27 -3 -37 -11z"/>
<path d="M1440 1246 c0 -8 5 -18 10 -21 6 -3 10 1 10 9 0 8 -4 18 -10 21 -5 3
-10 -1 -10 -9z"/>
<path d="M4440 1256 c0 -16 35 -66 46 -66 8 0 14 -4 14 -9 0 -15 30 -41 46
-41 8 0 14 9 14 19 0 13 -9 21 -29 26 -16 3 -32 13 -35 21 -3 9 -10 12 -16 9
-5 -3 -10 3 -10 13 0 11 -7 22 -15 26 -8 3 -15 4 -15 2z"/>
<path d="M5981 1246 c-18 -21 11 -41 39 -26 21 11 21 12 3 25 -23 18 -28 18
-42 1z"/>
<path d="M5352 1238 c6 -18 28 -21 28 -4 0 9 -7 16 -16 16 -9 0 -14 -5 -12
-12z"/>
<path d="M1920 1220 c0 -11 4 -20 10 -20 5 0 7 7 4 15 -5 11 1 15 23 15 16 0
34 -5 41 -12 13 -13 27 -5 17 11 -3 6 -26 11 -51 11 -37 0 -44 -3 -44 -20z"/>
<path d="M4385 1225 c11 -8 25 -19 32 -25 24 -20 26 -9 3 15 -13 14 -31 25
-39 25 -13 -1 -12 -4 4 -15z"/>
<path d="M726 1222 c-3 -6 1 -13 10 -16 23 -9 28 -2 10 13 -8 7 -17 8 -20 3z"/>
<path d="M1408 1213 c7 -3 16 -2 19 1 4 3 -2 6 -13 5 -11 0 -14 -3 -6 -6z"/>
<path d="M1547 1214 c-8 -8 1 -24 14 -24 5 0 9 7 9 15 0 15 -12 20 -23 9z"/>
<path d="M3319 1204 c-12 -15 -11 -16 11 -10 18 5 21 5 10 -3 -8 -5 -11 -13
-7 -17 3 -4 13 -1 22 6 12 10 13 16 4 26 -15 18 -24 18 -40 -2z"/>
<path d="M4521 1204 c14 -17 32 -19 27 -2 -2 6 -12 12 -22 14 -14 2 -15 0 -5
-12z"/>
<path d="M5256 1207 c-16 -12 -17 -15 -3 -29 17 -17 133 -25 122 -9 -7 12 -69
33 -86 29 -8 -2 -13 3 -11 10 3 15 0 15 -22 -1z"/>
<path d="M1430 1200 c-19 -12 -7 -22 21 -18 19 2 20 5 8 15 -9 7 -20 9 -29 3z"/>
<path d="M3268 1202 c9 -7 8 -13 -8 -27 -11 -10 -20 -22 -20 -27 0 -12 39 -10
54 4 11 11 11 17 -1 35 -9 13 -20 23 -27 23 -7 0 -7 -3 2 -8z"/>
<path d="M134 1192 c-6 -4 -17 -18 -24 -32 l-13 -25 -10 23 c-8 17 -18 22 -49
22 -34 0 -38 -3 -38 -24 0 -14 5 -28 12 -32 7 -4 8 -3 4 4 -4 7 -3 12 3 12 5
0 11 -4 13 -10 2 -5 30 -11 63 -13 62 -4 84 -18 43 -27 -16 -4 -19 -8 -10 -14
7 -4 24 -5 38 -2 21 6 24 3 24 -24 0 -16 5 -30 10 -30 20 0 9 -18 -15 -24 -14
-4 -25 -11 -25 -16 0 -5 7 -7 15 -4 8 3 22 -1 31 -10 19 -20 37 -11 29 14 -4
13 2 21 27 31 31 12 32 12 9 17 -19 3 -21 6 -10 13 10 6 8 9 -10 9 -23 0 -23
1 -7 25 9 14 12 25 6 25 -5 0 -10 6 -10 13 0 6 -5 28 -10 47 -9 33 -13 36 -48
37 -21 1 -43 -1 -48 -5z"/>
<path d="M2105 1190 c-3 -5 -1 -10 4 -10 6 0 11 5 11 10 0 6 -2 10 -4 10 -3 0
-8 -4 -11 -10z"/>
<path d="M646 1172 c-2 -4 4 -8 14 -9 11 -1 22 2 25 8 4 5 -3 9 -14 9 -11 0
-22 -4 -25 -8z"/>
<path d="M2070 1165 c-11 -13 -10 -14 4 -9 9 3 16 10 16 15 0 13 -6 11 -20 -6z"/>
<path d="M3390 1170 c0 -5 5 -10 10 -10 6 0 10 5 10 10 0 6 -4 10 -10 10 -5 0
-10 -4 -10 -10z"/>
<path d="M6100 1170 c0 -5 5 -10 10 -10 6 0 10 5 10 10 0 6 -4 10 -10 10 -5 0
-10 -4 -10 -10z"/>
<path d="M574 1135 c-16 -12 -16 -14 -3 -15 9 0 22 7 29 15 16 19 0 19 -26 0z"/>
<path d="M3310 1141 c0 -6 -7 -11 -15 -11 -8 0 -15 -4 -15 -10 0 -14 11 -12
33 4 12 9 14 16 8 21 -6 3 -11 1 -11 -4z"/>
<path d="M6050 1140 c0 -5 5 -10 10 -10 6 0 10 5 10 10 0 6 -4 10 -10 10 -5 0
-10 -4 -10 -10z"/>
<path d="M1575 1130 c3 -5 11 -10 16 -10 6 0 7 5 4 10 -3 6 -11 10 -16 10 -6
0 -7 -4 -4 -10z"/>
<path d="M2010 1125 c-20 -24 -6 -28 15 -5 10 11 13 20 8 20 -6 0 -16 -7 -23
-15z"/>
<path d="M5612 1127 c-9 -11 -8 -18 8 -32 18 -17 20 -17 26 -1 4 10 0 24 -8
32 -13 13 -16 13 -26 1z"/>
<path d="M6247 1133 c-22 -22 28 -83 68 -83 26 0 17 30 -15 48 -16 9 -30 23
-30 30 0 13 -13 16 -23 5z"/>
<path d="M1625 1120 c-3 -5 1 -10 10 -10 9 0 13 5 10 10 -3 6 -8 10 -10 10 -2
0 -7 -4 -10 -10z"/>
<path d="M5960 1106 c0 -9 5 -16 10 -16 6 0 10 4 10 9 0 6 -4 13 -10 16 -5 3
-10 -1 -10 -9z"/>
<path d="M1967 1103 c-12 -12 -7 -22 8 -17 8 4 15 10 15 15 0 11 -14 12 -23 2z"/>
<path d="M3225 1089 c-11 -17 1 -21 15 -4 8 9 8 15 2 15 -6 0 -14 -5 -17 -11z"/>
<path d="M3305 1090 c3 -6 0 -10 -7 -10 -9 0 -9 -3 2 -10 21 -14 30 -12 30 4
0 8 -7 17 -16 20 -8 3 -12 2 -9 -4z"/>
<path d="M678 1083 c6 -2 18 -2 25 0 6 3 1 5 -13 5 -14 0 -19 -2 -12 -5z"/>
<path d="M5725 1080 c-3 -5 1 -10 9 -10 9 0 16 5 16 10 0 6 -4 10 -9 10 -6 0
-13 -4 -16 -10z"/>
<path d="M6360 1069 c-6 -11 -9 -25 -6 -32 2 -7 8 -2 11 11 4 12 14 22 22 22
8 0 11 5 8 10 -10 16 -23 12 -35 -11z"/>
<path d="M3237 1065 c-9 -6 -17 -19 -17 -27 0 -9 -9 -18 -20 -21 -11 -3 -20
-11 -19 -19 0 -9 2 -9 5 -1 3 7 11 10 18 7 7 -3 21 7 30 21 14 21 23 25 43 20
27 -6 24 8 -5 24 -11 6 -23 5 -35 -4z"/>
<path d="M1758 1063 c7 -3 16 -2 19 1 4 3 -2 6 -13 5 -11 0 -14 -3 -6 -6z"/>
<path d="M1905 1058 c-28 -16 -61 -48 -49 -48 5 0 17 7 27 15 11 7 26 11 35 8
13 -4 14 -3 3 5 -11 8 -10 12 5 21 11 6 15 10 9 10 -5 0 -19 -5 -30 -11z"/>
<path d="M4660 1040 c-12 -22 -3 -37 37 -58 26 -14 36 -15 29 -3 -4 5 -2 21 3
34 9 23 7 27 -21 36 -39 14 -35 15 -48 -9z"/>
<path d="M5540 1050 c0 -5 5 -10 10 -10 6 0 10 5 10 10 0 6 -4 10 -10 10 -5 0
-10 -4 -10 -10z"/>
<path d="M6062 1048 c6 -18 28 -21 28 -4 0 9 -7 16 -16 16 -9 0 -14 -5 -12
-12z"/>
<path d="M3185 1040 c3 -5 11 -10 16 -10 6 0 7 5 4 10 -3 6 -11 10 -16 10 -6
0 -7 -4 -4 -10z"/>
<path d="M5469 1031 c-22 -18 -22 -20 -6 -26 19 -8 47 10 47 31 0 19 -14 17
-41 -5z"/>
<path d="M6158 1026 c-3 -14 -1 -26 4 -26 14 0 22 30 11 41 -7 7 -12 2 -15
-15z"/>
<path d="M0 1010 c0 -20 5 -30 15 -30 17 0 20 16 5 25 -5 3 -7 12 -3 20 3 8 0
15 -6 15 -6 0 -11 -13 -11 -30z"/>
<path d="M6105 1030 c3 -5 16 -10 28 -9 21 0 21 1 2 9 -28 12 -37 12 -30 0z"/>
<path d="M725 1020 c-3 -5 -1 -10 4 -10 6 0 11 5 11 10 0 6 -2 10 -4 10 -3 0
-8 -4 -11 -10z"/>
<path d="M555 1009 c3 -4 -5 -15 -17 -24 l-23 -17 25 7 c14 4 32 10 40 13 13
5 13 3 1 -11 -7 -9 -21 -17 -30 -17 -12 0 -13 -2 -3 -9 7 -4 28 -3 47 3 36 11
47 26 19 26 -10 0 -14 6 -10 15 3 8 2 16 -2 16 -31 6 -51 5 -47 -2z"/>
<path d="M6027 1011 c-25 -9 -22 -24 6 -28 17 -2 23 2 23 17 0 22 -2 22 -29
11z"/>
<path d="M6233 1003 c-4 -10 -14 -23 -22 -30 -17 -13 -16 -14 14 -18 11 -2 28
-6 38 -10 10 -4 17 -3 17 4 0 7 -7 14 -15 17 -10 4 -13 13 -10 24 8 24 -13 36
-22 13z"/>
<path d="M262 995 c-20 -10 -21 -13 -7 -19 37 -14 65 -1 65 30 0 8 -36 2 -58
-11z"/>
<path d="M340 998 c-22 -10 -23 -12 -6 -15 10 -3 26 2 34 11 19 18 8 20 -28 4z"/>
<path d="M3145 1000 c-3 -5 1 -10 9 -10 9 0 16 5 16 10 0 6 -4 10 -9 10 -6 0
-13 -4 -16 -10z"/>
<path d="M3248 1003 c6 -2 18 -2 25 0 6 3 1 5 -13 5 -14 0 -19 -2 -12 -5z"/>
<path d="M4761 1001 c-17 -11 -6 -31 17 -30 11 0 13 2 4 6 -10 4 -10 8 -1 19
13 16 2 18 -20 5z"/>
<path d="M372 980 c-28 -26 -27 -29 1 -27 23 1 49 26 41 39 -8 13 -19 9 -42
-12z"/>
<path d="M3300 991 c0 -6 5 -13 10 -16 6 -3 10 1 10 9 0 9 -4 16 -10 16 -5 0
-10 -4 -10 -9z"/>
<path d="M3450 989 c0 -5 5 -7 10 -4 6 3 10 8 10 11 0 2 -4 4 -10 4 -5 0 -10
-5 -10 -11z"/>
<path d="M3996 984 c-19 -19 -21 -64 -3 -64 9 0 12 9 9 29 -3 23 0 29 13 28
10 -1 20 4 22 11 7 17 -23 15 -41 -4z"/>
<path d="M5280 996 c0 -2 8 -10 18 -17 15 -13 16 -12 3 4 -13 16 -21 21 -21
13z"/>
<path d="M6296 978 c-12 -46 -7 -58 22 -58 24 1 25 2 10 14 -13 9 -14 16 -6
24 12 12 4 42 -11 42 -5 0 -11 -10 -15 -22z"/>
<path d="M458 967 c-29 -17 -35 -26 -28 -37 8 -13 10 -13 10 1 0 9 11 20 24
23 13 3 26 13 30 21 7 19 8 19 -36 -8z"/>
<path d="M656 974 c-5 -12 -2 -15 10 -10 8 3 18 6 20 6 3 0 2 5 -1 10 -9 15
-22 12 -29 -6z"/>
<path d="M3190 981 c0 -5 -8 -7 -18 -4 -10 2 -25 -3 -33 -13 -12 -15 -11 -16
19 -10 23 6 32 4 32 -5 0 -7 -3 -9 -6 -6 -7 7 -50 -44 -47 -55 2 -4 -4 -5 -12
-2 -8 4 -15 10 -15 16 0 5 -4 6 -10 3 -15 -9 -12 -25 5 -25 18 0 19 -12 4 -27
-8 -8 -7 -13 2 -19 7 -4 14 -3 17 4 2 7 11 12 21 12 9 0 23 6 30 13 11 10 12
4 9 -30 -2 -24 1 -41 7 -40 17 3 17 -41 0 -66 -11 -17 -13 -27 -5 -32 6 -4 8
-16 5 -28 -6 -21 -6 -22 9 -3 9 11 16 25 17 30 0 6 4 1 9 -11 8 -19 17 -23 55
-23 26 0 44 -4 41 -9 -4 -5 -1 -11 6 -13 6 -2 8 -10 4 -17 -6 -10 -11 -9 -24
2 -19 16 -72 28 -72 16 0 -11 38 -22 50 -14 5 3 10 1 10 -4 0 -6 -4 -11 -10
-11 -5 0 -12 -16 -16 -35 -7 -40 -24 -47 -24 -11 0 17 -7 26 -27 32 -21 5 -24
8 -10 11 24 6 11 23 -18 23 -21 0 -23 -3 -16 -22 5 -13 14 -22 20 -21 6 2 15
-6 21 -17 7 -14 7 -20 0 -20 -5 0 -10 -17 -10 -37 -1 -43 -15 -67 -48 -77 -16
-6 -22 -3 -22 8 0 9 -4 16 -10 16 -5 0 -10 -7 -10 -15 0 -8 5 -15 11 -15 5 0
7 -4 4 -10 -3 -5 -2 -10 4 -10 5 0 13 5 16 10 3 6 10 10 15 10 14 0 64 -50 57
-57 -4 -3 -7 -3 -7 2 0 4 -8 1 -17 -6 -15 -12 -16 -12 -10 4 9 23 -10 22 -23
-2 -16 -30 -13 -34 25 -27 19 4 35 3 34 -1 -1 -4 2 -18 6 -31 5 -16 13 -21 26
-17 11 4 19 2 19 -4 0 -6 9 -11 20 -11 12 0 20 -7 20 -17 1 -16 2 -15 12 2 6
11 14 22 18 25 4 3 10 12 14 20 3 8 4 3 1 -12 -3 -15 -1 -29 4 -33 5 -3 11 5
13 17 3 23 56 46 55 24 -1 -47 3 -55 27 -50 17 3 28 -2 35 -13 10 -17 10 -17
11 1 0 12 5 16 16 12 9 -3 22 -6 30 -6 12 0 12 -4 2 -20 -10 -16 -10 -22 1
-32 10 -9 12 -9 7 -1 -6 12 22 33 43 33 14 0 14 -50 1 -70 -8 -12 -10 -10 -10
10 l-1 25 -13 -25 c-8 -14 -12 -28 -9 -33 7 -11 36 -4 50 13 10 13 14 12 28
-5 16 -20 16 -20 13 0 -3 25 37 79 52 70 10 -6 14 7 10 34 -1 9 5 12 19 8 17
-4 21 0 21 19 0 17 4 22 16 17 13 -5 15 -2 10 15 -6 17 -3 19 15 15 22 -6 22
-8 4 55 -6 21 -5 23 13 13 25 -13 32 -14 32 -2 0 13 -43 22 -54 11 -4 -4 -8
-20 -8 -34 0 -14 -7 -31 -14 -37 -11 -9 -14 -7 -14 10 0 11 -9 43 -19 71 -18
47 -18 50 -2 50 29 0 30 9 8 56 -25 50 -37 56 -37 18 0 -19 -4 -25 -15 -20 -8
3 -15 1 -15 -5 0 -6 -4 -8 -9 -4 -6 3 -8 -10 -5 -32 2 -21 2 -31 -2 -23 -3 8
-15 39 -26 67 -11 29 -24 51 -28 48 -4 -3 -14 3 -21 12 -8 10 -9 14 -2 10 6
-4 14 -3 17 2 8 12 -4 41 -16 41 -6 0 -8 -7 -4 -15 3 -9 0 -15 -10 -15 -10 0
-14 -6 -10 -17 9 -31 16 -79 10 -63 -4 8 -15 34 -25 57 -11 23 -19 50 -19 60
0 10 -9 26 -19 35 -17 14 -20 15 -25 1 -9 -21 -8 -23 10 -23 12 0 15 -6 10
-22 -3 -13 -6 -37 -6 -54 0 -29 -2 -31 -35 -28 -36 2 -46 -11 -24 -33 12 -12
6 -43 -8 -43 -14 0 -43 114 -31 121 7 4 7 9 -1 13 -6 4 -16 4 -22 0 -15 -9
-29 14 -29 49 0 18 5 27 16 27 10 0 14 5 10 16 -4 10 -2 13 6 8 7 -5 9 1 5 18
-8 29 10 42 40 31 13 -5 15 -2 10 11 -4 10 -7 20 -7 23 0 4 -9 -2 -20 -12 -19
-17 -20 -17 -20 0 0 10 -3 15 -6 12 -4 -3 -15 -2 -26 4 -24 13 -39 2 -18 -12
11 -8 12 -12 3 -15 -9 -4 -9 -13 -2 -30 6 -18 5 -31 -4 -44 -17 -25 -35 -12
-43 30 -4 24 -3 31 4 21 5 -7 15 -12 22 -9 8 2 5 12 -9 29 -11 15 -18 29 -15
32 10 9 -6 47 -19 44 -6 -1 -20 -10 -31 -20 -19 -17 -19 -17 -1 -31 19 -13 24
-74 9 -98 -11 -17 -23 22 -17 50 3 12 0 29 -7 37 -15 18 -23 135 -9 135 6 0 7
5 4 10 -3 6 1 10 10 10 9 0 13 -4 10 -10 -3 -5 1 -10 9 -10 10 0 16 9 17 23
l0 22 10 -23 c5 -13 6 -29 3 -35 -5 -9 -3 -9 6 0 8 7 10 22 6 38 -6 23 -11 26
-34 21 -26 -6 -26 -6 -8 9 11 8 18 15 15 16 -58 8 -89 8 -89 0z m50 -31 c0 -5
-5 -10 -11 -10 -5 0 -7 5 -4 10 3 6 8 10 11 10 2 0 4 -4 4 -10z m-40 -60 c0
-5 -2 -10 -4 -10 -3 0 -8 5 -11 10 -3 6 -1 10 4 10 6 0 11 -4 11 -10z m89
-414 c0 -6 -4 -20 -8 -31 -7 -16 -9 -14 -12 16 -4 27 -1 35 8 32 7 -3 13 -10
12 -17z m144 -101 c-6 -19 -6 -19 -14 3 -7 19 -7 47 1 72 1 3 6 -8 11 -25 5
-16 6 -39 2 -50z m-153 35 c0 -5 -4 -10 -10 -10 -5 0 -10 5 -10 10 0 6 5 10
10 10 6 0 10 -4 10 -10z m30 -89 c0 -27 -17 -35 -29 -14 -6 10 -11 14 -11 10
0 -5 -5 -5 -12 -1 -8 5 -6 10 8 15 32 13 44 10 44 -10z m340 -121 c0 -5 -2
-10 -4 -10 -3 0 -8 5 -11 10 -3 6 -1 10 4 10 6 0 11 -4 11 -10z m25 0 c3 -5 1
-10 -4 -10 -6 0 -11 5 -11 10 0 6 2 10 4 10 3 0 8 -4 11 -10z"/>
<path d="M6133 979 c14 -8 22 -8 30 0 8 8 3 11 -18 11 -26 -1 -28 -2 -12 -11z"/>
<path d="M6346 966 c3 -9 11 -16 16 -16 13 0 5 23 -10 28 -7 2 -10 -2 -6 -12z"/>
<path d="M4054 960 c-12 -4 -24 -15 -27 -24 -8 -20 3 -20 29 -1 10 8 29 15 42
15 13 0 20 4 17 10 -7 12 -32 12 -61 0z"/>
<path d="M138 942 c-52 -17 -63 -32 -23 -32 13 0 36 -5 50 -12 16 -7 29 -8 33
-2 4 5 13 9 20 10 6 1 23 2 37 3 14 0 25 5 25 10 0 4 -24 6 -52 3 -44 -4 -51
-2 -40 9 13 14 16 30 5 28 -5 0 -29 -8 -55 -17z"/>
<path d="M3417 953 c-8 -13 2 -43 14 -43 10 0 10 8 0 34 -5 12 -10 16 -14 9z"/>
<path d="M360 940 c-8 -5 -11 -12 -7 -16 4 -4 13 -2 19 4 15 15 7 24 -12 12z"/>
<path d="M489 933 c-13 -15 -12 -15 11 -3 34 17 36 20 18 20 -9 0 -22 -7 -29
-17z"/>
<path d="M1860 940 c0 -5 5 -10 11 -10 5 0 7 5 4 10 -3 6 -8 10 -11 10 -2 0
-4 -4 -4 -10z"/>
<path d="M2450 942 c0 -4 9 -8 19 -8 11 0 17 4 15 8 -7 10 -34 10 -34 0z"/>
<path d="M3130 930 c-8 -5 -12 -11 -9 -14 2 -3 11 -1 19 4 8 5 12 11 9 14 -2
3 -11 1 -19 -4z"/>
<path d="M6 914 c-10 -26 -8 -40 5 -27 6 6 17 10 23 9 6 -2 8 -1 3 1 -4 3 -5
8 -2 13 3 4 -1 10 -9 13 -8 3 -17 -1 -20 -9z"/>
<path d="M327 924 c-11 -11 -8 -26 3 -19 17 11 11 -7 -7 -21 -10 -7 -13 -14
-7 -14 20 0 36 28 27 45 -5 8 -12 12 -16 9z"/>
<path d="M568 913 c7 -3 16 -2 19 1 4 3 -2 6 -13 5 -11 0 -14 -3 -6 -6z"/>
<path d="M3371 908 c-1 -10 -7 -18 -13 -18 -7 0 -14 -12 -15 -26 0 -15 -7 -30
-15 -35 -18 -12 7 -12 50 0 20 6 32 6 32 0 0 -5 -5 -9 -12 -9 -9 0 -9 -3 0
-12 9 -9 15 -8 24 4 7 9 20 18 28 21 12 4 11 6 -2 6 -10 1 -18 6 -18 11 0 6
-9 10 -20 10 -17 0 -19 4 -14 26 5 18 3 25 -4 20 -6 -3 -13 0 -15 6 -3 8 -6 6
-6 -4z"/>
<path d="M6085 910 c3 -5 8 -10 11 -10 2 0 4 5 4 10 0 6 -5 10 -11 10 -5 0 -7
-4 -4 -10z"/>
<path d="M2460 899 c0 -6 -10 -9 -23 -7 -23 4 -47 -12 -47 -32 0 -5 9 -10 19
-10 11 0 26 -7 35 -15 8 -8 29 -15 46 -15 19 0 30 -5 29 -12 -1 -7 -1 -25 0
-39 1 -22 5 -26 26 -21 27 5 28 6 18 42 l-7 25 -7 -25 c-6 -23 -7 -22 -8 8 -1
26 4 35 19 39 23 6 26 19 8 26 -10 4 -10 6 0 6 6 1 12 6 12 12 0 6 -6 9 -12 6
-7 -2 -33 2 -58 9 -54 17 -50 16 -50 3z"/>
<path d="M3988 889 c-10 -5 -18 -17 -18 -25 0 -9 5 -12 12 -8 7 4 22 9 35 10
18 2 20 0 10 -11 -6 -7 -15 -11 -19 -8 -4 2 -5 -3 -2 -11 5 -12 10 -13 26 -5
19 10 20 9 16 -15 -3 -15 0 -31 8 -37 19 -15 18 -49 -1 -49 -18 0 -19 -7 -2
-24 6 -7 21 -25 32 -39 11 -15 22 -22 26 -16 3 6 11 4 19 -6 10 -12 10 -15 -4
-15 -9 0 -16 -5 -16 -11 0 -7 12 -9 35 -5 38 8 49 -10 20 -34 -22 -19 -18 -32
6 -19 21 11 38 0 39 -24 0 -5 7 -16 16 -24 12 -13 13 -18 3 -24 -8 -4 -10 -11
-6 -15 4 -4 17 1 29 12 19 17 21 17 15 2 -4 -10 -2 -18 3 -18 17 0 11 -38 -7
-45 -10 -3 -19 -5 -19 -3 -4 7 -44 -36 -44 -47 0 -20 -35 -45 -56 -39 -27 7
-74 -12 -74 -30 0 -8 -5 -16 -12 -18 -6 -2 -12 -15 -14 -29 -1 -13 -3 -26 -3
-28 -1 -3 -8 4 -16 15 -11 14 -14 15 -15 4 0 -8 -5 -22 -10 -30 -8 -13 -11
-13 -19 -1 -11 18 -31 5 -31 -20 0 -10 -4 -19 -10 -19 -5 0 -10 11 -10 25 0
14 -5 25 -10 25 -6 0 -9 -5 -8 -11 2 -6 -13 -17 -32 -23 -28 -10 -42 -26 -71
-79 -19 -37 -46 -78 -59 -92 l-24 -25 928 0 c875 0 927 1 915 18 -13 16 -12
16 13 -1 25 -15 65 -17 423 -17 l395 0 0 82 c0 45 -3 78 -7 75 -3 -4 -12 1
-20 11 -10 11 -16 13 -19 5 -7 -16 -62 16 -70 40 -3 10 -12 16 -19 13 -7 -2
-25 6 -39 19 -14 13 -26 20 -26 15 0 -12 -61 20 -85 45 -11 12 -30 25 -42 29
-13 4 -23 14 -23 22 0 10 -5 12 -12 8 -24 -15 -51 -11 -56 8 -2 10 -16 21 -30
25 -15 3 -34 16 -43 27 -14 17 -19 18 -33 7 -14 -11 -16 -11 -16 4 0 9 -6 15
-12 12 -7 -2 -21 2 -30 11 -16 14 -18 13 -18 -4 0 -17 -3 -16 -20 6 -11 14
-20 20 -20 13 0 -7 -7 -10 -17 -6 -10 4 -14 2 -9 -5 3 -6 2 -13 -3 -17 -6 -3
-17 10 -27 30 -19 41 -22 42 -33 13 -9 -23 -9 -23 -16 4 -7 27 -29 43 -46 32
-5 -3 -9 2 -9 10 0 12 -8 15 -32 12 -19 -2 -38 2 -46 11 -12 12 -16 12 -23 1
-7 -11 -11 -10 -19 2 -5 8 -10 11 -10 6 0 -4 -12 -1 -26 9 -22 14 -28 15 -35
4 -7 -11 -10 -9 -15 8 l-6 23 -28 -20 c-21 -15 -29 -17 -32 -8 -3 9 -10 8 -22
-5 -10 -10 -15 -24 -12 -33 3 -8 2 -12 -4 -9 -6 3 -10 13 -10 21 0 18 -60 76
-74 71 -6 -2 -16 3 -23 12 -11 14 -12 14 -13 -5 0 -11 -3 -24 -7 -28 -5 -4 -8
-13 -8 -19 0 -22 -23 -17 -27 8 -4 17 -1 25 8 25 16 0 19 26 4 35 -5 3 -10 -1
-10 -9 0 -29 -18 -17 -30 19 -14 43 -30 46 -30 6 0 -20 6 -31 17 -33 11 -2 16
-14 17 -35 1 -24 -2 -29 -11 -21 -7 6 -13 14 -13 18 0 13 -72 120 -81 120 -4
0 -9 -6 -12 -12 -2 -9 -8 -10 -18 -3 -9 6 -8 3 1 -5 12 -11 15 -27 12 -53 -5
-46 -22 -59 -22 -17 0 32 -19 38 -28 10 -3 -7 0 -10 7 -6 7 5 11 -1 11 -16 0
-13 -4 -18 -8 -13 -13 18 -52 36 -52 24 0 -6 -8 -3 -17 7 -16 15 -17 15 -24
-2 -8 -23 -15 -8 -23 51 -8 62 -18 95 -27 95 -5 0 -9 -12 -9 -27 l0 -28 -20
25 c-16 20 -20 22 -20 8 0 -21 -20 -24 -38 -6 -10 10 -15 10 -20 1 -5 -8 -15
0 -31 23 -24 34 -41 44 -41 22 0 -9 -3 -9 -11 -1 -13 13 -4 33 17 33 16 0 18
9 4 30 -5 8 -10 10 -10 4 0 -13 -32 -13 -41 -1 -3 5 -9 1 -12 -8 -4 -9 -1 -18
8 -21 20 -8 20 -54 0 -54 -8 0 -15 7 -15 15 0 18 -5 18 -31 5 -13 -7 -19 -7
-19 0 0 5 -9 10 -20 10 -11 0 -20 4 -20 9 0 5 9 11 20 14 38 10 22 25 -17 17
-20 -5 -40 -7 -44 -4 -4 2 -9 -2 -12 -8 -3 -9 -10 -7 -21 7 -13 17 -15 17 -16
4 0 -18 -40 -30 -71 -22 -10 3 -21 15 -25 26 -7 21 -7 21 -15 -2 -6 -15 -14
-21 -24 -17 -8 3 -15 0 -15 -7 0 -7 -8 -3 -16 8 -16 19 -16 19 -12 -11 3 -24
1 -31 -9 -27 -8 3 -12 10 -10 17 5 15 -14 31 -39 33 -17 1 -21 -3 -18 -20 3
-16 1 -15 -8 6 -12 28 -33 36 -41 15 -4 -10 -8 -9 -16 2 -39 56 -42 58 -73 39z
m466 -94 c-4 -11 -2 -13 9 -10 12 5 13 0 4 -41 -8 -34 -13 -42 -18 -28 -3 11
-5 22 -3 25 2 4 -3 12 -11 19 -14 11 -14 15 1 31 21 23 25 24 18 4z m187 -42
c1 -10 1 -21 1 -24 -1 -4 10 -19 24 -34 18 -20 22 -31 15 -38 -8 -8 -15 -2
-23 21 -14 36 -24 41 -31 15 -3 -10 -5 3 -6 30 0 26 4 47 9 47 6 0 11 -8 11
-17z m-268 -9 c3 -3 3 -13 0 -21 -5 -12 -7 -12 -14 -1 -15 23 -4 40 14 22z
m417 -31 c0 -10 -20 -40 -20 -31 0 3 -3 13 -6 22 -4 11 -1 16 10 16 9 0 16 -3
16 -7z m-10 -58 c0 -8 -4 -15 -10 -15 -5 0 -10 7 -10 15 0 8 5 15 10 15 6 0
10 -7 10 -15z m-536 -22 c4 -9 2 -21 -4 -27 -7 -7 -10 -7 -10 1 0 6 -3 18 -6
27 -3 9 -2 16 4 16 5 0 13 -8 16 -17z m266 13 c0 -3 -4 -8 -10 -11 -5 -3 -10
-1 -10 4 0 6 5 11 10 11 6 0 10 -2 10 -4z m528 -36 c4 -12 3 -13 -10 -3 -8 7
-18 10 -21 6 -4 -3 -7 -1 -7 6 0 17 32 10 38 -9z m-778 -20 c0 -5 -5 -10 -11
-10 -5 0 -7 5 -4 10 3 6 8 10 11 10 2 0 4 -4 4 -10z m735 -10 c3 -5 1 -10 -4
-10 -6 0 -11 5 -11 10 0 6 2 10 4 10 3 0 8 -4 11 -10z m-190 -50 c3 -5 2 -10
-4 -10 -5 0 -13 5 -16 10 -3 6 -2 10 4 10 5 0 13 -4 16 -10z m-671 -219 c3 -5
-3 -11 -14 -14 -22 -6 -37 8 -18 16 20 8 26 8 32 -2z m56 -36 c0 -8 -4 -15
-10 -15 -5 0 -10 7 -10 15 0 8 5 15 10 15 6 0 10 -7 10 -15z m-300 -110 c0 -9
-6 -12 -15 -9 -8 4 -15 1 -15 -6 0 -6 -5 -8 -12 -4 -7 5 -5 11 7 21 24 17 35
17 35 -2z"/>
<path d="M385 880 c-3 -5 -1 -10 4 -10 6 0 11 5 11 10 0 6 -2 10 -4 10 -3 0
-8 -4 -11 -10z"/>
<path d="M2198 883 c7 -3 16 -2 19 1 4 3 -2 6 -13 5 -11 0 -14 -3 -6 -6z"/>
<path d="M3572 866 c2 -19 5 -22 15 -14 10 8 10 14 2 24 -16 20 -19 18 -17
-10z"/>
<path d="M225 863 c-11 -3 -25 -10 -30 -17 -6 -7 -20 -16 -33 -20 -28 -9 -24
-30 6 -34 25 -4 103 39 83 46 -9 3 -9 7 0 18 12 14 9 15 -26 7z"/>
<path d="M510 859 c0 -5 5 -7 10 -4 6 3 10 8 10 11 0 2 -4 4 -10 4 -5 0 -10
-5 -10 -11z"/>
<path d="M2225 860 c3 -5 8 -10 11 -10 2 0 4 5 4 10 0 6 -5 10 -11 10 -5 0 -7
-4 -4 -10z"/>
<path d="M3247 855 c-4 -8 -2 -17 3 -20 6 -4 10 -4 10 -1 0 2 3 11 6 20 3 9 2
16 -4 16 -5 0 -12 -7 -15 -15z"/>
<path d="M4656 863 c-21 -21 33 -50 62 -34 15 9 15 10 -3 16 -11 4 -27 10 -36
15 -9 5 -20 6 -23 3z"/>
<path d="M3530 850 c0 -5 5 -10 10 -10 6 0 10 5 10 10 0 6 -4 10 -10 10 -5 0
-10 -4 -10 -10z"/>
<path d="M5665 850 c-3 -5 2 -10 12 -10 11 0 24 -5 31 -12 6 -6 15 -9 19 -5 4
4 2 11 -3 16 -16 15 -52 22 -59 11z"/>
<path d="M2180 840 c0 -5 5 -10 10 -10 6 0 10 5 10 10 0 6 -4 10 -10 10 -5 0
-10 -4 -10 -10z"/>
<path d="M3472 838 c6 -16 48 -23 48 -9 0 6 -7 8 -15 5 -8 -4 -15 -1 -15 5 0
6 -5 11 -11 11 -6 0 -9 -6 -7 -12z"/>
<path d="M4805 840 c3 -5 11 -10 16 -10 6 0 7 5 4 10 -3 6 -11 10 -16 10 -6 0
-7 -4 -4 -10z"/>
<path d="M5230 841 c0 -12 59 -55 66 -49 7 8 -7 38 -16 33 -4 -3 -13 2 -20 10
-14 17 -30 20 -30 6z"/>
<path d="M5820 835 c10 -12 10 -15 -2 -15 -8 0 -19 5 -26 12 -8 8 -12 8 -12 1
0 -6 6 -16 14 -22 20 -17 60 7 44 26 -6 7 -15 13 -20 13 -6 0 -5 -7 2 -15z"/>
<path d="M2575 830 c-3 -5 1 -10 9 -10 9 0 16 5 16 10 0 6 -4 10 -9 10 -6 0
-13 -4 -16 -10z"/>
<path d="M2910 829 c0 -5 5 -7 10 -4 6 3 10 8 10 11 0 2 -4 4 -10 4 -5 0 -10
-5 -10 -11z"/>
<path d="M418 823 c7 -3 16 -2 19 1 4 3 -2 6 -13 5 -11 0 -14 -3 -6 -6z"/>
<path d="M2300 815 c7 -8 16 -12 21 -9 13 8 1 24 -18 24 -13 0 -13 -3 -3 -15z"/>
<path d="M4770 821 c0 -5 5 -13 10 -16 6 -3 10 -2 10 4 0 5 -4 13 -10 16 -5 3
-10 2 -10 -4z"/>
<path d="M315 805 c-24 -11 -26 -14 -9 -15 11 0 29 7 40 15 24 18 9 18 -31 0z"/>
<path d="M3590 810 c0 -5 5 -10 11 -10 5 0 7 5 4 10 -3 6 -8 10 -11 10 -2 0
-4 -4 -4 -10z"/>
<path d="M4906 795 c18 -28 34 -33 34 -10 0 8 -7 15 -15 15 -8 0 -15 5 -15 10
0 6 -5 10 -10 10 -6 0 -3 -11 6 -25z"/>
<path d="M6172 808 c5 -15 56 -43 64 -35 9 8 -22 33 -49 41 -10 2 -17 0 -15
-6z"/>
<path d="M3110 789 c0 -11 4 -18 10 -14 5 3 7 12 3 20 -7 21 -13 19 -13 -6z"/>
<path d="M5750 802 c0 -12 19 -26 26 -19 2 2 -2 10 -11 17 -9 8 -15 8 -15 2z"/>
<path d="M505 790 c-3 -5 -2 -10 4 -10 5 0 13 5 16 10 3 6 2 10 -4 10 -5 0
-13 -4 -16 -10z"/>
<path d="M2250 790 c0 -5 7 -10 16 -10 8 0 12 5 9 10 -3 6 -10 10 -16 10 -5 0
-9 -4 -9 -10z"/>
<path d="M3490 791 c0 -5 11 -11 25 -13 28 -6 34 6 9 16 -22 8 -34 7 -34 -3z"/>
<path d="M4007 781 c-3 -12 3 -17 19 -19 29 -2 29 -1 5 20 -18 15 -19 15 -24
-1z"/>
<path d="M4824 785 c25 -19 37 -19 30 0 -4 8 -16 15 -28 15 -21 -1 -21 -1 -2
-15z"/>
<path d="M52 778 c-16 -16 -16 -44 1 -31 17 13 59 14 74 1 9 -7 14 -6 19 7 4
10 1 21 -7 26 -20 13 -73 11 -87 -3z"/>
<path d="M2350 783 c1 -10 50 -46 55 -41 8 8 -26 48 -41 48 -8 0 -14 -3 -14
-7z"/>
<path d="M420 769 c0 -5 5 -7 10 -4 6 3 10 8 10 11 0 2 -4 4 -10 4 -5 0 -10
-5 -10 -11z"/>
<path d="M4946 771 c-3 -4 3 -16 13 -25 22 -20 40 -4 21 19 -14 17 -26 19 -34
6z"/>
<path d="M347 764 c-3 -4 0 -13 8 -21 11 -11 19 -11 35 -3 11 6 20 15 20 20 0
11 -53 14 -63 4z"/>
<path d="M2655 760 c3 -5 8 -10 11 -10 2 0 4 5 4 10 0 6 -5 10 -11 10 -5 0 -7
-4 -4 -10z"/>
<path d="M3646 763 c-11 -12 -6 -19 14 -19 11 0 20 3 20 7 0 10 -27 19 -34 12z"/>
<path d="M5406 761 c-3 -5 1 -11 9 -14 9 -4 12 -1 8 9 -6 16 -10 17 -17 5z"/>
<path d="M4825 750 c3 -5 11 -10 16 -10 6 0 7 5 4 10 -3 6 -11 10 -16 10 -6 0
-7 -4 -4 -10z"/>
<path d="M4900 751 c0 -5 7 -12 16 -15 24 -9 28 -7 14 9 -14 17 -30 20 -30 6z"/>
<path d="M0 668 c0 -71 2 -79 15 -68 9 7 14 19 11 27 -3 7 0 13 7 13 7 0 26
11 42 24 24 20 28 27 18 37 -10 10 -13 10 -13 1 0 -7 -7 -12 -15 -12 -8 0 -15
8 -15 18 0 9 -11 22 -25 29 l-25 11 0 -80z"/>
<path d="M224 740 c-12 -5 -25 -14 -30 -21 -5 -9 3 -11 34 -6 27 3 42 1 42 -6
0 -6 3 -8 6 -5 7 7 -14 48 -24 47 -4 0 -17 -4 -28 -9z"/>
<path d="M2716 743 c-11 -11 -7 -58 7 -77 11 -15 18 -17 33 -8 18 11 18 11 -3
12 -23 0 -31 14 -14 24 10 6 3 43 -9 51 -4 2 -10 2 -14 -2z"/>
<path d="M3466 743 c-12 -12 -6 -22 11 -16 11 4 14 3 9 -5 -4 -7 -1 -12 8 -12
9 0 16 4 16 10 0 12 -35 31 -44 23z"/>
<path d="M3540 734 c0 -8 5 -12 10 -9 6 4 8 11 5 16 -9 14 -15 11 -15 -7z"/>
<path d="M5885 740 c3 -5 8 -10 11 -10 2 0 4 5 4 10 0 6 -5 10 -11 10 -5 0 -7
-4 -4 -10z"/>
<path d="M5915 739 c-4 -6 -5 -13 -2 -16 7 -7 27 6 27 18 0 12 -17 12 -25 -2z"/>
<path d="M6000 741 c0 -6 5 -13 10 -16 6 -3 10 1 10 9 0 9 -4 16 -10 16 -5 0
-10 -4 -10 -9z"/>
<path d="M2340 730 c0 -5 5 -10 10 -10 6 0 10 5 10 10 0 6 -4 10 -10 10 -5 0
-10 -4 -10 -10z"/>
<path d="M2585 730 c-3 -5 -1 -10 4 -10 6 0 11 5 11 10 0 6 -2 10 -4 10 -3 0
-8 -4 -11 -10z"/>
<path d="M3110 727 c0 -10 8 -17 18 -17 9 0 13 4 7 8 -5 4 -13 11 -17 16 -5 5
-8 2 -8 -7z"/>
<path d="M3410 730 c0 -5 5 -10 11 -10 5 0 7 5 4 10 -3 6 -8 10 -11 10 -2 0
-4 -4 -4 -10z"/>
<path d="M2649 724 c-1 -5 -1 -12 0 -17 1 -4 -11 -4 -25 -1 -23 6 -25 4 -19
-15 4 -13 2 -28 -5 -36 -7 -8 -9 -15 -4 -15 5 0 2 -5 -6 -10 -13 -9 -13 -11 0
-20 26 -17 33 -11 27 20 -5 25 -3 30 12 30 13 0 20 10 25 32 3 17 4 33 1 36
-3 3 -6 1 -6 -4z"/>
<path d="M3580 720 c0 -6 -10 -15 -22 -20 -21 -9 -20 -9 7 -7 19 1 31 8 33 20
2 9 -1 17 -7 17 -6 0 -11 -5 -11 -10z"/>
<path d="M3688 723 c19 -7 14 -50 -9 -71 l-20 -20 30 -4 c25 -4 31 -1 31 14 0
10 5 18 10 18 6 0 10 6 10 14 0 8 6 16 13 19 16 6 6 16 -21 20 -12 2 -25 6
-28 10 -4 4 -12 7 -18 6 -6 0 -5 -3 2 -6z"/>
<path d="M5980 720 c0 -5 5 -10 10 -10 6 0 10 5 10 10 0 6 -4 10 -10 10 -5 0
-10 -4 -10 -10z"/>
<path d="M100 710 c0 -5 5 -10 10 -10 6 0 10 5 10 10 0 6 -4 10 -10 10 -5 0
-10 -4 -10 -10z"/>
<path d="M2212 700 c0 -14 2 -19 5 -12 2 6 2 18 0 25 -3 6 -5 1 -5 -13z"/>
<path d="M2440 710 c0 -5 5 -10 11 -10 5 0 7 5 4 10 -3 6 -8 10 -11 10 -2 0
-4 -4 -4 -10z"/>
<path d="M2476 703 c-11 -11 -6 -23 9 -23 8 0 15 4 15 9 0 13 -16 22 -24 14z"/>
<path d="M3325 700 c-3 -5 -1 -10 4 -10 6 0 11 5 11 10 0 6 -2 10 -4 10 -3 0
-8 -4 -11 -10z"/>
<path d="M5935 700 c3 -5 8 -10 11 -10 2 0 4 5 4 10 0 6 -5 10 -11 10 -5 0 -7
-4 -4 -10z"/>
<path d="M2235 690 c-3 -5 -3 -14 0 -20 3 -6 -1 -7 -9 -4 -9 3 -16 1 -16 -5 0
-6 6 -11 13 -11 17 0 37 20 37 37 0 15 -16 17 -25 3z"/>
<path d="M3460 689 c0 -6 -9 -8 -22 -4 -17 6 -20 4 -15 -9 4 -11 1 -16 -10
-16 -14 0 -14 -2 2 -20 15 -16 21 -18 33 -7 8 6 17 11 19 9 3 -2 7 -1 11 2 3
3 -1 6 -8 6 -11 0 -11 3 -2 12 15 15 16 38 2 38 -5 0 -10 -5 -10 -11z"/>
<path d="M275 679 c-11 -4 -14 -8 -7 -8 6 -1 12 -10 12 -21 0 -24 22 -26 40
-5 10 12 10 15 -3 15 -9 0 -17 6 -19 14 -2 9 -9 11 -23 5z"/>
<path d="M2806 681 c-4 -7 -5 -15 -2 -18 9 -9 19 4 14 18 -4 11 -6 11 -12 0z"/>
<path d="M105 670 c-2 -3 0 -12 4 -19 7 -10 13 -10 29 -2 11 6 31 11 44 11 13
0 30 5 38 10 11 7 -4 9 -48 8 -35 -2 -65 -5 -67 -8z"/>
<path d="M2505 670 c-3 -5 -2 -10 4 -10 5 0 13 5 16 10 3 6 2 10 -4 10 -5 0
-13 -4 -16 -10z"/>
<path d="M2667 660 c-3 -13 1 -24 13 -30 15 -8 17 -6 12 13 -5 20 -4 21 13 7
17 -14 18 -14 6 8 -15 27 -37 29 -44 2z"/>
<path d="M3586 655 c23 -17 47 -19 42 -4 -2 7 -17 13 -32 15 -26 3 -27 2 -10
-11z"/>
<path d="M3760 660 c0 -5 5 -10 11 -10 5 0 7 5 4 10 -3 6 -8 10 -11 10 -2 0
-4 -4 -4 -10z"/>
<path d="M3870 659 c0 -5 5 -7 10 -4 6 3 10 8 10 11 0 2 -4 4 -10 4 -5 0 -10
-5 -10 -11z"/>
<path d="M73 639 c-13 -13 -5 -51 11 -46 14 5 20 37 9 48 -5 5 -13 5 -20 -2z"/>
<path d="M2633 613 c4 -31 22 -41 30 -18 4 8 2 15 -3 15 -6 0 -10 7 -10 15 0
8 -5 15 -10 15 -6 0 -9 -12 -7 -27z"/>
<path d="M2750 621 c0 -5 5 -13 10 -16 6 -3 10 -2 10 4 0 5 -4 13 -10 16 -5 3
-10 2 -10 -4z"/>
<path d="M2800 620 c0 -5 5 -10 10 -10 6 0 10 5 10 10 0 6 -4 10 -10 10 -5 0
-10 -4 -10 -10z"/>
<path d="M3150 616 c0 -9 5 -16 10 -16 6 0 10 4 10 9 0 6 -4 13 -10 16 -5 3
-10 -1 -10 -9z"/>
<path d="M2917 593 c-8 -39 18 -76 49 -70 13 2 25 -1 28 -7 2 -6 5 -4 5 5 1
16 -27 46 -38 41 -3 -1 -10 11 -14 28 -10 37 -23 39 -30 3z"/>
<path d="M3870 610 c0 -5 5 -10 10 -10 6 0 10 5 10 10 0 6 -4 10 -10 10 -5 0
-10 -4 -10 -10z"/>
<path d="M2830 599 c0 -5 -12 -6 -26 -3 -19 5 -25 4 -20 -5 4 -6 13 -11 20
-11 8 0 20 -8 27 -17 9 -10 9 -14 2 -10 -7 5 -18 -3 -27 -20 -8 -15 -15 -22
-16 -15 0 17 -20 15 -20 -3 0 -8 6 -15 13 -15 6 0 22 -3 35 -6 16 -5 22 -2 22
9 0 8 5 17 11 19 6 2 12 20 14 40 3 29 -1 37 -16 41 -10 3 -19 1 -19 -4z"/>
<path d="M3440 595 c0 -8 4 -15 10 -15 5 0 7 7 4 15 -4 8 -8 15 -10 15 -2 0
-4 -7 -4 -15z"/>
<path d="M3725 601 c-3 -5 -1 -12 5 -16 5 -3 10 1 10 9 0 18 -6 21 -15 7z"/>
<path d="M3991 594 c0 -11 3 -14 6 -6 3 7 2 16 -1 19 -3 4 -6 -2 -5 -13z"/>
<path d="M5270 601 c0 -5 9 -7 20 -4 11 3 20 7 20 9 0 2 -9 4 -20 4 -11 0 -20
-4 -20 -9z"/>
<path d="M6305 590 c3 -5 10 -10 16 -10 5 0 9 5 9 10 0 6 -7 10 -16 10 -8 0
-12 -4 -9 -10z"/>
<path d="M295 565 l-30 -26 43 21 c43 21 52 30 30 30 -7 0 -26 -12 -43 -25z"/>
<path d="M3116 574 c-9 -23 -7 -36 3 -30 12 8 21 46 11 46 -4 0 -11 -7 -14
-16z"/>
<path d="M3480 580 c0 -5 5 -10 11 -10 5 0 7 5 4 10 -3 6 -8 10 -11 10 -2 0
-4 -4 -4 -10z"/>
<path d="M4110 580 c-13 -8 -13 -10 2 -10 9 0 20 5 23 10 8 13 -5 13 -25 0z"/>
<path d="M2685 570 c-3 -5 0 -10 8 -10 8 0 19 -10 26 -22 7 -14 9 -16 6 -5 -3
10 -5 25 -5 33 0 16 -26 19 -35 4z"/>
<path d="M3030 569 c0 -5 5 -7 10 -4 6 3 10 8 10 11 0 2 -4 4 -10 4 -5 0 -10
-5 -10 -11z"/>
<path d="M3750 565 c0 -8 4 -15 10 -15 5 0 7 7 4 15 -4 8 -8 15 -10 15 -2 0
-4 -7 -4 -15z"/>
<path d="M3080 563 c0 -4 5 -15 10 -23 8 -13 10 -13 10 2 0 9 -4 20 -10 23 -5
3 -10 3 -10 -2z"/>
<path d="M3170 536 c0 -22 3 -27 11 -19 8 8 8 16 0 30 -9 16 -10 14 -11 -11z"/>
<path d="M3690 551 c0 -6 5 -13 10 -16 6 -3 10 1 10 9 0 9 -4 16 -10 16 -5 0
-10 -4 -10 -9z"/>
<path d="M3785 540 c-3 -5 -1 -10 4 -10 6 0 11 5 11 10 0 6 -2 10 -4 10 -3 0
-8 -4 -11 -10z"/>
<path d="M3870 541 c0 -18 18 -21 30 -6 10 13 9 15 -9 15 -11 0 -21 -4 -21 -9z"/>
<path d="M2670 530 c0 -5 5 -10 10 -10 6 0 10 5 10 10 0 6 -4 10 -10 10 -5 0
-10 -4 -10 -10z"/>
<path d="M3043 528 c-23 -11 -31 -28 -13 -28 6 0 10 5 10 10 0 6 7 10 16 8 10
-2 19 3 21 10 6 14 -4 14 -34 0z"/>
<path d="M4176 525 c4 -8 11 -15 16 -15 6 0 5 6 -2 15 -7 8 -14 15 -16 15 -2
0 -1 -7 2 -15z"/>
<path d="M6176 511 c-3 -4 12 -13 34 -20 31 -9 44 -9 60 1 11 7 20 16 20 21 0
4 -5 5 -12 1 -16 -10 -58 -11 -64 -2 -7 11 -31 10 -38 -1z"/>
<path d="M4111 470 c-36 -33 -39 -38 -21 -43 10 -3 19 -2 18 2 -2 18 3 31 14
31 6 0 20 7 30 17 11 9 18 11 18 5 0 -14 26 -16 34 -3 3 5 -7 14 -24 19 -26
10 -33 7 -69 -28z"/>
<path d="M6290 465 c0 -8 9 -15 20 -15 13 0 18 5 14 15 -4 8 -12 15 -20 15 -8
0 -14 -7 -14 -15z"/>
<path d="M2715 459 c-4 -6 -5 -12 -2 -15 2 -3 7 2 10 11 7 17 1 20 -8 4z"/>
<path d="M2805 460 c-3 -5 -1 -10 4 -10 6 0 11 5 11 10 0 6 -2 10 -4 10 -3 0
-8 -4 -11 -10z"/>
<path d="M3976 455 c-3 -8 -1 -15 4 -15 6 0 10 7 10 15 0 8 -2 15 -4 15 -2 0
-6 -7 -10 -15z"/>
<path d="M3090 449 c0 -5 5 -7 10 -4 6 3 10 8 10 11 0 2 -4 4 -10 4 -5 0 -10
-5 -10 -11z"/>
<path d="M3835 450 c3 -5 13 -10 21 -10 8 0 12 5 9 10 -3 6 -13 10 -21 10 -8
0 -12 -4 -9 -10z"/>
<path d="M3904 445 c21 -16 32 -13 21 4 -3 6 -14 11 -23 11 -15 -1 -15 -2 2
-15z"/>
<path d="M4040 440 c0 -5 5 -10 11 -10 5 0 7 5 4 10 -3 6 -8 10 -11 10 -2 0
-4 -4 -4 -10z"/>
<path d="M4128 444 c-3 -3 -4 -13 -1 -23 5 -20 53 -48 53 -31 0 6 -6 10 -12
10 -8 1 -7 5 4 13 15 12 15 14 -3 25 -21 13 -33 15 -41 6z"/>
<path d="M4215 440 c3 -5 8 -10 11 -10 2 0 4 5 4 10 0 6 -5 10 -11 10 -5 0 -7
-4 -4 -10z"/>
<path d="M6345 439 c-8 -12 36 -22 47 -11 6 6 0 11 -17 14 -14 3 -28 2 -30 -3z"/>
<path d="M4012 407 c-8 -10 -6 -16 9 -25 11 -7 17 -16 14 -21 -6 -11 23 -36
32 -27 4 4 1 12 -7 17 -12 9 -11 10 4 5 19 -7 46 9 46 26 0 6 -7 5 -15 -2 -12
-10 -19 -10 -27 -2 -7 7 -21 12 -31 12 -13 0 -17 5 -13 15 7 18 2 19 -12 2z"/>
<path d="M3105 389 c-10 -15 3 -25 16 -12 7 7 7 13 1 17 -6 3 -14 1 -17 -5z"/>
<path d="M3140 375 c-8 -9 -8 -15 -2 -15 12 0 26 19 19 26 -2 2 -10 -2 -17
-11z"/>
<path d="M6290 374 c1 -14 105 -75 108 -64 6 16 -18 40 -40 40 -10 0 -30 7
-43 16 -14 9 -25 12 -25 8z"/>
<path d="M4145 360 c-3 -6 1 -7 9 -4 18 7 21 14 7 14 -6 0 -13 -4 -16 -10z"/>
<path d="M3914 326 c-3 -8 -1 -23 5 -33 6 -11 11 -13 12 -5 3 22 4 27 12 40 5
8 3 12 -8 12 -8 0 -18 -6 -21 -14z"/>
<path d="M108 307 c-19 -7 -28 -18 -27 -31 1 -25 17 -67 18 -48 1 16 27 43 38
41 4 -1 16 1 26 6 17 7 17 9 -2 26 -11 11 -21 19 -23 18 -2 -1 -15 -6 -30 -12z"/>
<path d="M4000 296 c0 -2 7 -7 16 -10 8 -3 12 -2 9 4 -6 10 -25 14 -25 6z"/>
<path d="M3406 282 c-2 -4 -1 -14 3 -21 6 -9 10 -7 14 8 5 20 -7 29 -17 13z"/>
<path d="M3865 279 c-4 -6 -5 -13 -2 -16 7 -7 27 6 27 18 0 12 -17 12 -25 -2z"/>
<path d="M3940 268 c-24 -26 -23 -27 16 -21 25 4 31 9 27 24 -7 25 -18 24 -43
-3z"/>
<path d="M235 260 c4 -6 11 -8 16 -5 14 9 11 15 -7 15 -8 0 -12 -5 -9 -10z"/>
<path d="M6380 245 c7 -9 15 -13 17 -11 7 7 -7 26 -19 26 -6 0 -6 -6 2 -15z"/>
<path d="M3096 222 c-2 -4 -6 -19 -10 -33 -4 -20 -1 -29 11 -33 23 -9 29 2 15
24 -17 27 -15 33 8 27 11 -3 20 -2 20 3 0 10 -39 20 -44 12z"/>
<path d="M3167 201 c-3 -14 0 -21 9 -21 16 0 18 9 5 28 -6 10 -10 9 -14 -7z"/>
<path d="M3297 213 c-4 -3 -7 -13 -7 -21 0 -9 3 -12 7 -9 7 8 33 -11 33 -25 0
-6 -7 -8 -14 -5 -10 4 -13 1 -9 -9 3 -8 12 -13 19 -10 8 3 14 2 14 -3 0 -12
35 -20 50 -11 9 6 7 13 -9 29 -11 11 -23 21 -26 21 -3 0 -9 0 -15 0 -5 0 -10
6 -10 14 0 17 -24 38 -33 29z"/>
<path d="M3860 210 c0 -5 5 -10 10 -10 6 0 10 5 10 10 0 6 -4 10 -10 10 -5 0
-10 -4 -10 -10z"/>
<path d="M3704 150 c5 -25 2 -30 -14 -30 -11 0 -20 -6 -20 -14 0 -9 9 -14 20
-13 11 1 20 5 20 10 0 5 9 6 20 2 16 -5 19 -3 14 12 -20 62 -51 88 -40 33z"/>
<path d="M3200 140 c0 -5 7 -10 16 -10 8 0 12 5 9 10 -3 6 -10 10 -16 10 -5 0
-9 -4 -9 -10z"/>
<path d="M3755 130 c-3 -5 -1 -10 4 -10 6 0 11 5 11 10 0 6 -2 10 -4 10 -3 0
-8 -4 -11 -10z"/>
<path d="M3245 110 c-3 -5 1 -10 9 -10 8 0 18 5 21 10 3 6 -1 10 -9 10 -8 0
-18 -4 -21 -10z"/>
<path d="M3414 95 c8 -8 18 -15 22 -15 3 0 1 7 -6 15 -7 8 -17 15 -22 15 -5 0
-3 -7 6 -15z"/>
<path d="M3651 94 c12 -15 11 -16 -9 -10 -13 5 -22 3 -22 -3 0 -6 5 -11 11
-11 6 0 9 -6 6 -14 -7 -18 17 -28 31 -14 12 12 -4 68 -20 68 -6 0 -4 -7 3 -16z"/>
<path d="M3455 70 c3 -5 8 -10 11 -10 2 0 4 5 4 10 0 6 -5 10 -11 10 -5 0 -7
-4 -4 -10z"/>
<path d="M3510 73 c0 -17 44 -73 58 -73 13 0 11 4 -6 20 -12 12 -22 27 -22 34
0 8 -7 16 -15 20 -8 3 -15 3 -15 -1z"/>
<path d="M3322 59 c2 -7 10 -15 17 -17 8 -3 12 1 9 9 -2 7 -10 15 -17 17 -8 3
-12 -1 -9 -9z"/>
<path d="M3706 61 c-4 -6 -3 -18 2 -27 8 -15 10 -14 16 2 8 20 -8 42 -18 25z"/>
<path d="M3230 40 c0 -5 7 -7 15 -4 8 4 15 8 15 10 0 2 -7 4 -15 4 -8 0 -15
-4 -15 -10z"/>
<path d="M3330 20 c0 -5 7 -7 15 -4 8 4 15 8 15 10 0 2 -7 4 -15 4 -8 0 -15
-4 -15 -10z"/>
<path d="M3605 22 c-6 -6 4 -22 15 -22 4 0 10 6 13 13 5 13 -17 20 -28 9z"/>
<path d="M3670 10 c0 -5 7 -10 15 -10 8 0 15 5 15 10 0 6 -7 10 -15 10 -8 0
-15 -4 -15 -10z"/>
</g>
</svg>
