<?xml version="1.0" standalone="no"?>
<!DOCTYPE svg PUBLIC "-//W3C//DTD SVG 20010904//EN"
 "http://www.w3.org/TR/2001/REC-SVG-20010904/DTD/svg10.dtd">
<svg version="1.0" xmlns="http://www.w3.org/2000/svg"
 width="512.000000pt" height="512.000000pt" viewBox="0 0 512.000000 512.000000"
 preserveAspectRatio="xMidYMid meet">

<g transform="translate(0.000000,512.000000) scale(0.100000,-0.100000)"
fill="#000000" stroke="none">
<path d="M203 5102 c-100 -35 -171 -115 -193 -216 -8 -36 -10 -638 -8 -2096
l3 -2045 21 -46 c31 -66 78 -114 142 -146 l57 -28 600 -3 c630 -3 640 -2 670
42 17 24 20 79 5 107 -27 49 -29 49 -645 49 -625 0 -618 -1 -643 55 -9 20 -12
420 -12 1685 l0 1660 2360 0 2360 0 0 -1660 c0 -1806 3 -1702 -55 -1728 -18
-8 -105 -12 -283 -12 l-257 0 -509 509 -510 510 41 88 c321 684 34 1510 -643
1855 -126 64 -225 99 -368 130 -145 31 -407 31 -553 0 -570 -123 -993 -545
-1115 -1115 -29 -135 -31 -397 -5 -532 57 -292 187 -535 397 -745 205 -206
432 -329 718 -392 131 -29 414 -32 542 -5 112 23 256 71 348 114 l74 36 227
-227 226 -226 -457 0 -458 0 -32 -29 c-27 -24 -33 -36 -33 -71 0 -35 6 -47 33
-71 l32 -29 557 0 557 0 231 -228 c241 -239 269 -260 377 -283 124 -27 281 23
367 117 85 91 129 241 103 351 l-10 42 217 3 c213 3 217 3 273 31 64 32 111
80 142 146 l21 46 0 2075 0 2075 -28 57 c-32 64 -80 111 -146 142 l-46 21
-2320 2 c-2207 2 -2323 2 -2372 -15z m4662 -194 c51 -23 55 -45 55 -328 l0
-260 -2360 0 -2360 0 0 263 c1 280 3 297 51 323 34 19 4574 21 4614 2z m-2565
-1293 c508 -107 889 -508 966 -1015 87 -582 -260 -1149 -818 -1335 -371 -124
-776 -64 -1095 161 -87 62 -225 200 -287 287 -276 390 -299 907 -61 1317 181
309 503 535 840 589 39 6 81 13 95 15 51 9 288 -3 360 -19z m943 -2377 l-143
-143 -94 94 -94 94 57 47 c68 56 221 219 221 234 0 6 44 -33 97 -87 l98 -97
-142 -142z m654 -370 c375 -377 383 -386 383 -467 0 -143 -157 -243 -284 -181
-26 12 -168 147 -396 375 l-355 355 140 140 c77 77 142 140 145 140 3 0 168
-163 367 -362z"/>
<path d="M591 4706 c-87 -48 -50 -186 49 -186 51 0 100 49 100 99 0 75 -83
124 -149 87z"/>
<path d="M1031 4706 c-87 -48 -50 -186 49 -186 51 0 100 49 100 99 0 75 -83
124 -149 87z"/>
<path d="M1471 4706 c-87 -48 -50 -186 49 -186 51 0 100 49 100 99 0 75 -83
124 -149 87z"/>
<path d="M2271 4706 c-67 -37 -65 -143 4 -174 20 -9 294 -12 1126 -12 932 0
1104 2 1128 14 66 35 66 137 0 172 -40 20 -2221 21 -2258 0z"/>
<path d="M1894 3426 c-417 -80 -724 -367 -826 -773 -33 -132 -31 -350 4 -484
139 -518 631 -839 1153 -754 588 95 969 679 821 1256 -92 361 -372 642 -732
735 -122 32 -312 41 -420 20z m332 -205 c159 -33 306 -114 420 -233 74 -76
115 -136 159 -231 56 -121 69 -186 69 -337 0 -162 -20 -246 -92 -385 -38 -73
-66 -109 -147 -191 -83 -83 -116 -108 -191 -147 -141 -72 -223 -91 -384 -91
-151 0 -216 13 -336 69 -175 80 -311 211 -393 377 -61 126 -80 193 -87 323
-28 462 345 859 811 864 44 0 121 -8 171 -18z"/>
<path d="M1994 2906 c-37 -37 -43 -70 -20 -115 15 -28 53 -51 86 -51 51 0 100
49 100 99 0 34 -23 72 -51 87 -45 23 -78 17 -115 -20z"/>
<path d="M2008 2473 c-14 -9 -31 -27 -37 -40 -18 -38 -15 -447 3 -482 24 -46
80 -62 131 -39 50 23 55 48 55 282 0 233 -5 257 -51 282 -36 18 -68 17 -101
-3z"/>
<path d="M3468 3664 c-54 -29 -66 -102 -24 -151 l24 -28 152 0 152 0 24 28
c26 30 32 83 14 118 -21 39 -62 49 -192 49 -89 -1 -131 -5 -150 -16z"/>
<path d="M4098 3651 c-27 -24 -33 -36 -33 -71 0 -35 6 -47 33 -71 l32 -29 185
0 c200 0 227 6 251 51 18 37 18 65 -3 99 -26 45 -50 50 -248 50 l-185 0 -32
-29z"/>
<path d="M3658 3171 c-27 -24 -33 -36 -33 -71 0 -35 6 -47 33 -71 l32 -29 406
0 c331 0 410 3 433 14 66 35 66 137 0 172 -23 11 -102 14 -433 14 l-406 0 -32
-29z"/>
<path d="M4168 2691 c-27 -24 -33 -36 -33 -71 0 -35 6 -47 33 -71 l32 -29 150
0 c163 0 193 7 216 51 27 52 8 115 -41 137 -16 8 -81 12 -175 12 l-150 0 -32
-29z"/>
<path d="M1798 691 c-27 -24 -33 -36 -33 -71 0 -35 6 -47 33 -71 36 -32 69
-36 112 -14 35 18 50 43 50 85 0 42 -15 67 -50 85 -43 22 -76 18 -112 -14z"/>
</g>
</svg>
