<?xml version="1.0" standalone="no"?>
<!DOCTYPE svg PUBLIC "-//W3C//DTD SVG 20010904//EN"
 "http://www.w3.org/TR/2001/REC-SVG-20010904/DTD/svg10.dtd">
<svg version="1.0" xmlns="http://www.w3.org/2000/svg"
 width="512.000000pt" height="512.000000pt" viewBox="0 0 512.000000 512.000000"
 preserveAspectRatio="xMidYMid meet">

<g transform="translate(0.000000,512.000000) scale(0.100000,-0.100000)"
fill="#000000" stroke="none">
<path d="M4279 4735 c-72 -26 -116 -54 -162 -104 -74 -79 -92 -126 -92 -246 0
-92 3 -106 30 -162 l31 -61 -329 -384 c-181 -210 -342 -398 -357 -416 -26 -32
-29 -33 -51 -19 -13 9 -51 23 -83 33 -117 33 -252 1 -346 -83 l-45 -41 -285
168 c-262 154 -285 169 -280 191 3 13 5 60 5 104 0 71 -4 89 -32 146 -39 79
-102 140 -181 177 -49 23 -70 27 -152 27 -82 0 -103 -4 -152 -27 -149 -70
-240 -242 -209 -394 6 -33 8 -60 4 -62 -5 -1 -134 -76 -288 -167 l-279 -164
-44 41 c-24 22 -69 52 -100 66 -49 23 -70 27 -147 27 -77 0 -98 -4 -147 -27
-76 -35 -148 -104 -184 -175 -27 -53 -29 -67 -29 -163 0 -95 3 -110 27 -157
145 -274 513 -281 659 -11 33 61 34 67 35 177 l0 115 283 164 282 165 32 -30
c79 -74 155 -104 262 -104 93 0 169 28 234 87 28 25 55 44 60 42 4 -1 134 -77
288 -167 l281 -164 -10 -36 c-16 -58 -3 -171 27 -234 71 -152 242 -239 401
-207 81 16 147 54 204 117 66 72 93 145 94 248 0 70 -4 90 -32 149 -28 59 -30
71 -19 85 137 161 682 799 688 805 5 6 28 1 56 -12 198 -91 426 2 503 205 28
75 25 203 -7 275 -24 54 -92 131 -143 163 -84 52 -219 71 -301 40z m206 -134
c124 -58 174 -211 109 -332 -117 -215 -444 -135 -445 109 -1 141 97 242 236
242 37 0 75 -7 100 -19z m-2442 -674 c148 -62 194 -256 89 -377 -60 -71 -141
-99 -230 -79 -219 46 -259 344 -60 443 59 30 147 35 201 13z m-1208 -691 c96
-44 139 -120 133 -232 -3 -61 -8 -79 -33 -116 -137 -193 -435 -104 -436 131
-1 179 175 293 336 217z m2410 13 c61 -17 139 -101 155 -168 37 -156 -71 -295
-230 -295 -137 0 -239 98 -240 232 0 166 149 276 315 231z"/>
<path d="M3950 1970 l0 -1600 435 0 435 0 0 1600 0 1600 -435 0 -435 0 0
-1600z m740 0 l0 -1470 -305 0 -305 0 0 1470 0 1470 305 0 305 0 0 -1470z"/>
<path d="M1512 1633 l3 -1258 438 -3 437 -2 0 1260 0 1260 -440 0 -440 0 2
-1257z m748 -3 l0 -1130 -310 0 -310 0 0 1130 0 1130 310 0 310 0 0 -1130z"/>
<path d="M300 1290 l0 -920 435 0 435 0 0 920 0 920 -435 0 -435 0 0 -920z
m740 0 l0 -790 -305 0 -305 0 0 790 0 790 305 0 305 0 0 -790z"/>
<path d="M2730 1290 l0 -920 438 2 437 3 3 918 2 917 -440 0 -440 0 0 -920z
m750 0 l0 -790 -310 0 -310 0 0 790 0 790 310 0 310 0 0 -790z"/>
</g>
</svg>
